<?xml version="1.0" encoding="UTF-8" standalone="no"?>
<svg xmlns:dc="http://purl.org/dc/elements/1.1/" xmlns:cc="http://creativecommons.org/ns#" xmlns:rdf="http://www.w3.org/1999/02/22-rdf-syntax-ns#" xmlns:svg="http://www.w3.org/2000/svg" xmlns="http://www.w3.org/2000/svg" xmlns:xlink="http://www.w3.org/1999/xlink" xmlns:sodipodi="http://sodipodi.sourceforge.net/DTD/sodipodi-0.dtd" xmlns:inkscape="http://www.inkscape.org/namespaces/inkscape" width="88" height="31" viewBox="0 0 23.283333 8.2020835" version="1.1" id="svg8" sodipodi:docname="zeus-retro.svg" inkscape:version="1.0.2-2 (e86c870879, 2021-01-15)">
	<rect style="display:inline;fill:#665c54;fill-opacity:1;fill-rule:evenodd;stroke-width:0.661458;stroke-linecap:round;stroke-miterlimit:9;stop-color:#000000" id="rect830" width="23.283333" height="8.2020836" x="0" y="0">
		<title id="title19">bg</title>
	</rect>
	<g id="g849" style="display:inline" inkscape:label="borders">
		<title id="title25">borders</title>
		<path id="path846" style="opacity:1;vector-effect:none;fill:#282828;fill-opacity:1;stroke:none;stroke-width:0.999999px;stroke-linecap:butt;stroke-linejoin:miter;stroke-miterlimit:4;stroke-dasharray:none;stroke-dashoffset:0;stroke-opacity:1" d="M 88,0 86,2 V 29 H 2 l -2,2 h 86 2 v -2 z" transform="scale(0.26458333)" inkscape:label="dark" />
		<path id="path851" style="opacity:1;vector-effect:none;fill:#ebdbb2;fill-opacity:1;stroke:none;stroke-width:0.999999px;stroke-linecap:butt;stroke-linejoin:miter;stroke-miterlimit:4;stroke-dasharray:none;stroke-dashoffset:0;stroke-opacity:1" d="M 0,0 V 2 31 L 2,29 V 2 H 86 L 88,0 H 2 Z" transform="scale(0.26458333)" inkscape:label="light" />
		<rect style="fill:#1d2021;fill-opacity:1;fill-rule:evenodd;stroke:none;stroke-width:0.0264583;stroke-linecap:round;stroke-linejoin:round;stop-color:#000000" id="rect925" width="0.52916646" height="0.52916706" x="22.754166" y="7.6729164" inkscape:label="black" />
		<rect style="fill:#fbf1c7;fill-opacity:1;fill-rule:evenodd;stroke:none;stroke-width:0.0264583;stroke-linecap:round;stroke-linejoin:round;stop-color:#000000" id="rect927" width="0.52916646" height="0.52916753" x="1.7529297e-07" y="-8.8764642e-07" inkscape:label="white" />
	</g>
	<g aria-label="Zeus" id="g943" style="font-size:6.35px;line-height:1.25;font-family:'Century Gothic';letter-spacing:-0.264583px;word-spacing:0px;display:inline;stroke-width:0.264583" transform="translate(0.18716666,0.16282831)" inkscape:label="main-border">
		<path id="path929" style="font-style:normal;font-variant:normal;font-weight:normal;font-stretch:normal;font-size:6.35px;font-family:'Cooper Std';display:inline;fill:#ebdbb2;fill-opacity:1;stroke:#504945;stroke-width:4.00000006;stroke-linecap:round;stroke-linejoin:round;stroke-miterlimit:4;stroke-dasharray:none;stroke-opacity:1;paint-order:stroke" inkscape:label="hack" d="m 30.960938,4.1445312 c -0.574489,0 -2.228722,0.095092 -3.982422,0.1933594 -1.776378,0.1171654 -3.624439,0.1425782 -4.65625,0.1425782 -1.485355,0 -2.350839,-0.049283 -2.853516,-0.1210938 -0.48,-0.094488 -0.650413,-0.1699219 -0.767578,-0.1699219 -0.578268,0 -2.234375,2.4985802 -2.234375,4.3203125 0,0.3763997 0.119686,0.785783 0.322265,1.140625 0.01836,0.1530769 0.04691,0.3084998 0.09766,0.4609374 -0.004,0.06549 -0.01953,0.135258 -0.01953,0.199219 0,0.291241 0.07451,0.601613 0.199218,0.892578 -6e-6,0.0025 0,0.0053 0,0.0078 0,0.292275 0.07562,0.602688 0.201172,0.894531 -1e-6,0.0012 0,0.0027 0,0.0039 0,0.29162 0.0742,0.603245 0.199219,0.894531 -4e-6,0.0019 0,0.004 0,0.0059 0,0.914645 0.673573,2.041015 1.65625,2.041015 0.28179,0 0.491954,-0.09441 0.667969,-0.242187 l -2.580078,4.382812 c -0.215434,0.359055 -0.50586,0.743849 -0.50586,1.201172 0,0.417481 0.123187,0.649251 0.31836,0.777344 -0.0048,0.04138 -0.01758,0.08046 -0.01758,0.123047 0,0.273113 0.05377,0.464034 0.144532,0.601562 -0.02558,0.09671 -0.04492,0.195286 -0.04492,0.298828 0,0.345061 0.09134,0.55344 0.230469,0.691407 -0.01313,0.06898 -0.03125,0.13658 -0.03125,0.208984 0,0.346687 0.09211,0.55551 0.232421,0.693359 -0.01268,0.06778 -0.03125,0.133999 -0.03125,0.205079 0,0.345881 0.09075,0.555451 0.230469,0.693359 -0.01291,0.06838 -0.03125,0.135289 -0.03125,0.207031 0,1.126299 0.8887,0.91211 1.705078,0.91211 h 6.378906 c 2.48315,0 5.632067,2.581337 6.017579,2.910156 1.028031,0.869291 2.8719,2.867187 5.517578,2.867187 2.641905,0 4.626953,-1.194353 4.626953,-3.787109 0,-0.272126 -0.08697,-0.373047 -0.234375,-0.373047 -0.0051,0 -0.01234,0.0037 -0.01758,0.0039 0.02063,-0.174433 0.05273,-0.34004 0.05273,-0.529297 0,-0.272126 -0.08697,-0.375 -0.234375,-0.375 -0.0056,0 -0.01379,0.0036 -0.01953,0.0039 0.01835,-0.155154 0.0448,-0.303829 0.04687,-0.470703 2.071496,-0.31284 4.564453,-1.521206 4.564453,-3.107422 0,-0.197362 -0.09412,-0.445725 -0.228516,-0.667969 0.01202,-0.07712 0.02734,-0.153398 0.02734,-0.232422 0,-0.197301 -0.09224,-0.445774 -0.226562,-0.667969 0.01202,-0.07712 0.02734,-0.153398 0.02734,-0.232422 0,-0.196683 -0.09298,-0.444328 -0.226562,-0.666015 0.01198,-0.07666 0.02529,-0.153884 0.02539,-0.232422 0.615527,-0.08434 1.126954,-0.437552 1.126954,-1.765625 0,-0.354112 -0.09327,-0.765324 -0.236328,-1.189453 C 46.372046,17.010875 46.307646,16.71083 46.20116,16.394539 46.17486,16.112314 46.1065,15.812566 46,15.496094 c -0.01536,-0.165328 -0.02959,-0.328688 -0.07227,-0.507813 8.68e-4,-0.0375 0.0059,-0.06632 0.0059,-0.105469 0,-0.468905 -0.12793,-1.029349 -0.38086,-1.601562 -0.386876,-1.810254 -2.20934,-4.2421875 -5.796875,-4.2421875 -3.601889,0 -6.746093,2.6883875 -6.746093,6.3847655 0,0.778784 0.141444,1.559021 0.421875,2.291016 0.03529,0.460993 0.121936,0.917051 0.255859,1.361328 0.045,0.301093 0.109657,0.598246 0.197266,0.890625 0.04553,0.307881 0.113063,0.611385 0.203125,0.910156 0.06593,0.440218 0.171246,0.876302 0.328125,1.294922 -0.47951,-0.358348 -0.965596,-0.734486 -1.462891,-1.113281 -1.445648,-1.098221 -2.986327,-2.147977 -4.587891,-2.5625 l 4.246094,-7.306641 c 0.192756,-0.359055 0.574219,-0.938274 0.574219,-1.3691405 0,-0.296553 -0.086,-0.5408459 -0.230469,-0.7304687 0.01048,-0.056749 0.03125,-0.1169476 0.03125,-0.1699219 0,-0.2965531 -0.086,-0.540846 -0.230469,-0.7304688 0.01046,-0.056689 0.03125,-0.1170006 0.03125,-0.1699219 0,-0.2971094 -0.08745,-0.5407051 -0.232421,-0.7304687 0.01037,-0.056409 0.03125,-0.1152954 0.03125,-0.1679687 0,-0.2367471 -0.05741,-0.4378732 -0.152344,-0.6074219 0.02912,-0.1016066 0.05273,-0.2011943 0.05273,-0.2929688 0,-0.3497251 -0.119069,-0.6270059 -0.314453,-0.8261719 0.0021,-0.023933 0.01367,-0.051079 0.01367,-0.074219 0,-0.7445669 -0.525397,-1.1757813 -1.224609,-1.1757813 z m 35.591796,4.8945313 c -2.471811,0 -4.435546,1.5121095 -4.435546,3.9121095 0,0.697345 0.150474,1.272073 0.390624,1.761719 0.0023,0.01139 0.0054,0.02189 0.0078,0.0332 -3e-6,0.002 0,0.0038 0,0.0059 0,0.533279 0.09078,0.992365 0.238281,1.400391 0.03389,0.306255 0.09054,0.593045 0.179688,0.851562 -0.135558,-0.07039 -0.270492,-0.115234 -0.408203,-0.115234 -0.699213,0 -0.916016,0.503331 -0.916016,1.126953 0,0.468122 0.162562,1.054196 0.398437,1.607422 0.0055,0.02343 0.0077,0.04476 0.01367,0.06836 -0.0023,0.04295 -0.01172,0.08069 -0.01172,0.125 0,0.05043 0.01985,0.112981 0.02344,0.166016 -0.05977,-0.124797 -0.147741,-0.211299 -0.251953,-0.279297 0.01871,-0.0729 0.03711,-0.146392 0.03711,-0.224609 0,-0.364154 -0.139303,-0.538162 -0.320312,-0.66211 v -1.580078 c 0,-0.767244 0.05078,-1.512053 0.05078,-2.279297 0,-0.348384 -0.06682,-0.636162 -0.201172,-0.857422 3.4e-5,-0.01444 0,-0.02851 0,-0.04297 0,-0.348384 -0.06487,-0.636163 -0.199218,-0.857422 3.4e-5,-0.01444 0,-0.02851 0,-0.04297 0,-0.34862 -0.06663,-0.636107 -0.201172,-0.857422 3.4e-5,-0.01444 0,-0.02851 0,-0.04297 0,-0.252514 -0.03641,-0.468722 -0.105469,-0.65625 9.92e-4,-0.08107 0.0059,-0.160658 0.0059,-0.242187 0,-0.435317 -0.09862,-0.779734 -0.3125,-1.011719 -0.034,-0.7661143 -0.388093,-1.2343749 -1.210937,-1.2343749 -0.910866,0 -5.738281,0.2427067 -5.738281,1.6562499 0,0.356839 0.151079,0.531716 0.349609,0.667969 -0.03038,0.07386 -0.04883,0.149009 -0.04883,0.230469 0,0.27035 0.08566,0.437387 0.21289,0.5625 -0.06636,0.105191 -0.113281,0.215823 -0.113281,0.33789 0,0.311527 0.116797,0.482831 0.277344,0.613282 -0.04702,0.09018 -0.07813,0.185065 -0.07813,0.287109 0,0.311527 0.11875,0.482831 0.279297,0.613281 -0.04721,0.09035 -0.07813,0.184845 -0.07813,0.28711 0,0.311854 0.116526,0.48279 0.277343,0.613281 -0.04695,0.09012 -0.07812,0.185145 -0.07812,0.287109 0,0.42895 0.215597,0.598757 0.474609,0.748047 0.0022,1.159592 -0.133953,2.552734 -1.498047,2.552734 -0.138471,0 -0.255254,-0.02512 -0.367188,-0.05664 v -3.986328 c 0,-0.353041 -0.04237,-0.592783 -0.199218,-0.742188 V 13.625 c 0,-0.354205 -0.04293,-0.594935 -0.201172,-0.744141 v -0.154297 c 0,-0.354205 -0.04097,-0.596888 -0.199219,-0.746093 v -0.154297 c 0,-0.270854 -0.02394,-0.475225 -0.101562,-0.626953 v -0.273438 c 0,-0.420409 -0.04737,-0.690123 -0.298829,-0.820312 v -0.08008 c 0,-0.6009453 -0.07138,-0.9140629 -0.74414,-0.9140629 -0.192756,0 -6.240234,0.071107 -6.240234,1.6093749 0,0.451273 0.13979,0.638817 0.332031,0.767578 -0.01096,0.04431 -0.0332,0.0858 -0.0332,0.132813 0,0.312854 0.07795,0.4824 0.18164,0.611328 -0.05073,0.09033 -0.08008,0.185979 -0.08008,0.289062 0,0.385524 0.0996,0.577747 0.248047,0.707032 -0.02292,0.0628 -0.04883,0.124872 -0.04883,0.193359 0,0.385524 0.0996,0.577747 0.248047,0.707031 -0.0225,0.06225 -0.04883,0.12357 -0.04883,0.191406 0,0.385576 0.101516,0.579701 0.25,0.708985 -0.0225,0.06225 -0.04883,0.12357 -0.04883,0.191406 0,0.684022 0.311214,0.779581 0.662109,0.955078 0.009,1.254355 0.07753,2.445339 0.46875,3.375 0.0473,0.480407 0.116824,0.943227 0.242187,1.359375 0.04609,0.313072 0.114889,0.608665 0.199219,0.890625 0.04668,0.319543 0.114729,0.621015 0.201172,0.908203 0.285657,1.943286 1.200621,3.359375 4.058594,3.359375 1.058267,0 1.823949,-0.359821 2.398437,-0.722656 0.578268,-0.359055 0.960043,-0.716797 1.22461,-0.716797 0.96,0 -0.264205,1.439453 1.583984,1.439453 1.319055,0 5.568359,-0.457087 5.568359,-2.089843 0,-0.315188 -0.103983,-0.488685 -0.248047,-0.611328 0.03065,-0.09194 0.04688,-0.188342 0.04688,-0.289063 0,-0.31607 -0.10333,-0.488654 -0.248047,-0.611328 0.03065,-0.09195 0.04883,-0.188339 0.04883,-0.289063 0,-0.315188 -0.103983,-0.488684 -0.248047,-0.611328 0.03064,-0.09194 0.04883,-0.186394 0.04883,-0.287109 0,-0.261975 -0.07576,-0.423467 -0.181641,-0.542969 0.03479,-0.08207 0.05445,-0.168478 0.06445,-0.257812 0.0348,0.155787 0.08739,0.311742 0.140626,0.472656 0.02643,0.28418 0.09563,0.588332 0.201171,0.90625 0.02671,0.281046 0.09537,0.5806 0.199219,0.894531 0.08362,0.89895 0.616212,2.094968 1.169922,2.714844 0.336378,0.385512 0.574688,0.458984 1.054688,0.458984 0.170078,0 0.313409,-0.0281 0.457031,-0.05078 0.166299,-0.02268 0.308437,-0.04883 0.478515,-0.04883 0.143622,0 0.674319,0.07272 1.271485,0.144531 0.600945,0.09827 1.29539,0.169922 1.77539,0.169922 2.498268,0 4.683594,-1.561981 4.683594,-3.818359 0,-0.470133 -0.085,-0.883995 -0.232422,-1.253907 -0.03175,-0.322003 -0.09205,-0.626461 -0.199219,-0.896484 -0.03163,-0.324495 -0.09304,-0.630567 -0.201171,-0.902344 -0.01579,-0.161031 -0.03853,-0.317266 -0.07422,-0.464843 6.61e-4,-0.02761 0.0059,-0.05421 0.0059,-0.08203 0,-0.343581 -0.05687,-0.648806 -0.138672,-0.9375 0.447806,-0.150684 0.791016,-0.545451 0.791016,-1.052734 0,-0.257159 -0.07853,-0.59663 -0.208984,-0.958984 -0.0095,-0.248682 -0.07679,-0.560809 -0.197266,-0.896485 -0.0089,-0.250378 -0.08106,-0.565223 -0.203125,-0.904297 -0.0068,-0.177982 -0.04932,-0.391541 -0.115234,-0.621094 0.01426,-0.07037 0.02344,-0.143358 0.02344,-0.21875 0,-0.3363 -0.134849,-0.814585 -0.347656,-1.298828 -0.21709,-1.082196 -1.187454,-2.7949215 -2.160156,-2.7949215 -0.219213,0 -0.433005,0.07272 -0.648438,0.1445313 -0.215433,0.098268 -0.408374,0.1699218 -0.646484,0.1699218 -0.170079,0 -0.551683,-0.098111 -0.986328,-0.1699218 -0.453544,-0.094488 -0.961407,-0.1445313 -1.441407,-0.1445313 z" transform="matrix(0.26458333,0,0,0.26458333,-0.13425,-0.03053666)" />
		<title id="title937">zeus-packed</title>
	</g>
	<g aria-label="Zeus" id="g-1" style="font-size:6.35px;line-height:1.25;font-family:'Century Gothic';letter-spacing:-0.264583px;word-spacing:0px;display:inline;stroke-width:0.264583" transform="translate(0.18716666,0.16282831)" inkscape:label="main">
		<path d="m 7.1292888,5.2787552 c -0.058,0.096 -0.296,0.47 -0.296,0.578 0,0.153 0.343,0.146 0.438,0.146 0.555,0 1.087,0.356 1.578,0.729 0.491,0.374 0.9420028,0.765 1.4070062,0.765 0.241,0 0.525,-0.272 0.647,-0.272 0.039,0 0.062,0.027 0.062,0.099 0,0.686 -0.525,1.002 -1.224004,1.002 -0.7000022,0 -1.1880022,-0.529 -1.4600022,-0.759 -0.102,-0.087 -0.935,-0.77 -1.592,-0.77 h -1.688 c -0.216,0 -0.451,0.057 -0.451,-0.241 0,-0.121 0.077,-0.223 0.134,-0.318 l 1.6,-2.718 c 0.032,-0.05 0.114,-0.171 0.114,-0.241 0,-0.165 -0.26,-0.184 -0.419,-0.184 -0.8,0 -0.603,0.857 -1.054,0.857 -0.26,0 -0.438,-0.298 -0.438,-0.54 0,-0.482 0.438,-1.143 0.591,-1.143 0.031,0 0.076,0.02 0.203,0.045 0.133,0.019 0.362,0.032 0.755,0.032 0.273,0 0.762,-0.007 1.232,-0.038 0.464,-0.026 0.902,-0.051 1.054,-0.051 0.185,0 0.324,0.114 0.324,0.311 0,0.114 -0.101,0.267 -0.152,0.362 z m 3.3040062,0.058 c -0.07,0 -0.172,-0.02 -0.172,0.088 0,0.318 0.413,0.585 0.711,0.585 0.477,0 0.712,-0.286 0.845,-0.286 0.133,0 0.248,0.197 0.248,0.317 0,0.489 -0.896,0.845 -1.467,0.845 -1.1430062,0 -1.7340062,-0.826 -1.7340062,-1.645 0,-0.978 0.8320006,-1.689 1.7850062,-1.689 1.079,0 1.555,0.832 1.555,1.308 0,0.419 -0.19,0.477 -0.393,0.477 z m 0.552,-0.801 c 0,-0.228 -0.14,-0.406 -0.375,-0.406 -0.209,0 -0.381,0.216 -0.381,0.419 0,0.229 0.216,0.178 0.381,0.178 0.172,0 0.375,0.038 0.375,-0.191 z m 2.955,0.889 c 0,0.254 0.019,0.648 0.362,0.648 0.457,0 0.394,-0.597 0.394,-0.902 0,-0.209 0.006,-0.482 -0.026,-0.685 -0.051,-0.318 -0.362,-0.21 -0.362,-0.477 0,-0.374 1.277,-0.438 1.518,-0.438 0.229,0 0.324,0.134 0.324,0.356 0,0.203 -0.013,0.4 -0.013,0.603 v 1.276 c 0,0.381 0.349,0.204 0.349,0.508 0,0.432 -1.124,0.553 -1.473,0.553 -0.489,0 -0.165,-0.381 -0.419,-0.381 -0.07,0 -0.171,0.095 -0.324,0.19 -0.152,0.096 -0.355,0.191 -0.635,0.191 -1.206,0 -1.105,-0.953 -1.105,-1.905 0,-0.972 -0.438,-0.546 -0.438,-0.965 0,-0.407 1.6,-0.426 1.651,-0.426 0.178,0 0.197,0.083 0.197,0.242 z m 4.18,-1.835 c 0.115,0.019 0.216,0.045 0.261,0.045 0.063,0 0.114,-0.019 0.171,-0.045 0.057,-0.019 0.114,-0.038 0.172,-0.038 0.292,0 0.584,0.584 0.584,0.845 0,0.171 -0.146,0.298 -0.311,0.298 -0.362,0 -0.565,-0.501 -0.845,-0.501 -0.114,0 -0.228,0.095 -0.228,0.215 0,0.407 1.397,0.483 1.397,1.467 0,0.597 -0.578,1.01 -1.239,1.01 -0.127,0 -0.311,-0.019 -0.47,-0.045 -0.158,-0.019 -0.298,-0.038 -0.336,-0.038 -0.045,0 -0.083,0.007 -0.127,0.013 -0.038,0.006 -0.076,0.013 -0.121,0.013 -0.127,0 -0.19,-0.019 -0.279,-0.121 -0.159,-0.178 -0.318,-0.54 -0.318,-0.781 0,-0.165 0.057,-0.298 0.242,-0.298 0.279,0 0.533,0.628 0.889,0.628 0.127,0 0.247,-0.063 0.247,-0.203 0,-0.375 -1.244,-0.419 -1.244,-1.467 0,-0.635 0.52,-1.035 1.174,-1.035 0.127,0 0.261,0.013 0.381,0.038 z" style="font-style:normal;font-variant:normal;font-weight:normal;font-stretch:normal;font-size:6.35px;font-family:'Cooper Std';display:inline;fill:#ebdbb2;fill-opacity:1;stroke:#d79921;stroke-width:0.502708;stroke-linecap:round;stroke-linejoin:round;stroke-miterlimit:4;stroke-dasharray:none;paint-order:stroke" id="path920" inkscape:label="6">
			<animate xmlns="http://www.w3.org/2000/svg" attributeName="stroke" repeatCount="indefinite" values="#d79921;#d65d0e;#cc241d;#d79921" calcMode="linear" dur="0.6s" begin="0.5s" />
		</path>
		<path d="m 7.0763721,5.0406301 c -0.058,0.096 -0.296,0.47 -0.296,0.578 0,0.153 0.343,0.146 0.438,0.146 0.555,0 1.087,0.356 1.578,0.729 0.491,0.374 0.9420009,0.765 1.4070049,0.765 0.241,0 0.525,-0.272 0.647,-0.272 0.039,0 0.062,0.027 0.062,0.099 0,0.686 -0.525,1.002 -1.2240046,1.002 -0.7000003,0 -1.1880003,-0.529 -1.4600003,-0.759 -0.102,-0.087 -0.935,-0.77 -1.592,-0.77 h -1.688 c -0.216,0 -0.451,0.057 -0.451,-0.241 0,-0.121 0.077,-0.223 0.134,-0.318 l 1.6,-2.718 c 0.032,-0.05 0.114,-0.171 0.114,-0.241 0,-0.165 -0.26,-0.184 -0.419,-0.184 -0.8,0 -0.603,0.857 -1.054,0.857 -0.26,0 -0.438,-0.298 -0.438,-0.54 0,-0.482 0.438,-1.143 0.591,-1.143 0.031,0 0.076,0.02 0.203,0.045 0.133,0.019 0.362,0.032 0.755,0.032 0.273,0 0.762,-0.007 1.232,-0.038 0.464,-0.026 0.902,-0.051 1.054,-0.051 0.185,0 0.324,0.114 0.324,0.311 0,0.114 -0.101,0.267 -0.152,0.362 z m 3.3040049,0.058 c -0.07,0 -0.172,-0.02 -0.172,0.088 0,0.318 0.413,0.585 0.711,0.585 0.477,0 0.712,-0.286 0.845,-0.286 0.133,0 0.248,0.197 0.248,0.317 0,0.489 -0.896,0.845 -1.467,0.845 -1.1430049,0 -1.7340049,-0.826 -1.7340049,-1.645 0,-0.978 0.832,-1.689 1.7850049,-1.689 1.079,0 1.555,0.832 1.555,1.308 0,0.419 -0.19,0.477 -0.393,0.477 z m 0.552,-0.801 c 0,-0.228 -0.14,-0.406 -0.375,-0.406 -0.209,0 -0.381,0.216 -0.381,0.419 0,0.229 0.216,0.178 0.381,0.178 0.172,0 0.375,0.038 0.375,-0.191 z m 2.955,0.889 c 0,0.254 0.019,0.648 0.362,0.648 0.457,0 0.394,-0.597 0.394,-0.902 0,-0.209 0.006,-0.482 -0.026,-0.685 -0.051,-0.318 -0.362,-0.21 -0.362,-0.477 0,-0.374 1.277,-0.438 1.518,-0.438 0.229,0 0.324,0.134 0.324,0.356 0,0.203 -0.013,0.4 -0.013,0.603 v 1.276 c 0,0.381 0.349,0.204 0.349,0.508 0,0.432 -1.124,0.553 -1.473,0.553 -0.489,0 -0.165,-0.381 -0.419,-0.381 -0.07,0 -0.171,0.095 -0.324,0.19 -0.152,0.096 -0.355,0.191 -0.635,0.191 -1.206,0 -1.105,-0.953 -1.105,-1.905 0,-0.972 -0.438,-0.546 -0.438,-0.965 0,-0.407 1.6,-0.426 1.651,-0.426 0.178,0 0.197,0.083 0.197,0.242 z m 4.18,-1.835 c 0.115,0.019 0.216,0.045 0.261,0.045 0.063,0 0.114,-0.019 0.171,-0.045 0.057,-0.019 0.114,-0.038 0.172,-0.038 0.292,0 0.584,0.584 0.584,0.845 0,0.171 -0.146,0.298 -0.311,0.298 -0.362,0 -0.565,-0.501 -0.845,-0.501 -0.114,0 -0.228,0.095 -0.228,0.215 0,0.407 1.397,0.483 1.397,1.467 0,0.597 -0.578,1.01 -1.239,1.01 -0.127,0 -0.311,-0.019 -0.47,-0.045 -0.158,-0.019 -0.298,-0.038 -0.336,-0.038 -0.045,0 -0.083,0.007 -0.127,0.013 -0.038,0.006 -0.076,0.013 -0.121,0.013 -0.127,0 -0.19,-0.019 -0.279,-0.121 -0.159,-0.178 -0.318,-0.54 -0.318,-0.781 0,-0.165 0.057,-0.298 0.242,-0.298 0.279,0 0.533,0.628 0.889,0.628 0.127,0 0.247,-0.063 0.247,-0.203 0,-0.375 -1.244,-0.419 -1.244,-1.467 0,-0.635 0.52,-1.035 1.174,-1.035 0.127,0 0.261,0.013 0.381,0.038 z" style="font-style:normal;font-variant:normal;font-weight:normal;font-stretch:normal;font-size:6.35px;font-family:'Cooper Std';display:inline;fill:#ebdbb2;fill-opacity:1;stroke:#d65d0e;stroke-width:0.502708;stroke-linecap:round;stroke-linejoin:round;stroke-miterlimit:4;stroke-dasharray:none;stroke-opacity:1;paint-order:stroke" id="path917" inkscape:label="5">
			<animate xmlns="http://www.w3.org/2000/svg" attributeName="stroke" repeatCount="indefinite" values="#d79921;#d65d0e;#cc241d;#d79921" calcMode="linear" dur="0.6s" begin="0.4s" />
		</path>
		<path d="m 7.0234553,4.8025051 c -0.058,0.096 -0.296,0.47 -0.296,0.578 0,0.153 0.343,0.146 0.438,0.146 0.555,0 1.087,0.356 1.578,0.729 0.491,0.374 0.942,0.765 1.4070037,0.765 0.241,0 0.525,-0.272 0.647,-0.272 0.039,0 0.062,0.027 0.062,0.099 0,0.686 -0.525,1.002 -1.2240037,1.002 -0.7,0 -1.188,-0.529 -1.46,-0.759 -0.102,-0.087 -0.935,-0.77 -1.592,-0.77 h -1.688 c -0.216,0 -0.451,0.057 -0.451,-0.241 0,-0.121 0.077,-0.223 0.134,-0.318 l 1.6,-2.718 c 0.032,-0.05 0.114,-0.171 0.114,-0.241 0,-0.165 -0.26,-0.184 -0.419,-0.184 -0.8,0 -0.603,0.857 -1.054,0.857 -0.26,0 -0.438,-0.298 -0.438,-0.54 0,-0.482 0.438,-1.143 0.591,-1.143 0.031,0 0.076,0.02 0.203,0.045 0.133,0.019 0.362,0.032 0.755,0.032 0.273,0 0.762,-0.007 1.232,-0.038 0.464,-0.026 0.902,-0.051 1.054,-0.051 0.185,0 0.324,0.114 0.324,0.311 0,0.114 -0.101,0.267 -0.152,0.362 z m 3.3040037,0.058 c -0.07,0 -0.172,-0.02 -0.172,0.088 0,0.318 0.413,0.585 0.711,0.585 0.477,0 0.712,-0.286 0.845,-0.286 0.133,0 0.248,0.197 0.248,0.317 0,0.489 -0.896,0.845 -1.467,0.845 -1.1430037,0 -1.7340037,-0.826 -1.7340037,-1.645 0,-0.978 0.832,-1.689 1.7850037,-1.689 1.079,0 1.555,0.832 1.555,1.308 0,0.419 -0.19,0.477 -0.393,0.477 z m 0.552,-0.801 c 0,-0.228 -0.14,-0.406 -0.375,-0.406 -0.209,0 -0.381,0.216 -0.381,0.419 0,0.229 0.216,0.178 0.381,0.178 0.172,0 0.375,0.038 0.375,-0.191 z m 2.955,0.889 c 0,0.254 0.019,0.648 0.362,0.648 0.457,0 0.394,-0.597 0.394,-0.902 0,-0.209 0.006,-0.482 -0.026,-0.685 -0.051,-0.318 -0.362,-0.21 -0.362,-0.477 0,-0.374 1.277,-0.438 1.518,-0.438 0.229,0 0.324,0.134 0.324,0.356 0,0.203 -0.013,0.4 -0.013,0.603 v 1.276 c 0,0.381 0.349,0.204 0.349,0.508 0,0.432 -1.124,0.553 -1.473,0.553 -0.489,0 -0.165,-0.381 -0.419,-0.381 -0.07,0 -0.171,0.095 -0.324,0.19 -0.152,0.096 -0.355,0.191 -0.635,0.191 -1.206,0 -1.105,-0.953 -1.105,-1.905 0,-0.972 -0.438,-0.546 -0.438,-0.965 0,-0.407 1.6,-0.426 1.651,-0.426 0.178,0 0.197,0.083 0.197,0.242 z m 4.18,-1.835 c 0.115,0.019 0.216,0.045 0.261,0.045 0.063,0 0.114,-0.019 0.171,-0.045 0.057,-0.019 0.114,-0.038 0.172,-0.038 0.292,0 0.584,0.584 0.584,0.845 0,0.171 -0.146,0.298 -0.311,0.298 -0.362,0 -0.565,-0.501 -0.845,-0.501 -0.114,0 -0.228,0.095 -0.228,0.215 0,0.407 1.397,0.483 1.397,1.467 0,0.597 -0.578,1.01 -1.239,1.01 -0.127,0 -0.311,-0.019 -0.47,-0.045 -0.158,-0.019 -0.298,-0.038 -0.336,-0.038 -0.045,0 -0.083,0.007 -0.127,0.013 -0.038,0.006 -0.076,0.013 -0.121,0.013 -0.127,0 -0.19,-0.019 -0.279,-0.121 -0.159,-0.178 -0.318,-0.54 -0.318,-0.781 0,-0.165 0.057,-0.298 0.242,-0.298 0.279,0 0.533,0.628 0.889,0.628 0.127,0 0.247,-0.063 0.247,-0.203 0,-0.375 -1.244,-0.419 -1.244,-1.467 0,-0.635 0.52,-1.035 1.174,-1.035 0.127,0 0.261,0.013 0.381,0.038 z" style="font-style:normal;font-variant:normal;font-weight:normal;font-stretch:normal;font-size:6.35px;font-family:'Cooper Std';display:inline;fill:#ebdbb2;fill-opacity:1;stroke:#d65d0e;stroke-width:0.502708;stroke-linecap:round;stroke-linejoin:round;stroke-miterlimit:4;stroke-dasharray:none;stroke-opacity:1;paint-order:stroke" id="path911" inkscape:label="4">
			<animate xmlns="http://www.w3.org/2000/svg" attributeName="stroke" repeatCount="indefinite" values="#d79921;#d65d0e;#cc241d;#d79921" calcMode="linear" dur="0.6s" begin="0.3s" />
		</path>
		<path d="m 6.9705385,4.5643801 c -0.058,0.096 -0.296,0.47 -0.296,0.578 0,0.153 0.343,0.146 0.438,0.146 0.555,0 1.087,0.356 1.578,0.729 0.491,0.374 0.942,0.765 1.4070025,0.765 0.241,0 0.525,-0.272 0.647,-0.272 0.039,0 0.062,0.027 0.062,0.099 0,0.686 -0.525,1.002 -1.2240025,1.002 -0.7,0 -1.188,-0.529 -1.46,-0.759 -0.102,-0.087 -0.935,-0.77 -1.592,-0.77 h -1.688 c -0.216,0 -0.451,0.057 -0.451,-0.241 0,-0.121 0.077,-0.223 0.134,-0.318 l 1.6,-2.718 c 0.032,-0.05 0.114,-0.171 0.114,-0.241 0,-0.165 -0.26,-0.184 -0.419,-0.184 -0.8,0 -0.603,0.857 -1.054,0.857 -0.26,0 -0.438,-0.298 -0.438,-0.54 0,-0.482 0.438,-1.143 0.591,-1.143 0.031,0 0.076,0.02 0.203,0.045 0.133,0.019 0.362,0.032 0.755,0.032 0.273,0 0.762,-0.007 1.232,-0.038 0.464,-0.026 0.902,-0.051 1.054,-0.051 0.185,0 0.324,0.114 0.324,0.311 0,0.114 -0.101,0.267 -0.152,0.362 z m 3.3040025,0.058 c -0.07,0 -0.172,-0.02 -0.172,0.088 0,0.318 0.413,0.585 0.711,0.585 0.477,0 0.712,-0.286 0.845,-0.286 0.133,0 0.248,0.197 0.248,0.317 0,0.489 -0.896,0.845 -1.467,0.845 -1.1430025,0 -1.7340025,-0.826 -1.7340025,-1.645 0,-0.978 0.832,-1.689 1.7850025,-1.689 1.079,0 1.555,0.832 1.555,1.308 0,0.419 -0.19,0.477 -0.393,0.477 z m 0.552,-0.801 c 0,-0.228 -0.14,-0.406 -0.375,-0.406 -0.209,0 -0.381,0.216 -0.381,0.419 0,0.229 0.216,0.178 0.381,0.178 0.172,0 0.375,0.038 0.375,-0.191 z m 2.955,0.889 c 0,0.254 0.019,0.648 0.362,0.648 0.457,0 0.394,-0.597 0.394,-0.902 0,-0.209 0.006,-0.482 -0.026,-0.685 -0.051,-0.318 -0.362,-0.21 -0.362,-0.477 0,-0.374 1.277,-0.438 1.518,-0.438 0.229,0 0.324,0.134 0.324,0.356 0,0.203 -0.013,0.4 -0.013,0.603 v 1.276 c 0,0.381 0.349,0.204 0.349,0.508 0,0.432 -1.124,0.553 -1.473,0.553 -0.489,0 -0.165,-0.381 -0.419,-0.381 -0.07,0 -0.171,0.095 -0.324,0.19 -0.152,0.096 -0.355,0.191 -0.635,0.191 -1.206,0 -1.105,-0.953 -1.105,-1.905 0,-0.972 -0.438,-0.546 -0.438,-0.965 0,-0.407 1.6,-0.426 1.651,-0.426 0.178,0 0.197,0.083 0.197,0.242 z m 4.18,-1.835 c 0.115,0.019 0.216,0.045 0.261,0.045 0.063,0 0.114,-0.019 0.171,-0.045 0.057,-0.019 0.114,-0.038 0.172,-0.038 0.292,0 0.584,0.584 0.584,0.845 0,0.171 -0.146,0.298 -0.311,0.298 -0.362,0 -0.565,-0.501 -0.845,-0.501 -0.114,0 -0.228,0.095 -0.228,0.215 0,0.407 1.397,0.483 1.397,1.467 0,0.597 -0.578,1.01 -1.239,1.01 -0.127,0 -0.311,-0.019 -0.47,-0.045 -0.158,-0.019 -0.298,-0.038 -0.336,-0.038 -0.045,0 -0.083,0.007 -0.127,0.013 -0.038,0.006 -0.076,0.013 -0.121,0.013 -0.127,0 -0.19,-0.019 -0.279,-0.121 -0.159,-0.178 -0.318,-0.54 -0.318,-0.781 0,-0.165 0.057,-0.298 0.242,-0.298 0.279,0 0.533,0.628 0.889,0.628 0.127,0 0.247,-0.063 0.247,-0.203 0,-0.375 -1.244,-0.419 -1.244,-1.467 0,-0.635 0.52,-1.035 1.174,-1.035 0.127,0 0.261,0.013 0.381,0.038 z" style="font-style:normal;font-variant:normal;font-weight:normal;font-stretch:normal;font-size:6.35px;font-family:'Cooper Std';display:inline;fill:#ebdbb2;fill-opacity:1;stroke:#cc241d;stroke-width:0.502708;stroke-linecap:round;stroke-linejoin:round;stroke-miterlimit:4;stroke-dasharray:none;stroke-opacity:1;paint-order:stroke" id="path908" inkscape:label="3">
			<animate xmlns="http://www.w3.org/2000/svg" attributeName="stroke" repeatCount="indefinite" values="#d79921;#d65d0e;#cc241d;#d79921" calcMode="linear" dur="0.6s" begin="0.2s" />
		</path>
		<title id="title43">zeus-packed</title>
		<path d="m 6.9440801,4.326255 c -0.058,0.096 -0.296,0.47 -0.296,0.578 0,0.153 0.343,0.146 0.438,0.146 0.555,0 1.087,0.356 1.578,0.729 0.491,0.374 0.942,0.765 1.4070009,0.765 0.241,0 0.525,-0.272 0.647,-0.272 0.039,0 0.062,0.027 0.062,0.099 0,0.686 -0.525,1.002 -1.2240009,1.002 -0.7,0 -1.188,-0.529 -1.46,-0.759 -0.102,-0.087 -0.935,-0.77 -1.592,-0.77 h -1.688 c -0.216,0 -0.451,0.057 -0.451,-0.241 0,-0.121 0.077,-0.223 0.134,-0.318 l 1.6,-2.718 c 0.032,-0.05 0.114,-0.171 0.114,-0.241 0,-0.165 -0.26,-0.184 -0.419,-0.184 -0.8,0 -0.603,0.857 -1.054,0.857 -0.26,0 -0.438,-0.298 -0.438,-0.54 0,-0.482 0.438,-1.143 0.591,-1.143 0.031,0 0.076,0.02 0.203,0.045 0.133,0.019 0.362,0.032 0.755,0.032 0.273,0 0.762,-0.007 1.232,-0.038 0.464,-0.026 0.902,-0.051 1.054,-0.051 0.185,0 0.324,0.114 0.324,0.311 0,0.114 -0.101,0.267 -0.152,0.362 z m 3.3040009,0.058 c -0.07,0 -0.172,-0.02 -0.172,0.088 0,0.318 0.413,0.585 0.711,0.585 0.477,0 0.712,-0.286 0.845,-0.286 0.133,0 0.248,0.197 0.248,0.317 0,0.489 -0.896,0.845 -1.467,0.845 -1.1430009,0 -1.7340009,-0.826 -1.7340009,-1.645 0,-0.978 0.832,-1.689 1.7850009,-1.689 1.079,0 1.555,0.832 1.555,1.308 0,0.419 -0.19,0.477 -0.393,0.477 z m 0.552,-0.801 c 0,-0.228 -0.14,-0.406 -0.375,-0.406 -0.209,0 -0.381,0.216 -0.381,0.419 0,0.229 0.216,0.178 0.381,0.178 0.172,0 0.375,0.038 0.375,-0.191 z m 2.955,0.889 c 0,0.254 0.019,0.648 0.362,0.648 0.457,0 0.394,-0.597 0.394,-0.902 0,-0.209 0.006,-0.482 -0.026,-0.685 -0.051,-0.318 -0.362,-0.21 -0.362,-0.477 0,-0.374 1.277,-0.438 1.518,-0.438 0.229,0 0.324,0.134 0.324,0.356 0,0.203 -0.013,0.4 -0.013,0.603 v 1.276 c 0,0.381 0.349,0.204 0.349,0.508 0,0.432 -1.124,0.553 -1.473,0.553 -0.489,0 -0.165,-0.381 -0.419,-0.381 -0.07,0 -0.171,0.095 -0.324,0.19 -0.152,0.096 -0.355,0.191 -0.635,0.191 -1.206,0 -1.105,-0.953 -1.105,-1.905 0,-0.972 -0.438,-0.546 -0.438,-0.965 0,-0.407 1.6,-0.426 1.651,-0.426 0.178,0 0.197,0.083 0.197,0.242 z m 4.18,-1.835 c 0.115,0.019 0.216,0.045 0.261,0.045 0.063,0 0.114,-0.019 0.171,-0.045 0.057,-0.019 0.114,-0.038 0.172,-0.038 0.292,0 0.584,0.584 0.584,0.845 0,0.171 -0.146,0.298 -0.311,0.298 -0.362,0 -0.565,-0.501 -0.845,-0.501 -0.114,0 -0.228,0.095 -0.228,0.215 0,0.407 1.397,0.483 1.397,1.467 0,0.597 -0.578,1.01 -1.239,1.01 -0.127,0 -0.311,-0.019 -0.47,-0.045 -0.158,-0.019 -0.298,-0.038 -0.336,-0.038 -0.045,0 -0.083,0.007 -0.127,0.013 -0.038,0.006 -0.076,0.013 -0.121,0.013 -0.127,0 -0.19,-0.019 -0.279,-0.121 -0.159,-0.178 -0.318,-0.54 -0.318,-0.781 0,-0.165 0.057,-0.298 0.242,-0.298 0.279,0 0.533,0.628 0.889,0.628 0.127,0 0.247,-0.063 0.247,-0.203 0,-0.375 -1.244,-0.419 -1.244,-1.467 0,-0.635 0.52,-1.035 1.174,-1.035 0.127,0 0.261,0.013 0.381,0.038 z" style="font-style:normal;font-variant:normal;font-weight:normal;font-stretch:normal;font-size:6.35px;font-family:'Cooper Std';display:inline;fill:#ebdbb2;fill-opacity:1;stroke:#cc241d;stroke-width:0.502708;stroke-linecap:round;stroke-linejoin:round;stroke-miterlimit:4;stroke-dasharray:none;stroke-opacity:1;paint-order:stroke" id="path-1" inkscape:label="2">
			<animate xmlns="http://www.w3.org/2000/svg" attributeName="stroke" repeatCount="indefinite" values="#d79921;#d65d0e;#cc241d;#d79921" calcMode="linear" dur="0.6s" begin="0.1s" />
		</path>
		<path d="m 6.864705,4.08813 c -0.058,0.096 -0.296,0.47 -0.296,0.578 0,0.153 0.343,0.146 0.438,0.146 0.555,0 1.087,0.356 1.578,0.729 0.491,0.374 0.942,0.765 1.407,0.765 0.241,0 0.525,-0.272 0.647,-0.272 0.039,0 0.062,0.027 0.062,0.099 0,0.686 -0.525,1.002 -1.224,1.002 -0.7,0 -1.188,-0.529 -1.46,-0.759 -0.102,-0.087 -0.935,-0.77 -1.592,-0.77 h -1.688 c -0.216,0 -0.451,0.057 -0.451,-0.241 0,-0.121 0.077,-0.223 0.134,-0.318 l 1.6,-2.718 c 0.032,-0.05 0.114,-0.171 0.114,-0.241 0,-0.165 -0.26,-0.184 -0.419,-0.184 -0.8,0 -0.603,0.857 -1.054,0.857 -0.26,0 -0.438,-0.298 -0.438,-0.54 0,-0.482 0.438,-1.143 0.591,-1.143 0.031,0 0.076,0.02 0.203,0.045 0.133,0.019 0.362,0.032 0.755,0.032 0.273,0 0.762,-0.007 1.232,-0.038 0.464,-0.026 0.902,-0.051 1.054,-0.051 0.185,0 0.324,0.114 0.324,0.311 0,0.114 -0.101,0.267 -0.152,0.362 z m 3.304,0.058 c -0.07,0 -0.172,-0.02 -0.172,0.088 0,0.318 0.413,0.585 0.711,0.585 0.477,0 0.712,-0.286 0.845,-0.286 0.133,0 0.248,0.197 0.248,0.317 0,0.489 -0.896,0.845 -1.467,0.845 -1.143,0 -1.734,-0.826 -1.734,-1.645 0,-0.978 0.832,-1.689 1.785,-1.689 1.079,0 1.555,0.832 1.555,1.308 0,0.419 -0.19,0.477 -0.393,0.477 z m 0.552,-0.801 c 0,-0.228 -0.14,-0.406 -0.375,-0.406 -0.209,0 -0.381,0.216 -0.381,0.419 0,0.229 0.216,0.178 0.381,0.178 0.172,0 0.375,0.038 0.375,-0.191 z m 2.955,0.889 c 0,0.254 0.019,0.648 0.362,0.648 0.457,0 0.394,-0.597 0.394,-0.902 0,-0.209 0.006,-0.482 -0.026,-0.685 -0.051,-0.318 -0.362,-0.21 -0.362,-0.477 0,-0.374 1.277,-0.438 1.518,-0.438 0.229,0 0.324,0.134 0.324,0.356 0,0.203 -0.013,0.4 -0.013,0.603 v 1.276 c 0,0.381 0.349,0.204 0.349,0.508 0,0.432 -1.124,0.553 -1.473,0.553 -0.489,0 -0.165,-0.381 -0.419,-0.381 -0.07,0 -0.171,0.095 -0.324,0.19 -0.152,0.096 -0.355,0.191 -0.635,0.191 -1.206,0 -1.105,-0.953 -1.105,-1.905 0,-0.972 -0.438,-0.546 -0.438,-0.965 0,-0.407 1.6,-0.426 1.651,-0.426 0.178,0 0.197,0.083 0.197,0.242 z m 4.18,-1.835 c 0.115,0.019 0.216,0.045 0.261,0.045 0.063,0 0.114,-0.019 0.171,-0.045 0.057,-0.019 0.114,-0.038 0.172,-0.038 0.292,0 0.584,0.584 0.584,0.845 0,0.171 -0.146,0.298 -0.311,0.298 -0.362,0 -0.565,-0.501 -0.845,-0.501 -0.114,0 -0.228,0.095 -0.228,0.215 0,0.407 1.397,0.483 1.397,1.467 0,0.597 -0.578,1.01 -1.239,1.01 -0.127,0 -0.311,-0.019 -0.47,-0.045 -0.158,-0.019 -0.298,-0.038 -0.336,-0.038 -0.045,0 -0.083,0.007 -0.127,0.013 -0.038,0.006 -0.076,0.013 -0.121,0.013 -0.127,0 -0.19,-0.019 -0.279,-0.121 -0.159,-0.178 -0.318,-0.54 -0.318,-0.781 0,-0.165 0.057,-0.298 0.242,-0.298 0.279,0 0.533,0.628 0.889,0.628 0.127,0 0.247,-0.063 0.247,-0.203 0,-0.375 -1.244,-0.419 -1.244,-1.467 0,-0.635 0.52,-1.035 1.174,-1.035 0.127,0 0.261,0.013 0.381,0.038 z" style="font-style:normal;font-variant:normal;font-weight:normal;font-stretch:normal;font-size:6.35px;font-family:'Cooper Std';display:inline;fill:#ebdbb2;fill-opacity:1;stroke:#d79921;stroke-width:0.502708;stroke-linecap:round;stroke-linejoin:round;stroke-miterlimit:4;stroke-dasharray:none;paint-order:stroke" id="path906" inkscape:label="1">
			<animate xmlns="http://www.w3.org/2000/svg" attributeName="stroke" repeatCount="indefinite" values="#d79921;#d65d0e;#cc241d;#d79921" calcMode="linear" dur="0.6s"/>
		</path>
	</g>
</svg>