<?xml version="1.0" encoding="UTF-8" standalone="no"?>
<svg width="88" height="31" viewBox="0 0 23.283331 8.2020825" version="1.1" id="svg8" sodipodi:docname="zeus-retro-2.svg" inkscape:version="1.2.1 (9c6d41e410, 2022-07-14)" xmlns:inkscape="http://www.inkscape.org/namespaces/inkscape" xmlns:sodipodi="http://sodipodi.sourceforge.net/DTD/sodipodi-0.dtd" xmlns="http://www.w3.org/2000/svg" xmlns:svg="http://www.w3.org/2000/svg" xmlns:rdf="http://www.w3.org/1999/02/22-rdf-syntax-ns#" xmlns:cc="http://creativecommons.org/ns#" xmlns:dc="http://purl.org/dc/elements/1.1/">
	<metadata id="metadata854">
		<rdf:RDF>
			<cc:Work rdf:about="">
				<dc:format>image/svg+xml</dc:format>
				<dc:type rdf:resource="http://purl.org/dc/dcmitype/StillImage"/>
			</cc:Work>
		</rdf:RDF>
	</metadata>
	<defs id="defs852"/>
	<sodipodi:namedview pagecolor="#303030" bordercolor="#666666" borderopacity="1" objecttolerance="10" gridtolerance="10" guidetolerance="10" inkscape:pageopacity="0" inkscape:pageshadow="2" inkscape:window-width="1858" inkscape:window-height="1061" id="namedview850" showgrid="false" inkscape:zoom="11.313709" inkscape:cx="58.689863" inkscape:cy="-0.79549513" inkscape:window-x="57" inkscape:window-y="-5" inkscape:window-maximized="1" inkscape:current-layer="svg8" inkscape:showpageshadow="0" inkscape:pagecheckerboard="1" inkscape:deskcolor="#3e3e3e"/>
	<rect style="display:inline;fill:#665c54;fill-opacity:1;fill-rule:evenodd;stroke-width:0.661458;stroke-linecap:round;stroke-miterlimit:9;stop-color:#000000" id="rect830" width="23.283333" height="8.2020836" x="0" y="0" inkscape:label="bg">
		<title id="title19">bg</title>
	</rect>
	<g id="g849" style="display:inline" inkscape:label="borders">
		<title id="title25">borders</title>
		<path id="path846" style="opacity:1;vector-effect:none;fill:#282828;fill-opacity:1;stroke:none;stroke-width:0.264583px;stroke-linecap:butt;stroke-linejoin:miter;stroke-miterlimit:4;stroke-dasharray:none;stroke-dashoffset:0;stroke-opacity:1" d="M 23.283333,0 22.754166,0.52916666 V 7.6729166 H 0.529167 L 0,8.2020832 h 22.754166 0.529167 V 7.6729166 Z" inkscape:label="dark"/>
		<path id="path851" style="opacity:1;vector-effect:none;fill:#ebdbb2;fill-opacity:1;stroke:none;stroke-width:0.264583px;stroke-linecap:butt;stroke-linejoin:miter;stroke-miterlimit:4;stroke-dasharray:none;stroke-dashoffset:0;stroke-opacity:1" d="M 0,0 V 8.2020832 L 0.529167,7.6729166 V 0.52916666 H 22.754166 L 23.283333,0 Z" inkscape:label="light" sodipodi:nodetypes="ccccccc"/>
	</g>
	<g aria-label="Zeus" id="g943" style="font-size:6.35px;line-height:1.25;font-family:'Century Gothic';letter-spacing:-0.264583px;word-spacing:0px;display:inline;stroke-width:0.264583" transform="translate(0.18716666,0.16282831)" inkscape:label="main-border">
		<title id="title937">zeus-packed</title>
		<path id="path6241" style="font-size:6.35px;line-height:1.25;font-family:'Cooper Std';letter-spacing:-0.264583px;word-spacing:0px;display:inline;stroke-width:1.05833323;font-style:normal;font-variant:normal;font-weight:normal;font-stretch:normal;fill:none;fill-opacity:1;stroke:#504945;stroke-linecap:round;stroke-linejoin:round;stroke-miterlimit:4;stroke-dasharray:none;paint-order:stroke;stroke-opacity:1" inkscape:label="hack" d="M 8.0578073 1.0660371 C 7.9058074 1.0660371 7.4676077 1.0911968 7.0036082 1.1171968 C 6.5336086 1.1481968 6.0446419 1.1549206 5.7716421 1.1549206 C 5.3786425 1.1549206 5.1496494 1.1418812 5.0166495 1.1228812 C 4.8896497 1.0978812 4.8445612 1.0779227 4.8135612 1.0779227 C 4.6605613 1.0779227 4.2228996 1.7390058 4.2228996 2.2210053 C 4.2228996 2.3457804 4.2706091 2.4849813 4.3520907 2.5910085 C 4.3738345 2.6672514 4.4101677 2.741302 4.4585441 2.8039154 C 4.480367 2.879838 4.5162543 2.9539785 4.5644808 3.0163055 C 4.5862596 3.0917341 4.622053 3.1651421 4.6699007 3.2271453 C 4.6916537 3.302863 4.7278148 3.3767888 4.7758374 3.4390187 C 4.8279046 3.6202537 4.9625593 3.7910436 5.1437736 3.8162566 L 4.4197868 5.0471891 C 4.3627869 5.142189 4.2859449 5.2439992 4.2859449 5.3649991 C 4.2859449 5.4902446 4.3277171 5.5521397 4.3918815 5.5825569 C 4.3932187 5.7040672 4.4344126 5.7651169 4.4978182 5.794947 C 4.4993751 5.9156723 4.5406195 5.9765298 4.6037549 6.0063036 C 4.6052104 6.1274495 4.6463813 6.1883917 4.7096916 6.2181769 C 4.7111422 6.3389174 4.7521595 6.3996404 4.8151115 6.4295335 C 4.8185666 6.7200993 5.0513364 6.6646612 5.2657299 6.6646612 L 6.9539988 6.6646612 C 7.6109981 6.6646612 8.4436329 7.3476401 8.5456328 7.43464 C 8.8176325 7.6646398 9.3060076 8.1932499 10.006009 8.1932499 C 10.70501 8.1932499 11.229706 7.8772433 11.229706 7.191244 C 11.229706 7.1192441 11.206695 7.0925421 11.167695 7.0925421 C 11.153296 7.0925421 11.136659 7.0967113 11.118085 7.1033941 C 11.122068 7.0635533 11.12377 7.0225816 11.12377 6.9798874 C 11.12377 6.9078875 11.100758 6.8806687 11.061758 6.8806687 C 11.047346 6.8806687 11.030745 6.8848256 11.012149 6.8915208 C 11.016098 6.8518363 11.01835 6.8105278 11.01835 6.7680141 C 11.01835 6.7595756 11.017937 6.7519909 11.017316 6.7447597 C 11.582025 6.6902405 12.329898 6.3555273 12.329898 5.9086351 C 12.329898 5.8343916 12.285928 5.7304401 12.22086 5.6621386 C 12.210264 5.5928479 12.170652 5.50952 12.11544 5.4512987 C 12.105085 5.3817921 12.06501 5.2979399 12.009504 5.2394254 C 12.007798 5.2281214 12.004448 5.216189 12.001235 5.2042854 L 12.075649 5.2042854 C 12.188972 5.2042854 12.298361 5.186692 12.372789 5.097832 C 12.399584 5.1704055 12.432794 5.237517 12.474075 5.2988533 C 12.501481 5.3753565 12.536805 5.4459715 12.580011 5.5102099 C 12.607649 5.5874581 12.642718 5.6588896 12.686465 5.7236335 C 12.713987 5.8002084 12.749006 5.8707347 12.792402 5.9349901 C 12.820015 6.0118287 12.854739 6.0829488 12.898338 6.1473802 C 13.025211 6.4999672 13.301559 6.7344244 13.899827 6.7344244 C 14.179827 6.7344244 14.382931 6.6397383 14.534931 6.5437384 C 14.68793 6.4487385 14.788942 6.3535691 14.858942 6.3535691 C 14.865774 6.3535691 14.872039 6.3540662 14.878062 6.3546027 C 14.887715 6.4068399 14.910237 6.4567163 14.975214 6.4884446 C 14.983675 6.598091 14.985071 6.7344244 15.278038 6.7344244 C 15.627037 6.7344244 16.750816 6.6134862 16.750816 6.1814866 C 16.750816 6.1549802 16.747908 6.1321218 16.743064 6.1122402 C 16.759309 6.1441267 16.776131 6.1753853 16.793707 6.204741 C 16.853516 6.349124 16.933592 6.4854138 17.013849 6.575261 C 17.102849 6.6772609 17.165902 6.6967006 17.292902 6.6967006 C 17.337902 6.6967006 17.375824 6.6892647 17.413824 6.6832647 C 17.457824 6.6772648 17.495948 6.6703456 17.540948 6.6703456 C 17.578948 6.6703456 17.718845 6.6895862 17.876845 6.7085862 C 18.035845 6.7345862 18.219584 6.7535447 18.346584 6.7535447 C 19.007583 6.7535447 19.585785 6.3402699 19.585785 5.7432705 C 19.585785 5.5414995 19.526728 5.3786232 19.433339 5.242526 C 19.407326 5.165381 19.371706 5.0950875 19.327919 5.0311694 C 19.301946 4.9540396 19.265722 4.8842409 19.221983 4.8203296 C 19.195987 4.7428333 19.15996 4.6726235 19.116046 4.6084562 C 19.105751 4.5778343 19.094237 4.548007 19.080906 4.5195727 C 19.137006 4.5460647 19.196791 4.5624642 19.261773 4.5624642 C 19.426773 4.5624642 19.572866 4.435291 19.572866 4.2642912 C 19.572866 4.1350329 19.501315 3.9266073 19.393548 3.7490772 C 19.364953 3.6783748 19.329266 3.6060868 19.288128 3.5382374 C 19.259465 3.4672083 19.223528 3.3945425 19.182192 3.326364 C 19.153582 3.2554678 19.117494 3.1835921 19.076255 3.1155242 C 19.047559 3.0443389 19.012267 2.97147 18.970835 2.9031341 C 18.865981 2.6433015 18.662829 2.3610484 18.459755 2.3610484 C 18.401755 2.3610484 18.344673 2.380289 18.287673 2.3992889 C 18.230673 2.4252889 18.179624 2.4442474 18.116624 2.4442474 C 18.071624 2.4442474 17.970658 2.4182889 17.855658 2.3992889 C 17.735658 2.374289 17.601802 2.3610484 17.474803 2.3610484 C 16.820803 2.3610484 16.300714 2.7611279 16.300714 3.3961272 C 16.300714 3.4324698 16.302477 3.4675637 16.305365 3.5015471 C 16.304877 3.5011589 16.304306 3.5008985 16.303815 3.5005136 C 16.291887 3.4075217 16.25786 3.335534 16.197878 3.2886403 C 16.185929 3.1961927 16.151974 3.1241019 16.092458 3.0772837 C 16.080556 2.9844938 16.04626 2.9128291 15.986521 2.8659271 C 15.974653 2.7726855 15.940678 2.7005178 15.880585 2.653537 C 15.858339 2.4814262 15.760688 2.3801687 15.561741 2.3801687 C 15.320741 2.3801687 14.043488 2.4443851 14.043488 2.8183848 C 14.043488 2.9224611 14.091318 2.968927 14.152008 3.006487 C 14.15087 3.0141805 14.149425 3.0217684 14.149425 3.0297414 C 14.149425 3.1338429 14.197234 3.1807959 14.257945 3.2183603 C 14.256807 3.2260539 14.255361 3.2336417 14.255361 3.2416147 C 14.255361 3.3457311 14.303158 3.3926666 14.363882 3.4302337 C 14.362792 3.4377642 14.361298 3.4451734 14.361298 3.4529713 C 14.361298 3.5332546 14.389314 3.5794352 14.430028 3.613685 C 14.433216 3.7405399 14.431578 3.8692294 14.431578 3.9800708 C 14.431578 4.2409642 14.477413 4.7154078 14.204718 4.8472013 L 14.204718 3.6803476 C 14.204718 3.5540186 14.192471 3.4762197 14.098265 3.4493539 C 14.096824 3.3351466 14.081457 3.2629927 13.992845 3.2374806 C 13.99139 3.1233787 13.975474 3.0516226 13.886908 3.026124 C 13.885493 2.9115696 13.869973 2.8397037 13.780972 2.8142507 C 13.779528 2.6998364 13.764073 2.6277693 13.675035 2.6023773 C 13.673178 2.4567765 13.648834 2.3801687 13.478664 2.3801687 C 13.427665 2.3801687 11.827603 2.3989828 11.827603 2.8059824 C 11.827603 2.9398273 11.872705 2.987482 11.933539 3.0219899 C 11.934513 3.1528887 11.979032 3.1997092 12.039476 3.2338632 C 12.04055 3.3639714 12.084827 3.4111356 12.144896 3.4452198 C 12.145865 3.5757091 12.190678 3.6229659 12.250833 3.6570932 C 12.251156 3.7005806 12.256878 3.7344469 12.265819 3.7619963 C 12.265828 3.7651996 12.265819 3.7680639 12.265819 3.7712981 C 12.265819 3.8793857 12.264295 3.9870419 12.263752 4.093759 C 12.239509 4.0387321 12.210941 3.9832618 12.177452 3.9283944 C 12.149687 3.8583173 12.114918 3.7868053 12.072032 3.7165211 C 12.044262 3.646418 12.008998 3.5754757 11.966095 3.5051645 C 11.938326 3.4350614 11.903061 3.3636023 11.860159 3.2932911 C 11.68473 2.8504322 11.212373 2.3610484 10.384797 2.3610484 C 9.4317977 2.3610484 8.599893 3.0723518 8.599893 4.0503508 C 8.599893 4.34841 8.6782828 4.6468672 8.8329537 4.9066292 C 8.8628965 4.9792527 8.8979385 5.0500087 8.9383736 5.1179858 C 8.9683541 5.1907399 9.0038012 5.2612501 9.0443103 5.3293424 C 9.074391 5.4023747 9.1095584 5.4733981 9.1502469 5.5417325 C 9.1803683 5.6147891 9.2159614 5.6857723 9.2567004 5.7541226 C 9.3209769 5.909762 9.4094908 6.05617 9.5218005 6.1866543 C 9.2165011 6.0424446 8.9095725 5.7885171 8.5849068 5.5412157 C 8.2507886 5.2873948 7.8976417 5.0415025 7.5312245 4.9102465 L 8.7590564 2.7977142 C 8.8100563 2.7027143 8.9109851 2.5494623 8.9109851 2.4354624 C 8.9109851 2.3294196 8.8700613 2.2477587 8.8040149 2.1946503 C 8.7972332 2.1024003 8.7582808 2.0303676 8.6980782 1.9822602 C 8.6911759 1.8903454 8.6521603 1.8189066 8.5921415 1.7709036 C 8.5852574 1.6789467 8.5462428 1.6070486 8.4862049 1.5590302 C 8.4793206 1.467356 8.4405362 1.3956751 8.3807849 1.3476737 C 8.3675895 1.1687883 8.2333951 1.0660371 8.0578073 1.0660371 z M 16.413886 3.8849862 C 16.429855 3.9155578 16.447487 3.9443649 16.466079 3.9723194 C 16.493564 4.0502248 16.529678 4.1205339 16.572015 4.1841927 C 16.599495 4.2620433 16.63564 4.3319279 16.677952 4.3955493 C 16.70566 4.4740749 16.741627 4.5449124 16.784406 4.608973 C 16.811784 4.6861443 16.846813 4.7556185 16.888792 4.8187793 C 16.889362 4.8203983 16.890281 4.8218178 16.890859 4.8234301 C 16.72226 4.6466245 16.569593 4.437924 16.408718 4.437924 C 16.406366 4.437924 16.404311 4.438398 16.402 4.4384408 L 16.402 4.3976164 C 16.402 4.2249271 16.411076 4.0563789 16.413886 3.8849862 z M 16.425771 5.4766202 C 16.441705 5.5079179 16.458157 5.5386967 16.47538 5.5675707 C 16.483187 5.5864844 16.49172 5.6048118 16.500185 5.6233812 C 16.481598 5.5989528 16.458436 5.5807672 16.431972 5.5660204 C 16.432499 5.5595122 16.433523 5.5530385 16.433523 5.5463834 C 16.433523 5.5194899 16.43075 5.4967043 16.425771 5.4766202 z M 16.531708 5.6890103 C 16.54777 5.7205388 16.564467 5.7514178 16.581834 5.7804776 C 16.589287 5.7984845 16.597555 5.8160102 16.605605 5.8337043 C 16.587024 5.8096327 16.563681 5.7919881 16.537392 5.777377 C 16.537906 5.7709469 16.538942 5.7648302 16.538942 5.7582567 C 16.538942 5.7317503 16.536552 5.7088919 16.531708 5.6890103 z M 16.638161 5.9024339 C 16.654134 5.9336949 16.670519 5.9640532 16.687771 5.9928677 C 16.695281 6.0109997 16.703943 6.0282815 16.712059 6.0460944 C 16.693553 6.0218648 16.669612 6.0044371 16.643329 5.9897671 C 16.643884 5.983085 16.644879 5.9764504 16.644879 5.9696133 C 16.644879 5.9438475 16.64275 5.9219217 16.638161 5.9024339 z "/>
	</g>
	<g aria-label="Zeus" id="g-1" style="font-size:6.35px;line-height:1.25;font-family:'Century Gothic';letter-spacing:-0.264583px;word-spacing:0px;display:inline;stroke-width:0.264583" transform="translate(0.18716666,0.16282831)" inkscape:label="main" sodipodi:insensitive="true">
		<path d="m 7.3938103,5.1464945 c -0.058,0.096 -0.296,0.47 -0.296,0.578 0,0.153 0.343,0.146 0.438,0.146 0.555,0 1.087,0.356 1.578,0.729 0.491,0.374 0.9420027,0.765 1.4070037,0.765 0.241,0 0.525,-0.272 0.647,-0.272 0.039,0 0.062,0.027 0.062,0.099 0,0.686 -0.525,1.002 -1.224002,1.002 -0.7000017,0 -1.1880017,-0.529 -1.4600017,-0.759 -0.102,-0.087 -0.935,-0.77 -1.592,-0.77 h -1.688 c -0.216,0 -0.451,0.057 -0.451,-0.241 0,-0.121 0.077,-0.223 0.134,-0.318 l 1.6,-2.718 c 0.032,-0.05 0.114,-0.171 0.114,-0.241 0,-0.165 -0.26,-0.184 -0.419,-0.184 -0.8,0 -0.603,0.857 -1.054,0.857 -0.26,0 -0.438,-0.298 -0.438,-0.54 0,-0.482 0.438,-1.143 0.591,-1.143 0.031,0 0.076,0.02 0.203,0.045 0.133,0.019 0.362,0.032 0.755,0.032 0.273,0 0.762,-0.007 1.232,-0.038 0.464,-0.026 0.902,-0.051 1.054,-0.051 0.185,0 0.324,0.114 0.324,0.311 0,0.114 -0.101,0.267 -0.152,0.362 z m 3.3040037,0.058 c -0.07,0 -0.172,-0.02 -0.172,0.088 0,0.318 0.413,0.585 0.711,0.585 0.477,0 0.712,-0.286 0.845,-0.286 0.133,0 0.248,0.197 0.248,0.317 0,0.489 -0.896,0.845 -1.467,0.845 -1.1430037,0 -1.7340037,-0.826 -1.7340037,-1.645 0,-0.978 0.8320011,-1.689 1.7850037,-1.689 1.079,0 1.555,0.832 1.555,1.308 0,0.419 -0.19,0.477 -0.393,0.477 z m 0.552,-0.801 c 0,-0.228 -0.14,-0.406 -0.375,-0.406 -0.209,0 -0.381,0.216 -0.381,0.419 0,0.229 0.216,0.178 0.381,0.178 0.172,0 0.375,0.038 0.375,-0.191 z m 2.955,0.889 c 0,0.254 0.019,0.648 0.362,0.648 0.457,0 0.394,-0.597 0.394,-0.902 0,-0.209 0.006,-0.482 -0.026,-0.685 -0.051,-0.318 -0.362,-0.21 -0.362,-0.477 0,-0.374 1.277,-0.438 1.518,-0.438 0.229,0 0.324,0.134 0.324,0.356 0,0.203 -0.013,0.4 -0.013,0.603 v 1.276 c 0,0.381 0.349,0.204 0.349,0.508 0,0.432 -1.124,0.553 -1.473,0.553 -0.489,0 -0.165,-0.381 -0.419,-0.381 -0.07,0 -0.171,0.095 -0.324,0.19 -0.152,0.096 -0.355,0.191 -0.635,0.191 -1.206,0 -1.105,-0.953 -1.105,-1.905 0,-0.972 -0.438,-0.546 -0.438,-0.965 0,-0.407 1.6,-0.426 1.651,-0.426 0.178,0 0.197,0.083 0.197,0.242 z m 4.18,-1.835 c 0.115,0.019 0.216,0.045 0.261,0.045 0.063,0 0.114,-0.019 0.171,-0.045 0.057,-0.019 0.114,-0.038 0.172,-0.038 0.292,0 0.584,0.584 0.584,0.845 0,0.171 -0.146,0.298 -0.311,0.298 -0.362,0 -0.565,-0.501 -0.845,-0.501 -0.114,0 -0.228,0.095 -0.228,0.215 0,0.407 1.397,0.483 1.397,1.467 0,0.597 -0.578,1.01 -1.239,1.01 -0.127,0 -0.311,-0.019 -0.47,-0.045 -0.158,-0.019 -0.298,-0.038 -0.336,-0.038 -0.045,0 -0.083,0.007 -0.127,0.013 -0.038,0.006 -0.076,0.013 -0.121,0.013 -0.127,0 -0.19,-0.019 -0.279,-0.121 -0.159,-0.178 -0.318,-0.54 -0.318,-0.781 0,-0.165 0.057,-0.298 0.242,-0.298 0.279,0 0.533,0.628 0.889,0.628 0.127,0 0.247,-0.063 0.247,-0.203 0,-0.375 -1.244,-0.419 -1.244,-1.467 0,-0.635 0.52,-1.035 1.174,-1.035 0.127,0 0.261,0.013 0.381,0.038 z" style="font-style:normal;font-variant:normal;font-weight:normal;font-stretch:normal;font-size:6.35px;font-family:'Cooper Std';display:inline;fill:none;fill-opacity:1;stroke:#B16286;stroke-width:0.502708;stroke-linecap:round;stroke-linejoin:round;stroke-miterlimit:4;stroke-dasharray:none;paint-order:stroke" id="path920" inkscape:label="6">
			<animate attributeName="stroke" repeatCount="indefinite" calcMode="linear" dur="0.6s" begin="0.5s" values="#CC241D;#D65D0E;#D79921;#98971A;#458588;#B16286;#CC241D"/>
		</path>
		<path d="m 7.2879769,4.9347969 c -0.058,0.096 -0.296,0.47 -0.296,0.578 0,0.153 0.343,0.146 0.438,0.146 0.555,0 1.087,0.356 1.578,0.729 0.491,0.374 0.9420007,0.765 1.4070031,0.765 0.241,0 0.525,-0.272 0.647,-0.272 0.039,0 0.062,0.027 0.062,0.099 0,0.686 -0.525,1.002 -1.2240024,1.002 -0.7000007,0 -1.1880007,-0.529 -1.4600007,-0.759 -0.102,-0.087 -0.935,-0.77 -1.592,-0.77 h -1.688 c -0.216,0 -0.451,0.057 -0.451,-0.241 0,-0.121 0.077,-0.223 0.134,-0.318 l 1.6,-2.718 c 0.032,-0.05 0.114,-0.171 0.114,-0.241 0,-0.165 -0.26,-0.184 -0.419,-0.184 -0.8,0 -0.603,0.857 -1.054,0.857 -0.26,0 -0.438,-0.298 -0.438,-0.54 0,-0.482 0.438,-1.143 0.591,-1.143 0.031,0 0.076,0.02 0.203,0.045 0.133,0.019 0.362,0.032 0.755,0.032 0.273,0 0.762,-0.007 1.232,-0.038 0.464,-0.026 0.902,-0.051 1.054,-0.051 0.185,0 0.324,0.114 0.324,0.311 0,0.114 -0.101,0.267 -0.152,0.362 z m 3.3040031,0.058 c -0.07,0 -0.172,-0.02 -0.172,0.088 0,0.318 0.413,0.585 0.711,0.585 0.477,0 0.712,-0.286 0.845,-0.286 0.133,0 0.248,0.197 0.248,0.317 0,0.489 -0.896,0.845 -1.467,0.845 -1.1430031,0 -1.7340031,-0.826 -1.7340031,-1.645 0,-0.978 0.832,-1.689 1.7850031,-1.689 1.079,0 1.555,0.832 1.555,1.308 0,0.419 -0.19,0.477 -0.393,0.477 z m 0.552,-0.801 c 0,-0.228 -0.14,-0.406 -0.375,-0.406 -0.209,0 -0.381,0.216 -0.381,0.419 0,0.229 0.216,0.178 0.381,0.178 0.172,0 0.375,0.038 0.375,-0.191 z m 2.955,0.889 c 0,0.254 0.019,0.648 0.362,0.648 0.457,0 0.394,-0.597 0.394,-0.902 0,-0.209 0.006,-0.482 -0.026,-0.685 -0.051,-0.318 -0.362,-0.21 -0.362,-0.477 0,-0.374 1.277,-0.438 1.518,-0.438 0.229,0 0.324,0.134 0.324,0.356 0,0.203 -0.013,0.4 -0.013,0.603 v 1.276 c 0,0.381 0.349,0.204 0.349,0.508 0,0.432 -1.124,0.553 -1.473,0.553 -0.489,0 -0.165,-0.381 -0.419,-0.381 -0.07,0 -0.171,0.095 -0.324,0.19 -0.152,0.096 -0.355,0.191 -0.635,0.191 -1.206,0 -1.105,-0.953 -1.105,-1.905 0,-0.972 -0.438,-0.546 -0.438,-0.965 0,-0.407 1.6,-0.426 1.651,-0.426 0.178,0 0.197,0.083 0.197,0.242 z m 4.18,-1.835 c 0.115,0.019 0.216,0.045 0.261,0.045 0.063,0 0.114,-0.019 0.171,-0.045 0.057,-0.019 0.114,-0.038 0.172,-0.038 0.292,0 0.584,0.584 0.584,0.845 0,0.171 -0.146,0.298 -0.311,0.298 -0.362,0 -0.565,-0.501 -0.845,-0.501 -0.114,0 -0.228,0.095 -0.228,0.215 0,0.407 1.397,0.483 1.397,1.467 0,0.597 -0.578,1.01 -1.239,1.01 -0.127,0 -0.311,-0.019 -0.47,-0.045 -0.158,-0.019 -0.298,-0.038 -0.336,-0.038 -0.045,0 -0.083,0.007 -0.127,0.013 -0.038,0.006 -0.076,0.013 -0.121,0.013 -0.127,0 -0.19,-0.019 -0.279,-0.121 -0.159,-0.178 -0.318,-0.54 -0.318,-0.781 0,-0.165 0.057,-0.298 0.242,-0.298 0.279,0 0.533,0.628 0.889,0.628 0.127,0 0.247,-0.063 0.247,-0.203 0,-0.375 -1.244,-0.419 -1.244,-1.467 0,-0.635 0.52,-1.035 1.174,-1.035 0.127,0 0.261,0.013 0.381,0.038 z" style="font-style:normal;font-variant:normal;font-weight:normal;font-stretch:normal;font-size:6.35px;font-family:'Cooper Std';display:inline;fill:none;fill-opacity:1;stroke:#458588;stroke-width:0.502708;stroke-linecap:round;stroke-linejoin:round;stroke-miterlimit:4;stroke-dasharray:none;stroke-opacity:1;paint-order:stroke" id="path917" inkscape:label="5">
			<animate attributeName="stroke" repeatCount="indefinite" calcMode="linear" dur="0.6s" begin="0.4s" values="#CC241D;#D65D0E;#D79921;#98971A;#458588;#B16286;#CC241D"/>
		</path>
		<path d="m 7.1821436,4.7231302 c -0.058,0.096 -0.296,0.47 -0.296,0.578 0,0.153 0.343,0.146 0.438,0.146 0.555,0 1.087,0.356 1.578,0.729 0.491,0.374 0.942,0.765 1.4070024,0.765 0.241,0 0.525,-0.272 0.647,-0.272 0.039,0 0.062,0.027 0.062,0.099 0,0.686 -0.525,1.002 -1.2240024,1.002 -0.7,0 -1.188,-0.529 -1.46,-0.759 -0.102,-0.087 -0.935,-0.77 -1.592,-0.77 h -1.688 c -0.216,0 -0.451,0.057 -0.451,-0.241 0,-0.121 0.077,-0.223 0.134,-0.318 l 1.6,-2.718 c 0.032,-0.05 0.114,-0.171 0.114,-0.241 0,-0.165 -0.26,-0.184 -0.419,-0.184 -0.8,0 -0.603,0.857 -1.054,0.857 -0.26,0 -0.438,-0.298 -0.438,-0.54 0,-0.482 0.438,-1.143 0.591,-1.143 0.031,0 0.076,0.02 0.203,0.045 0.133,0.019 0.362,0.032 0.755,0.032 0.273,0 0.762,-0.007 1.232,-0.038 0.464,-0.026 0.902,-0.051 1.054,-0.051 0.185,0 0.324,0.114 0.324,0.311 0,0.114 -0.101,0.267 -0.152,0.362 z m 3.3040024,0.058 c -0.07,0 -0.172,-0.02 -0.172,0.088 0,0.318 0.413,0.585 0.711,0.585 0.477,0 0.712,-0.286 0.845,-0.286 0.133,0 0.248,0.197 0.248,0.317 0,0.489 -0.896,0.845 -1.467,0.845 -1.1430024,0 -1.7340024,-0.826 -1.7340024,-1.645 0,-0.978 0.832,-1.689 1.7850024,-1.689 1.079,0 1.555,0.832 1.555,1.308 0,0.419 -0.19,0.477 -0.393,0.477 z m 0.552,-0.801 c 0,-0.228 -0.14,-0.406 -0.375,-0.406 -0.209,0 -0.381,0.216 -0.381,0.419 0,0.229 0.216,0.178 0.381,0.178 0.172,0 0.375,0.038 0.375,-0.191 z m 2.955,0.889 c 0,0.254 0.019,0.648 0.362,0.648 0.457,0 0.394,-0.597 0.394,-0.902 0,-0.209 0.006,-0.482 -0.026,-0.685 -0.051,-0.318 -0.362,-0.21 -0.362,-0.477 0,-0.374 1.277,-0.438 1.518,-0.438 0.229,0 0.324,0.134 0.324,0.356 0,0.203 -0.013,0.4 -0.013,0.603 v 1.276 c 0,0.381 0.349,0.204 0.349,0.508 0,0.432 -1.124,0.553 -1.473,0.553 -0.489,0 -0.165,-0.381 -0.419,-0.381 -0.07,0 -0.171,0.095 -0.324,0.19 -0.152,0.096 -0.355,0.191 -0.635,0.191 -1.206,0 -1.105,-0.953 -1.105,-1.905 0,-0.972 -0.438,-0.546 -0.438,-0.965 0,-0.407 1.6,-0.426 1.651,-0.426 0.178,0 0.197,0.083 0.197,0.242 z m 4.18,-1.835 c 0.115,0.019 0.216,0.045 0.261,0.045 0.063,0 0.114,-0.019 0.171,-0.045 0.057,-0.019 0.114,-0.038 0.172,-0.038 0.292,0 0.584,0.584 0.584,0.845 0,0.171 -0.146,0.298 -0.311,0.298 -0.362,0 -0.565,-0.501 -0.845,-0.501 -0.114,0 -0.228,0.095 -0.228,0.215 0,0.407 1.397,0.483 1.397,1.467 0,0.597 -0.578,1.01 -1.239,1.01 -0.127,0 -0.311,-0.019 -0.47,-0.045 -0.158,-0.019 -0.298,-0.038 -0.336,-0.038 -0.045,0 -0.083,0.007 -0.127,0.013 -0.038,0.006 -0.076,0.013 -0.121,0.013 -0.127,0 -0.19,-0.019 -0.279,-0.121 -0.159,-0.178 -0.318,-0.54 -0.318,-0.781 0,-0.165 0.057,-0.298 0.242,-0.298 0.279,0 0.533,0.628 0.889,0.628 0.127,0 0.247,-0.063 0.247,-0.203 0,-0.375 -1.244,-0.419 -1.244,-1.467 0,-0.635 0.52,-1.035 1.174,-1.035 0.127,0 0.261,0.013 0.381,0.038 z" style="font-style:normal;font-variant:normal;font-weight:normal;font-stretch:normal;font-size:6.35px;font-family:'Cooper Std';display:inline;fill:none;fill-opacity:1;stroke:#98971A;stroke-width:0.502708;stroke-linecap:round;stroke-linejoin:round;stroke-miterlimit:4;stroke-dasharray:none;stroke-opacity:1;paint-order:stroke" id="path911" inkscape:label="4">
			<animate attributeName="stroke" repeatCount="indefinite" calcMode="linear" dur="0.6s" begin="0.3s" values="#CC241D;#D65D0E;#D79921;#98971A;#458588;#B16286;#CC241D"/>
		</path>
		<path d="m 7.0763103,4.5114635 c -0.058,0.096 -0.296,0.47 -0.296,0.578 0,0.153 0.343,0.146 0.438,0.146 0.555,0 1.087,0.356 1.578,0.729 0.491,0.374 0.942,0.765 1.4070007,0.765 0.241,0 0.525,-0.272 0.647,-0.272 0.039,0 0.062,0.027 0.062,0.099 0,0.686 -0.525,1.002 -1.2240007,1.002 -0.7,0 -1.188,-0.529 -1.46,-0.759 -0.102,-0.087 -0.935,-0.77 -1.592,-0.77 h -1.688 c -0.216,0 -0.451,0.057 -0.451,-0.241 0,-0.121 0.077,-0.223 0.134,-0.318 l 1.6,-2.718 c 0.032,-0.05 0.114,-0.171 0.114,-0.241 0,-0.165 -0.26,-0.184 -0.419,-0.184 -0.8,0 -0.603,0.857 -1.054,0.857 -0.26,0 -0.438,-0.298 -0.438,-0.54 0,-0.482 0.438,-1.143 0.591,-1.143 0.031,0 0.076,0.02 0.203,0.045 0.133,0.019 0.362,0.032 0.755,0.032 0.273,0 0.762,-0.007 1.232,-0.038 0.464,-0.026 0.902,-0.051 1.054,-0.051 0.185,0 0.324,0.114 0.324,0.311 0,0.114 -0.101,0.267 -0.152,0.362 z m 3.3040007,0.058 c -0.07,0 -0.172,-0.02 -0.172,0.088 0,0.318 0.413,0.585 0.711,0.585 0.477,0 0.712,-0.286 0.845,-0.286 0.133,0 0.248,0.197 0.248,0.317 0,0.489 -0.896,0.845 -1.467,0.845 -1.1430007,0 -1.7340007,-0.826 -1.7340007,-1.645 0,-0.978 0.832,-1.689 1.7850007,-1.689 1.079,0 1.555,0.832 1.555,1.308 0,0.419 -0.19,0.477 -0.393,0.477 z m 0.552,-0.801 c 0,-0.228 -0.14,-0.406 -0.375,-0.406 -0.209,0 -0.381,0.216 -0.381,0.419 0,0.229 0.216,0.178 0.381,0.178 0.172,0 0.375,0.038 0.375,-0.191 z m 2.955,0.889 c 0,0.254 0.019,0.648 0.362,0.648 0.457,0 0.394,-0.597 0.394,-0.902 0,-0.209 0.006,-0.482 -0.026,-0.685 -0.051,-0.318 -0.362,-0.21 -0.362,-0.477 0,-0.374 1.277,-0.438 1.518,-0.438 0.229,0 0.324,0.134 0.324,0.356 0,0.203 -0.013,0.4 -0.013,0.603 v 1.276 c 0,0.381 0.349,0.204 0.349,0.508 0,0.432 -1.124,0.553 -1.473,0.553 -0.489,0 -0.165,-0.381 -0.419,-0.381 -0.07,0 -0.171,0.095 -0.324,0.19 -0.152,0.096 -0.355,0.191 -0.635,0.191 -1.206,0 -1.105,-0.953 -1.105,-1.905 0,-0.972 -0.438,-0.546 -0.438,-0.965 0,-0.407 1.6,-0.426 1.651,-0.426 0.178,0 0.197,0.083 0.197,0.242 z m 4.18,-1.835 c 0.115,0.019 0.216,0.045 0.261,0.045 0.063,0 0.114,-0.019 0.171,-0.045 0.057,-0.019 0.114,-0.038 0.172,-0.038 0.292,0 0.584,0.584 0.584,0.845 0,0.171 -0.146,0.298 -0.311,0.298 -0.362,0 -0.565,-0.501 -0.845,-0.501 -0.114,0 -0.228,0.095 -0.228,0.215 0,0.407 1.397,0.483 1.397,1.467 0,0.597 -0.578,1.01 -1.239,1.01 -0.127,0 -0.311,-0.019 -0.47,-0.045 -0.158,-0.019 -0.298,-0.038 -0.336,-0.038 -0.045,0 -0.083,0.007 -0.127,0.013 -0.038,0.006 -0.076,0.013 -0.121,0.013 -0.127,0 -0.19,-0.019 -0.279,-0.121 -0.159,-0.178 -0.318,-0.54 -0.318,-0.781 0,-0.165 0.057,-0.298 0.242,-0.298 0.279,0 0.533,0.628 0.889,0.628 0.127,0 0.247,-0.063 0.247,-0.203 0,-0.375 -1.244,-0.419 -1.244,-1.467 0,-0.635 0.52,-1.035 1.174,-1.035 0.127,0 0.261,0.013 0.381,0.038 z" style="font-style:normal;font-variant:normal;font-weight:normal;font-stretch:normal;font-size:6.35px;font-family:'Cooper Std';display:inline;fill:none;fill-opacity:1;stroke:#D79921;stroke-width:0.502708;stroke-linecap:round;stroke-linejoin:round;stroke-miterlimit:4;stroke-dasharray:none;stroke-opacity:1;paint-order:stroke" id="path908" inkscape:label="3">
			<animate attributeName="stroke" repeatCount="indefinite" calcMode="linear" dur="0.6s" begin="0.2s" values="#CC241D;#D65D0E;#D79921;#98971A;#458588;#B16286;#CC241D"/>
		</path>
		<title id="title43">zeus-packed</title>
		<path d="m 6.9704769,4.2997967 c -0.058,0.096 -0.296,0.47 -0.296,0.578 0,0.153 0.343,0.146 0.438,0.146 0.555,0 1.087,0.356 1.578,0.729 0.491,0.374 0.942,0.765 1.4070001,0.765 0.241,0 0.525,-0.272 0.647,-0.272 0.039,0 0.062,0.027 0.062,0.099 0,0.686 -0.525,1.002 -1.2240001,1.002 -0.7,0 -1.188,-0.529 -1.46,-0.759 -0.102,-0.087 -0.935,-0.77 -1.592,-0.77 h -1.688 c -0.216,0 -0.451,0.057 -0.451,-0.241 0,-0.121 0.077,-0.223 0.134,-0.318 l 1.6,-2.718 c 0.032,-0.05 0.114,-0.171 0.114,-0.241 0,-0.165 -0.26,-0.184 -0.419,-0.184 -0.8,0 -0.603,0.857 -1.054,0.857 -0.26,0 -0.438,-0.298 -0.438,-0.54 0,-0.482 0.438,-1.143 0.591,-1.143 0.031,0 0.076,0.02 0.203,0.045 0.133,0.019 0.362,0.032 0.755,0.032 0.273,0 0.762,-0.007 1.232,-0.038 0.464,-0.026 0.902,-0.051 1.054,-0.051 0.185,0 0.324,0.114 0.324,0.311 0,0.114 -0.101,0.267 -0.152,0.362 z m 3.3040001,0.058 c -0.07,0 -0.172,-0.02 -0.172,0.088 0,0.318 0.413,0.585 0.711,0.585 0.477,0 0.712,-0.286 0.845,-0.286 0.133,0 0.248,0.197 0.248,0.317 0,0.489 -0.896,0.845 -1.467,0.845 -1.1430001,0 -1.7340001,-0.826 -1.7340001,-1.645 0,-0.978 0.832,-1.689 1.7850001,-1.689 1.079,0 1.555,0.832 1.555,1.308 0,0.419 -0.19,0.477 -0.393,0.477 z m 0.552,-0.801 c 0,-0.228 -0.14,-0.406 -0.375,-0.406 -0.209,0 -0.381,0.216 -0.381,0.419 0,0.229 0.216,0.178 0.381,0.178 0.172,0 0.375,0.038 0.375,-0.191 z m 2.955,0.889 c 0,0.254 0.019,0.648 0.362,0.648 0.457,0 0.394,-0.597 0.394,-0.902 0,-0.209 0.006,-0.482 -0.026,-0.685 -0.051,-0.318 -0.362,-0.21 -0.362,-0.477 0,-0.374 1.277,-0.438 1.518,-0.438 0.229,0 0.324,0.134 0.324,0.356 0,0.203 -0.013,0.4 -0.013,0.603 v 1.276 c 0,0.381 0.349,0.204 0.349,0.508 0,0.432 -1.124,0.553 -1.473,0.553 -0.489,0 -0.165,-0.381 -0.419,-0.381 -0.07,0 -0.171,0.095 -0.324,0.19 -0.152,0.096 -0.355,0.191 -0.635,0.191 -1.206,0 -1.105,-0.953 -1.105,-1.905 0,-0.972 -0.438,-0.546 -0.438,-0.965 0,-0.407 1.6,-0.426 1.651,-0.426 0.178,0 0.197,0.083 0.197,0.242 z m 4.18,-1.835 c 0.115,0.019 0.216,0.045 0.261,0.045 0.063,0 0.114,-0.019 0.171,-0.045 0.057,-0.019 0.114,-0.038 0.172,-0.038 0.292,0 0.584,0.584 0.584,0.845 0,0.171 -0.146,0.298 -0.311,0.298 -0.362,0 -0.565,-0.501 -0.845,-0.501 -0.114,0 -0.228,0.095 -0.228,0.215 0,0.407 1.397,0.483 1.397,1.467 0,0.597 -0.578,1.01 -1.239,1.01 -0.127,0 -0.311,-0.019 -0.47,-0.045 -0.158,-0.019 -0.298,-0.038 -0.336,-0.038 -0.045,0 -0.083,0.007 -0.127,0.013 -0.038,0.006 -0.076,0.013 -0.121,0.013 -0.127,0 -0.19,-0.019 -0.279,-0.121 -0.159,-0.178 -0.318,-0.54 -0.318,-0.781 0,-0.165 0.057,-0.298 0.242,-0.298 0.279,0 0.533,0.628 0.889,0.628 0.127,0 0.247,-0.063 0.247,-0.203 0,-0.375 -1.244,-0.419 -1.244,-1.467 0,-0.635 0.52,-1.035 1.174,-1.035 0.127,0 0.261,0.013 0.381,0.038 z" style="font-style:normal;font-variant:normal;font-weight:normal;font-stretch:normal;font-size:6.35px;font-family:'Cooper Std';display:inline;fill:none;fill-opacity:1;stroke:#D65D0E;stroke-width:0.502708;stroke-linecap:round;stroke-linejoin:round;stroke-miterlimit:4;stroke-dasharray:none;stroke-opacity:1;paint-order:stroke" id="path-1" inkscape:label="2">
			<animate attributeName="stroke" repeatCount="indefinite" calcMode="linear" dur="0.6s" begin="0.1s" values="#CC241D;#D65D0E;#D79921;#98971A;#458588;#B16286;#CC241D"/>
		</path>
		<path d="m 6.864705,4.08813 c -0.058,0.096 -0.296,0.47 -0.296,0.578 0,0.153 0.343,0.146 0.438,0.146 0.555,0 1.087,0.356 1.578,0.729 0.491,0.374 0.942,0.765 1.407,0.765 0.241,0 0.525,-0.272 0.647,-0.272 0.039,0 0.062,0.027 0.062,0.099 0,0.686 -0.525,1.002 -1.224,1.002 -0.7,0 -1.188,-0.529 -1.46,-0.759 -0.102,-0.087 -0.935,-0.77 -1.592,-0.77 h -1.688 c -0.216,0 -0.451,0.057 -0.451,-0.241 0,-0.121 0.077,-0.223 0.134,-0.318 l 1.6,-2.718 c 0.032,-0.05 0.114,-0.171 0.114,-0.241 0,-0.165 -0.26,-0.184 -0.419,-0.184 -0.8,0 -0.603,0.857 -1.054,0.857 -0.26,0 -0.438,-0.298 -0.438,-0.54 0,-0.482 0.438,-1.143 0.591,-1.143 0.031,0 0.076,0.02 0.203,0.045 0.133,0.019 0.362,0.032 0.755,0.032 0.273,0 0.762,-0.007 1.232,-0.038 0.464,-0.026 0.902,-0.051 1.054,-0.051 0.185,0 0.324,0.114 0.324,0.311 0,0.114 -0.101,0.267 -0.152,0.362 z m 3.304,0.058 c -0.07,0 -0.172,-0.02 -0.172,0.088 0,0.318 0.413,0.585 0.711,0.585 0.477,0 0.712,-0.286 0.845,-0.286 0.133,0 0.248,0.197 0.248,0.317 0,0.489 -0.896,0.845 -1.467,0.845 -1.143,0 -1.734,-0.826 -1.734,-1.645 0,-0.978 0.832,-1.689 1.785,-1.689 1.079,0 1.555,0.832 1.555,1.308 0,0.419 -0.19,0.477 -0.393,0.477 z m 0.552,-0.801 c 0,-0.228 -0.14,-0.406 -0.375,-0.406 -0.209,0 -0.381,0.216 -0.381,0.419 0,0.229 0.216,0.178 0.381,0.178 0.172,0 0.375,0.038 0.375,-0.191 z m 2.955,0.889 c 0,0.254 0.019,0.648 0.362,0.648 0.457,0 0.394,-0.597 0.394,-0.902 0,-0.209 0.006,-0.482 -0.026,-0.685 -0.051,-0.318 -0.362,-0.21 -0.362,-0.477 0,-0.374 1.277,-0.438 1.518,-0.438 0.229,0 0.324,0.134 0.324,0.356 0,0.203 -0.013,0.4 -0.013,0.603 v 1.276 c 0,0.381 0.349,0.204 0.349,0.508 0,0.432 -1.124,0.553 -1.473,0.553 -0.489,0 -0.165,-0.381 -0.419,-0.381 -0.07,0 -0.171,0.095 -0.324,0.19 -0.152,0.096 -0.355,0.191 -0.635,0.191 -1.206,0 -1.105,-0.953 -1.105,-1.905 0,-0.972 -0.438,-0.546 -0.438,-0.965 0,-0.407 1.6,-0.426 1.651,-0.426 0.178,0 0.197,0.083 0.197,0.242 z m 4.18,-1.835 c 0.115,0.019 0.216,0.045 0.261,0.045 0.063,0 0.114,-0.019 0.171,-0.045 0.057,-0.019 0.114,-0.038 0.172,-0.038 0.292,0 0.584,0.584 0.584,0.845 0,0.171 -0.146,0.298 -0.311,0.298 -0.362,0 -0.565,-0.501 -0.845,-0.501 -0.114,0 -0.228,0.095 -0.228,0.215 0,0.407 1.397,0.483 1.397,1.467 0,0.597 -0.578,1.01 -1.239,1.01 -0.127,0 -0.311,-0.019 -0.47,-0.045 -0.158,-0.019 -0.298,-0.038 -0.336,-0.038 -0.045,0 -0.083,0.007 -0.127,0.013 -0.038,0.006 -0.076,0.013 -0.121,0.013 -0.127,0 -0.19,-0.019 -0.279,-0.121 -0.159,-0.178 -0.318,-0.54 -0.318,-0.781 0,-0.165 0.057,-0.298 0.242,-0.298 0.279,0 0.533,0.628 0.889,0.628 0.127,0 0.247,-0.063 0.247,-0.203 0,-0.375 -1.244,-0.419 -1.244,-1.467 0,-0.635 0.52,-1.035 1.174,-1.035 0.127,0 0.261,0.013 0.381,0.038 z" style="font-style:normal;font-variant:normal;font-weight:normal;font-stretch:normal;font-size:6.35px;font-family:'Cooper Std';display:inline;fill:#ebdbb2;fill-opacity:1;stroke:#CC241D;stroke-width:0.502708;stroke-linecap:round;stroke-linejoin:round;stroke-miterlimit:4;stroke-dasharray:none;paint-order:stroke" id="path906" inkscape:label="1">
			<animate attributeName="stroke" repeatCount="indefinite" calcMode="linear" dur="0.6s" values="#CC241D;#D65D0E;#D79921;#98971A;#458588;#B16286;#CC241D"/>
		</path>
	</g>
<style xmlns="" data-source="base" class="dblt-ykjmwcnxmi"/><style xmlns="" data-source="stylesheet-processor" class="dblt-ykjmwcnxmi"/></svg>