<?xml version="1.0" encoding="UTF-8" standalone="no"?>
<svg
   width="88"
   height="31"
   viewBox="0 0 23.283331 8.2020825"
   version="1.1"
   id="svg8"
   sodipodi:docname="inkscape.svg"
   inkscape:version="1.2.1 (9c6d41e410, 2022-07-14)"
   xml:space="preserve"
   xmlns:inkscape="http://www.inkscape.org/namespaces/inkscape"
   xmlns:sodipodi="http://sodipodi.sourceforge.net/DTD/sodipodi-0.dtd"
   xmlns:xlink="http://www.w3.org/1999/xlink"
   xmlns="http://www.w3.org/2000/svg"
   xmlns:svg="http://www.w3.org/2000/svg"
   xmlns:rdf="http://www.w3.org/1999/02/22-rdf-syntax-ns#"
   xmlns:cc="http://creativecommons.org/ns#"
   xmlns:dc="http://purl.org/dc/elements/1.1/"><metadata
     id="metadata42"><rdf:RDF><cc:Work
         rdf:about=""><dc:format>image/svg+xml</dc:format><dc:type
           rdf:resource="http://purl.org/dc/dcmitype/StillImage" /></cc:Work></rdf:RDF></metadata><sodipodi:namedview
     pagecolor="#292929"
     bordercolor="#666666"
     borderopacity="1"
     objecttolerance="10"
     gridtolerance="10"
     guidetolerance="10"
     inkscape:pageopacity="0"
     inkscape:pageshadow="2"
     inkscape:window-width="1858"
     inkscape:window-height="1061"
     id="namedview40"
     showgrid="false"
     inkscape:zoom="8"
     inkscape:cx="39.8125"
     inkscape:cy="-23.75"
     inkscape:window-x="57"
     inkscape:window-y="-5"
     inkscape:window-maximized="1"
     inkscape:current-layer="svg8"
     inkscape:document-rotation="0"
     inkscape:showpageshadow="0"
     inkscape:pagecheckerboard="1"
     inkscape:deskcolor="#373737" /><defs
     id="defs2"><g
       id="SVG"
       fill="#ffffff"
       transform="matrix(2,0,0,2,40,158)"><path
         id="S"
         d="M 5.482,31.319 C 2.163,28.001 0.109,23.419 0.109,18.358 0.109,8.232 8.322,0.024 18.443,0.024 c 10.126,0 18.339,8.208 18.339,18.334 h -10.74 c 0,-4.194 -3.404,-7.593 -7.599,-7.593 -4.194,0 -7.593,3.399 -7.593,7.593 0,2.095 0.851,3.993 2.22,5.363 h 0.005 c 1.375,1.38 2.52,1.779 5.368,2.231 v 0 c 5.066,0.527 9.648,2.054 12.966,5.372 v 0 c 3.319,3.319 5.373,7.901 5.373,12.962 0,10.126 -8.213,18.339 -18.339,18.339 C 8.322,62.625 0.109,54.412 0.109,44.286 H 10.85 c 0,4.194 3.399,7.598 7.593,7.598 4.195,0 7.599,-3.404 7.599,-7.598 0,-2.095 -0.851,-3.988 -2.221,-5.363 H 23.816 C 22.441,37.548 20.468,37.074 18.443,36.697 V 36.692 C 13.533,35.939 8.8,34.638 5.482,31.319 Z" /><path
         id="V"
         d="M 73.452,0.024 60.482,62.625 H 49.742 L 36.782,0.024 h 10.74 l 7.6,36.663 7.59,-36.663 z" /><path
         id="G"
         d="m 91.792,25.952 h 18.334 v 18.334 h 0.005 c 0,10.127 -8.213,18.34 -18.339,18.34 -10.127,0 -18.334,-8.213 -18.334,-18.34 v 0 -25.927 h -0.005 c 0,-10.126 8.212,-18.334 18.339,-18.334 10.121,0 18.334,8.208 18.334,18.334 H 99.385 c 0,-4.19 -3.404,-7.594 -7.593,-7.594 -4.195,0 -7.594,3.404 -7.594,7.594 v 25.927 0 c 0,4.195 3.399,7.594 7.594,7.594 4.189,0 7.588,-3.399 7.593,-7.589 v -0.005 -7.588 h -7.593 z" /></g><linearGradient
       id="WhiteTransparent"
       gradientUnits="userSpaceOnUse"><stop
         style="stop-color:white;stop-opacity:1"
         offset="0"
         id="stop7" /><stop
         style="stop-color:white;stop-opacity:0"
         offset="1"
         id="stop9" /></linearGradient><linearGradient
       id="BlackTransparent"
       gradientUnits="userSpaceOnUse"><stop
         style="stop-color:black;stop-opacity:1"
         offset="0"
         id="stop12" /><stop
         style="stop-color:black;stop-opacity:0"
         offset="1"
         id="stop14" /></linearGradient><linearGradient
       id="liquidShade"
       xlink:href="#BlackTransparent"
       x1="0"
       y1="128"
       x2="0"
       y2="64"
       gradientUnits="userSpaceOnUse" /><linearGradient
       id="liquidSpecular"
       xlink:href="#WhiteTransparent"
       x1="0"
       y1="128"
       x2="0"
       y2="76"
       gradientUnits="userSpaceOnUse" /><linearGradient
       id="sideSpecular"
       xlink:href="#WhiteTransparent"
       x1="80"
       y1="20"
       x2="60"
       y2="40"
       gradientUnits="userSpaceOnUse" /><linearGradient
       id="IcecapTip"
       xlink:href="#WhiteTransparent"
       x1="60"
       y1="20"
       x2="90"
       y2="50"
       gradientUnits="userSpaceOnUse" /><linearGradient
       id="shinySpecular"
       xlink:href="#WhiteTransparent"
       x1="33"
       y1="35"
       x2="58"
       y2="60"
       gradientUnits="userSpaceOnUse" /><clipPath
       clipPathUnits="userSpaceOnUse"
       id="clipoutline1"><path
         id="outline1"
         d="M 54.1,12.5 L 12.9,54.7 C -2.7,70.3 23,69 32.3,74.9 C 36.6,77.7 18.5,81.3 22.2,85 C 25.8,88.7 43.9,92.1 47.5,95.7 C 51.1,99.4 40.2,103.3 43.8,107 C 47.3,110.7 55.7,107.2 57.2,115.6 C 58.3,121.8 72.6,118.7 79,113.4 C 83,110 72.1,110 75.7,106.3 C 84.7,97.2 92.7,102.2 96,93.8 C 97.8,89.3 82.4,86.1 86.5,83.2 C 96.3,76.3 132.3,72.8 115.7,56.2 L 73,12.5 C 67.7,7.5 59,7.5 54.1,12.5 z M 44.2,77.2 C 45.1,77.2 75,81.2 63.5,84.3 C 59.1,85.5 38.9,77.2 44.2,77.2 z M 101.4,93.8 C 101.4,95.9 117.7,97.1 116.8,93.3 C 115.5,86.9 103.2,87.4 101.4,93.8 z M 31.9,104.9 C 35.6,108.1 41.2,104.2 43,99.7 C 39.4,95 26.1,100 31.9,104.9 z M 99.4,98.2 C 94.8,102.4 100.2,106.8 104.7,103.9 C 105.9,103.1 104.6,99.2 99.4,98.2 z " /></clipPath><filter
       id="ShadowBlur"
       filterUnits="userSpaceOnUse"
       x="0"
       y="0"><feGaussianBlur
         in="SourceAlpha"
         stdDeviation="3"
         result="blur"
         id="feGaussianBlur24" /></filter><filter
       color-interpolation-filters="sRGB"
       inkscape:collect="always"
       id="filter6017"
       x="-0.017255854"
       y="-0.0175289"
       width="1.0345117"
       height="1.0350578"><feGaussianBlur
         inkscape:collect="always"
         stdDeviation="0.80546496"
         id="feGaussianBlur6019" /></filter><filter
       color-interpolation-filters="sRGB"
       inkscape:collect="always"
       id="filter6031"
       x="-0.074775365"
       y="-0.075958573"
       width="1.1495507"
       height="1.1519171"><feGaussianBlur
         inkscape:collect="always"
         stdDeviation="3.4903482"
         id="feGaussianBlur6033" /></filter><linearGradient
       inkscape:collect="always"
       xlink:href="#linearGradient5785"
       id="linearGradient9175"
       gradientUnits="userSpaceOnUse"
       x1="82.11859"
       y1="20"
       x2="60"
       y2="40" /><linearGradient
       gradientUnits="userSpaceOnUse"
       id="linearGradient5785"><stop
         id="stop5787"
         offset="0"
         style="stop-color:#c0cdf9;stop-opacity:1" /><stop
         id="stop5789"
         offset="1"
         style="stop-color:#07092d;stop-opacity:0.28804347" /></linearGradient><clipPath
       clipPathUnits="userSpaceOnUse"
       id="clipPath9086"><use
         id="use9088"
         xlink:href="#outline1"
         class="low-specularity"
         style="fill:#ffffff;fill-opacity:1"
         x="0"
         y="0"
         width="400"
         height="300"
         transform="translate(1.009546e-6,0)" /></clipPath><filter
       color-interpolation-filters="sRGB"
       inkscape:collect="always"
       id="filter8490"
       x="-0.051767563"
       y="-0.052586698"
       width="1.1035351"
       height="1.1051734"><feGaussianBlur
         inkscape:collect="always"
         stdDeviation="2.4163949"
         id="feGaussianBlur8492" /></filter><linearGradient
       gradientUnits="userSpaceOnUse"
       y2="60"
       x2="58"
       y1="35"
       x1="33"
       xlink:href="#WhiteTransparent"
       id="shinySpecular-4"
       gradientTransform="matrix(1.009184,0,0,1.009184,-0.3890738,-0.3831933)" /><radialGradient
       inkscape:collect="always"
       xlink:href="#WhiteTransparent"
       id="radialGradient9177"
       gradientUnits="userSpaceOnUse"
       gradientTransform="matrix(1.570052,0,0,1.05093,-75.50011,-22.09591)"
       cx="116.3104"
       cy="250.8974"
       fx="116.3104"
       fy="250.8974"
       r="30.59958" /><radialGradient
       inkscape:collect="always"
       xlink:href="#WhiteTransparent"
       id="radialGradient8574"
       cx="132.4443"
       cy="251.994"
       fx="132.4443"
       fy="251.994"
       r="30.59958"
       gradientTransform="matrix(2.003253,0,0,1.340898,-132.8752,-95.16607)"
       gradientUnits="userSpaceOnUse" /><filter
       color-interpolation-filters="sRGB"
       inkscape:collect="always"
       id="filter8732"
       x="-0.078079168"
       width="1.1561583"
       y="-0.1142207"
       height="1.2284414"><feGaussianBlur
         inkscape:collect="always"
         stdDeviation="1.9579068"
         id="feGaussianBlur8734" /></filter><radialGradient
       inkscape:collect="always"
       xlink:href="#WhiteTransparent"
       id="radialGradient8744"
       cx="210.25"
       cy="168.5"
       fx="210.25"
       fy="168.5"
       r="34.25"
       gradientTransform="matrix(1,0,0,0.4233577,0,97.16423)"
       gradientUnits="userSpaceOnUse" /><radialGradient
       inkscape:collect="always"
       xlink:href="#WhiteTransparent"
       id="radialGradient8768"
       gradientUnits="userSpaceOnUse"
       gradientTransform="matrix(1,0,0,0.4233577,0,97.16423)"
       cx="217.5"
       cy="182.0819"
       fx="217.5"
       fy="182.0819"
       r="34.25" /><filter
       color-interpolation-filters="sRGB"
       inkscape:collect="always"
       id="filter8764"
       x="-0.07426214"
       width="1.1485243"
       y="-0.1754123"
       height="1.3508246"><feGaussianBlur
         inkscape:collect="always"
         stdDeviation="2.1195652"
         id="feGaussianBlur8766" /></filter><linearGradient
       inkscape:collect="always"
       xlink:href="#WhiteTransparent"
       id="linearGradient8912"
       x1="231.625"
       y1="195.1875"
       x2="231.75"
       y2="201.5"
       gradientUnits="userSpaceOnUse" /><linearGradient
       inkscape:collect="always"
       xlink:href="#WhiteTransparent"
       id="linearGradient8910"
       x1="231.3765"
       y1="195.6213"
       x2="231.3765"
       y2="200.0714"
       gradientUnits="userSpaceOnUse" /><filter
       color-interpolation-filters="sRGB"
       inkscape:collect="always"
       id="filter8906"
       x="-0.096121542"
       width="1.1922431"
       y="-0.31690436"
       height="1.6338087"><feGaussianBlur
         inkscape:collect="always"
         stdDeviation="0.56515877"
         id="feGaussianBlur8908" /></filter><radialGradient
       inkscape:collect="always"
       xlink:href="#WhiteTransparent"
       id="radialGradient8922"
       cx="228.2188"
       cy="204.8323"
       fx="228.2188"
       fy="204.8323"
       r="14.09375"
       gradientTransform="matrix(1,0,0,0.1477455,0,174.5692)"
       gradientUnits="userSpaceOnUse" /><filter
       color-interpolation-filters="sRGB"
       inkscape:collect="always"
       id="filter8980"
       x="-0.077696319"
       width="1.1553926"
       y="-0.47286011"
       height="1.9457202"><feGaussianBlur
         inkscape:collect="always"
         stdDeviation="0.82052366"
         id="feGaussianBlur8982" /></filter><radialGradient
       inkscape:collect="always"
       xlink:href="#WhiteTransparent"
       id="radialGradient8994"
       gradientUnits="userSpaceOnUse"
       gradientTransform="matrix(1,0,0,0.1477455,0,174.5692)"
       cx="228.2188"
       cy="204.8323"
       fx="228.2188"
       fy="204.8323"
       r="14.09375" /><radialGradient
       inkscape:collect="always"
       xlink:href="#linearGradient8998"
       id="radialGradient9004"
       cx="89.875"
       cy="187.8694"
       fx="89.875"
       fy="187.8694"
       r="22.75"
       gradientTransform="matrix(1,0,0,0.4070844,0,115.7601)"
       gradientUnits="userSpaceOnUse" /><linearGradient
       inkscape:collect="always"
       id="linearGradient8998"><stop
         style="stop-color:#ffffff;stop-opacity:0.33004926"
         offset="0"
         id="stop9000" /><stop
         style="stop-color:#ffffff;stop-opacity:0;"
         offset="1"
         id="stop9002" /></linearGradient><radialGradient
       inkscape:collect="always"
       xlink:href="#WhiteTransparent"
       id="radialGradient9046"
       cx="90.28125"
       cy="230.8363"
       fx="90.28125"
       fy="230.8363"
       r="10.46875"
       gradientTransform="matrix(1.185075,-0.3283582,0.1228557,0.4433973,-45.06831,152.9216)"
       gradientUnits="userSpaceOnUse" /><filter
       color-interpolation-filters="sRGB"
       inkscape:collect="always"
       id="filter9068"
       x="-0.076179281"
       width="1.1523586"
       y="-0.16557006"
       height="1.3311401"><feGaussianBlur
         inkscape:collect="always"
         stdDeviation="0.66458488"
         id="feGaussianBlur9070" /></filter><radialGradient
       inkscape:collect="always"
       xlink:href="#WhiteTransparent"
       id="radialGradient11553"
       gradientUnits="userSpaceOnUse"
       gradientTransform="matrix(1.722153,0,0,1.694977,-49.39526,-14.07806)"
       cx="68.39994"
       cy="21.22575"
       fx="68.39994"
       fy="21.22575"
       r="54.7834" /><filter
       color-interpolation-filters="sRGB"
       inkscape:collect="always"
       id="filter9298"
       x="-0.027604644"
       y="-0.027924366"
       width="1.0547985"
       height="1.0559811"><feGaussianBlur
         inkscape:collect="always"
         stdDeviation="0.32610678"
         id="feGaussianBlur9300" /></filter><linearGradient
       inkscape:collect="always"
       xlink:href="#WhiteTransparent"
       id="linearGradient5905"
       x1="95.5"
       y1="208.1644"
       x2="153.5"
       y2="223.5"
       gradientUnits="userSpaceOnUse" /><filter
       color-interpolation-filters="sRGB"
       inkscape:collect="always"
       id="filter5983-5"
       x="-0.082508992"
       width="1.165018"
       y="-0.12233573"
       height="1.2446715"><feGaussianBlur
         inkscape:collect="always"
         stdDeviation="3.6868363"
         id="feGaussianBlur5985-9" /></filter><linearGradient
       inkscape:collect="always"
       xlink:href="#linearGradient5793-6"
       id="linearGradient5801"
       x1="57.2252"
       y1="76.24634"
       x2="53.63158"
       y2="84.48032"
       gradientUnits="userSpaceOnUse"
       gradientTransform="matrix(0.8852575,0,0,0.8852575,5.177215,9.229337)" /><linearGradient
       inkscape:collect="always"
       id="linearGradient5793-6"><stop
         style="stop-color:#eeeeec;stop-opacity:1;"
         offset="0"
         id="stop5795-2" /><stop
         style="stop-color:#eeeeec;stop-opacity:0;"
         offset="1"
         id="stop5797-1" /></linearGradient><radialGradient
       inkscape:collect="always"
       xlink:href="#WhiteTransparent"
       id="radialGradient5811"
       cx="181.2273"
       cy="214.5512"
       fx="181.2273"
       fy="214.5512"
       r="22.4664"
       gradientTransform="matrix(1.351523,0,0,1.717571,-63.70565,-153.9557)"
       gradientUnits="userSpaceOnUse" /><filter
       color-interpolation-filters="sRGB"
       inkscape:collect="always"
       id="filter5845"
       x="-0.067752077"
       y="-0.053323477"
       width="1.1355042"
       height="1.106647"><feGaussianBlur
         inkscape:collect="always"
         stdDeviation="1.2409356"
         id="feGaussianBlur5847" /></filter><linearGradient
       inkscape:collect="always"
       xlink:href="#WhiteTransparent"
       id="linearGradient5822"
       gradientUnits="userSpaceOnUse"
       gradientTransform="matrix(0.4927913,0,0,0.4927913,-6.000388,-9.722518)"
       x1="73.7121"
       y1="180.4757"
       x2="82.75407"
       y2="187.6597" /><linearGradient
       inkscape:collect="always"
       id="linearGradient10981-3"><stop
         style="stop-color:#729fcf;stop-opacity:1;"
         offset="0"
         id="stop10983-2" /><stop
         style="stop-color:#729fcf;stop-opacity:0;"
         offset="1"
         id="stop10985-3" /></linearGradient><filter
       color-interpolation-filters="sRGB"
       inkscape:collect="always"
       id="filter10997-7"
       x="-0.05936747"
       y="-0.040286151"
       width="1.1187349"
       height="1.0805723"><feGaussianBlur
         inkscape:collect="always"
         stdDeviation="2.7696726"
         id="feGaussianBlur10999-0" /></filter><linearGradient
       y2="144.5"
       x2="153.7005"
       y1="217.5"
       x1="180.8129"
       gradientTransform="translate(-130.1657,-83.35279)"
       gradientUnits="userSpaceOnUse"
       id="linearGradient1030"
       xlink:href="#linearGradient10981-3"
       inkscape:collect="always" /><linearGradient
       inkscape:collect="always"
       xlink:href="#WhiteTransparent"
       id="linearGradient7696"
       gradientUnits="userSpaceOnUse"
       x1="231.625"
       y1="195.1875"
       x2="231.75"
       y2="201.5" /><linearGradient
       inkscape:collect="always"
       xlink:href="#WhiteTransparent"
       id="linearGradient7698"
       gradientUnits="userSpaceOnUse"
       x1="231.3765"
       y1="195.6213"
       x2="231.3765"
       y2="200.0714" /><linearGradient
       inkscape:collect="always"
       xlink:href="#WhiteTransparent"
       id="linearGradient7700"
       gradientUnits="userSpaceOnUse"
       x1="231.625"
       y1="195.1875"
       x2="231.75"
       y2="201.5" /><linearGradient
       inkscape:collect="always"
       xlink:href="#WhiteTransparent"
       id="linearGradient7702"
       gradientUnits="userSpaceOnUse"
       x1="231.3765"
       y1="195.6213"
       x2="231.3765"
       y2="200.0714" /></defs><rect
     style="display:inline;fill:#cccccc;fill-opacity:1;fill-rule:evenodd;stroke-width:0.661458;stroke-linecap:round;stroke-miterlimit:9;stop-color:#000000"
     id="rect830"
     width="23.283333"
     height="8.2020836"
     x="0"
     y="0"
     inkscape:label="bg" /><style
     type="text/css"
     id="style26">
	.specularity {opacity:0.5;}
	.low-specularity {opacity:0.25;}
	.full-specularity {opacity:1;}
	.black {fill:#000000;}
	.white {fill:#ffffff;}
	.outline-big {stroke-width:16;stroke:none;opacity:0.1;fill:none;}
	.outline-small {stroke-width:8;stroke:none;opacity:0.2;fill:none;}
	.stroke-highlight {fill:none;stroke:none;opacity:0.2;}
       	.base-shadow 	{fill:black;opacity:75;}
	</style><g
     id="g849"
     style="display:inline"
     inkscape:label="borders"><path
       style="opacity:1;vector-effect:none;fill:#000000;fill-opacity:1;stroke:none;stroke-width:0.264583px;stroke-linecap:butt;stroke-linejoin:miter;stroke-miterlimit:4;stroke-dasharray:none;stroke-dashoffset:0;stroke-opacity:1"
       d="M 22.754167,0.52916667 23.283333,0 v 8.2020835 l -0.529166,-2e-7 z"
       id="path846"
       sodipodi:nodetypes="ccccc" /><path
       style="opacity:1;vector-effect:none;fill:#ffffff;fill-opacity:1;stroke:none;stroke-width:0.264583px;stroke-linecap:butt;stroke-linejoin:miter;stroke-miterlimit:4;stroke-dasharray:none;stroke-dashoffset:0;stroke-opacity:1"
       d="M 0.529166,0 H 0 V 8.2020835 L 0.529166,7.6729166 Z"
       id="path851"
       sodipodi:nodetypes="ccccc" /><path
       style="opacity:1;vector-effect:none;fill:#ffffff;fill-opacity:1;stroke:none;stroke-width:0.264583px;stroke-linecap:butt;stroke-linejoin:miter;stroke-miterlimit:4;stroke-dasharray:none;stroke-dashoffset:0;stroke-opacity:1"
       d="M 22.754166,0.529166 23.283333,0 H 0 l 3.3174487e-7,0.529166 z"
       id="path853"
       sodipodi:nodetypes="ccccc" /><path
       style="opacity:1;vector-effect:none;fill:#010101;fill-opacity:1;stroke:none;stroke-width:0.264583px;stroke-linecap:butt;stroke-linejoin:miter;stroke-miterlimit:4;stroke-dasharray:none;stroke-dashoffset:0;stroke-opacity:1"
       d="m 23.283333,7.6729167 v 0.529166 H 0 l 0.529167,-0.529166 z"
       id="path855"
       sodipodi:nodetypes="ccccc" /></g><g
     style="display:inline;stroke-width:4.41488;enable-background:new"
     transform="matrix(0.05984018,0,0,0.05959121,15.288528,0.3398448)"
     id="g9139"
     inkscape:label="logo"><g
       style="opacity:0.783251;stroke-width:4.41488"
       transform="translate(3.68968e-7,0.4883067)"
       id="g6035"><path
         inkscape:connector-curvature="0"
         sodipodi:nodetypes="ccccccccccccccccccccccc"
         style="fill:#000000;fill-opacity:1;stroke-width:4.41488;filter:url(#filter6017)"
         d="m 54.1,12.98831 -41.2,42.2 c -15.6,15.6 10.1,14.3 19.4,20.2 4.3,2.8 -13.8,6.4 -10.1,10.1 3.6,3.7 21.7,7.1 25.3,10.7 3.6,3.69999 -7.3,7.59999 -3.7,11.29999 3.5,3.7 11.9,0.2 13.4,8.6 1.1,6.2 15.4,3.1 21.8,-2.2 4,-3.4 -6.9,-3.4 -3.3,-7.1 9,-9.09999 17,-4.1 20.3,-12.49999 1.8,-4.5 -13.6,-7.7 -9.5,-10.6 9.8,-6.9 45.8,-10.4 29.2,-27 l -42.7,-43.7 c -5.3,-5.000003 -14,-5.000003 -18.9,0 z m 47.3,81.3 c 0,2.1 16.3,3.3 15.4,-0.5 -1.3,-6.4 -13.6,-5.9 -15.4,0.5 z M 31.9,105.3883 c 3.7,3.2 9.3,-0.7 11.1,-5.2 -3.6,-4.69999 -16.9,0.3 -11.1,5.2 z m 67.5,-6.69999 c -4.6,4.19999 0.8,8.59999 5.3,5.69999 1.2,-0.8 -0.1,-4.7 -5.3,-5.69999 z"
         id="path5987" /><path
         inkscape:connector-curvature="0"
         id="path6021"
         d="m 54.1,13.96492 -41.2,42.2 c -15.6,15.6 10.1,14.3 19.4,20.2 4.3,2.8 -13.8,6.4 -10.1,10.1 3.6,3.7 21.7,7.1 25.3,10.7 3.6,3.69998 -7.3,7.59998 -3.7,11.29998 3.5,3.7 11.9,0.2 13.4,8.6 1.1,6.2 15.4,3.1 21.8,-2.2 4,-3.4 -6.9,-3.4 -3.3,-7.1 9,-9.09998 17,-4.1 20.3,-12.49998 1.8,-4.5 -13.6,-7.7 -9.5,-10.6 9.8,-6.9 45.8,-10.4 29.2,-27 l -42.7,-43.7 c -5.3,-5 -14,-5 -18.9,0 z m 47.3,81.3 c 0,2.1 16.3,3.3 15.4,-0.5 -1.3,-6.4 -13.6,-5.9 -15.4,0.5 z M 31.9,106.3649 c 3.7,3.2 9.3,-0.7 11.1,-5.2 -3.6,-4.69998 -16.9,0.3 -11.1,5.2 z m 67.5,-6.69998 c -4.6,4.19998 0.8,8.59998 5.3,5.69998 1.2,-0.8 -0.1,-4.7 -5.3,-5.69998 z"
         style="opacity:0.576355;fill:#000000;fill-opacity:1;stroke-width:4.41488;filter:url(#filter6031)"
         sodipodi:nodetypes="ccccccccccccccccccccccc" /></g><path
       inkscape:connector-curvature="0"
       sodipodi:nodetypes="ccccccccccccccccccccccc"
       style="fill:#000000;fill-opacity:1;stroke-width:4.41488"
       d="M 54.1,12.5 12.9,54.7 C -2.7,70.3 23,69 32.3,74.9 36.6,77.7 18.5,81.3 22.2,85 c 3.6,3.7 21.7,7.1 25.3,10.7 3.6,3.7 -7.3,7.6 -3.7,11.3 3.5,3.7 11.9,0.2 13.4,8.6 1.1,6.2 15.4,3.1 21.8,-2.2 4,-3.4 -6.9,-3.4 -3.3,-7.1 9,-9.1 17,-4.1 20.3,-12.5 1.8,-4.5 -13.6,-7.7 -9.5,-10.6 9.8,-6.9 45.8,-10.4 29.2,-27 L 73,12.5 c -5.3,-5 -14,-5 -18.9,0 z m 47.3,81.3 c 0,2.1 16.3,3.3 15.4,-0.5 -1.3,-6.4 -13.6,-5.9 -15.4,0.5 z m -69.5,11.1 c 3.7,3.2 9.3,-0.7 11.1,-5.2 -3.6,-4.7 -16.9,0.3 -11.1,5.2 z m 67.5,-6.7 c -4.6,4.2 0.8,8.6 5.3,5.7 1.2,-0.8 -0.1,-4.7 -5.3,-5.7 z"
       id="use7631" /><path
       inkscape:connector-curvature="0"
       sodipodi:nodetypes="ccccccccccccccccccccccc"
       style="fill:none;stroke-width:4.41488"
       d="M 54.1,12.5 12.9,54.7 C -2.7,70.3 23,69 32.3,74.9 36.6,77.7 18.5,81.3 22.2,85 c 3.6,3.7 21.7,7.1 25.3,10.7 3.6,3.7 -7.3,7.6 -3.7,11.3 3.5,3.7 11.9,0.2 13.4,8.6 1.1,6.2 15.4,3.1 21.8,-2.2 4,-3.4 -6.9,-3.4 -3.3,-7.1 9,-9.1 17,-4.1 20.3,-12.5 1.8,-4.5 -13.6,-7.7 -9.5,-10.6 9.8,-6.9 45.8,-10.4 29.2,-27 L 73,12.5 c -5.3,-5 -14,-5 -18.9,0 z m 47.3,81.3 c 0,2.1 16.3,3.3 15.4,-0.5 -1.3,-6.4 -13.6,-5.9 -15.4,0.5 z m -69.5,11.1 c 3.7,3.2 9.3,-0.7 11.1,-5.2 -3.6,-4.7 -16.9,0.3 -11.1,5.2 z m 67.5,-6.7 c -4.6,4.2 0.8,8.6 5.3,5.7 1.2,-0.8 -0.1,-4.7 -5.3,-5.7 z"
       id="use7639" /><use
       inkscape:label="blue_cast"
       id="use7641"
       xlink:href="#outline1"
       class="low-specularity"
       style="opacity:0.669951;fill:url(#linearGradient9175);stroke-width:4.41488;filter:url(#filter8490)"
       x="0"
       y="0"
       width="400"
       height="300"
       transform="matrix(0.9905442,0,0,0.9905442,0.6051535,0.604136)"
       clip-path="url(#clipPath9086)" /><path
       inkscape:connector-curvature="0"
       id="path7643"
       d="m 16.56522,57.03937 c -11.201945,11.10103 8.47714,7.97256 23.6149,13.92674 l 31.2847,-55.00052 c -4.74316,-4.84409 -10.79826,-4.44041 -15.13776,0 z"
       style="opacity:0.505263;fill:url(#shinySpecular-4);stroke:none;stroke-width:4.41488"
       class="specularity" /><path
       inkscape:connector-curvature="0"
       d="m 70.5,15.5 16.3,16.6 c 1.5,1.5 1.5,4.6 0.6,5.5 L 79.3,31 77.7,40.7 71,37.1 60.1,44 56.5,29.5 50.7,42.1 36.2,42 c -2.8,0 -2.4,-2.9 0.5,-5.8 5.7,-6.3 16.8,-17 20.3,-20.7 3.6,-3.7 9.9,-3.6 13.5,0 z"
       style="fill:url(#IcecapTip);stroke-width:4.41488"
       class="full-specularity"
       id="icecap-7" /><path
       inkscape:connector-curvature="0"
       style="opacity:0.216749;fill:url(#radialGradient9177);fill-opacity:1;fill-rule:evenodd;stroke:none;stroke-width:4.41488"
       d="m 113,203.5 c 0,0 3.3405,5.1007 3,7.5 -0.6682,4.7087 -10.8094,7.0584 -8.5625,11.25 2.2199,4.1411 10.2214,1.794 16.9375,6.125 6.6875,4.3125 4.8895,13.1015 9.75,15.3125 9.4792,4.312 34.375,-7.4375 33.125,-7.1875 -1.25,0.25 -24.5701,5.0954 -29.8201,0.8454 -5.986,-4.8457 -7.7022,-8.2302 -12.1174,-11.0954 -4.1375,-2.685 -9.9497,-3.7804 -11.3025,-5.9787 -1.3528,-2.1982 2.7092,-5.0346 2.99,-9.2713 0.1686,-2.5444 -4,-7.5 -4,-7.5 z"
       id="path8566"
       transform="matrix(0.5296484,0,0,0.5296484,-11.72226,-13.86416)"
       sodipodi:nodetypes="csszsszszsc" /><path
       inkscape:connector-curvature="0"
       sodipodi:nodetypes="csszscssc"
       transform="matrix(0.5296484,0,0,0.5296484,-11.72226,-13.86416)"
       id="path8718"
       d="m 113,203.5 c 0,0 3.3405,5.1007 3,7.5 -0.6682,4.7087 -10.8094,7.0584 -8.5625,11.25 2.2199,4.1411 10.2214,1.794 16.9375,6.125 6.6875,4.3125 4.8895,13.1015 9.75,15.3125 9.4792,4.312 34.375,-7.4375 33.125,-7.1875 -41.3396,0.1574 -33.6249,-10.4946 -49.5625,-17.5 -2.303,-1.0123 -0.9683,-3.7633 -0.6875,-8 0.1686,-2.5444 -4,-7.5 -4,-7.5 z"
       style="opacity:0.275862;fill:url(#radialGradient8574);fill-opacity:1;fill-rule:evenodd;stroke:none;stroke-width:4.41488;filter:url(#filter8732)" /><path
       inkscape:connector-curvature="0"
       style="opacity:0.453202;fill:url(#radialGradient8744);fill-opacity:1;fill-rule:evenodd;stroke:none;stroke-width:4.41488"
       d="M 183.25,181.75 C 220.3537,168.0954 232.2736,166.2194 244.5,154 230.3393,165.9537 200.4015,172.3658 176,183 Z"
       id="path8736"
       transform="matrix(0.5296484,0,0,0.5296484,-11.72226,-13.86416)"
       sodipodi:nodetypes="cccc" /><path
       inkscape:connector-curvature="0"
       sodipodi:nodetypes="cccc"
       transform="matrix(0.5296484,0,0,0.5296484,-11.72226,-14.79104)"
       id="path8746"
       d="m 183.25,181.75 c 61.1037,-21.6546 50.7736,-21.5306 61.25,-27.75 -19.4277,7.4367 -55.7345,8.2298 -68.5,29 z"
       style="opacity:0.512315;fill:url(#radialGradient8768);fill-opacity:1;fill-rule:evenodd;stroke:none;stroke-width:4.41488;filter:url(#filter8764)" /><ellipse
       style="display:inline;overflow:visible;visibility:visible;opacity:0.285714;fill:url(#linearGradient7696);fill-opacity:1;fill-rule:nonzero;stroke:none;stroke-width:4.41488;marker:none;enable-background:accumulate"
       id="path8864"
       transform="matrix(0.5296484,0,0,0.5296484,-12.38432,-14.79104)"
       cx="229.9375"
       cy="199.0625"
       rx="7.9375"
       ry="2.4375" /><ellipse
       transform="matrix(0.7131486,0,0,1.140781,-54.5779,-134.955)"
       id="path8874"
       style="display:inline;overflow:visible;visibility:visible;opacity:0.620689;fill:url(#linearGradient7698);fill-opacity:1;fill-rule:nonzero;stroke:none;stroke-width:4.41488;marker:none;filter:url(#filter8906);enable-background:accumulate"
       cx="229.9375"
       cy="199.0625"
       rx="7.9375"
       ry="2.4375" /><path
       inkscape:connector-curvature="0"
       style="fill:url(#radialGradient8922);fill-opacity:1;fill-rule:evenodd;stroke:none;stroke-width:4.41488;filter:url(#filter8980)"
       d="m 214.125,203.75 c 3.7695,3.4842 24.7558,5.2722 28.1875,-1 -6.7366,4.7839 -21.7168,3.1026 -28.1875,1 z"
       id="path8914"
       transform="matrix(0.5296484,0,0,0.5296484,-11.72226,-14.23868)"
       sodipodi:nodetypes="ccc" /><ellipse
       transform="matrix(0.2042516,-0.1035605,0.2395168,0.4723972,5.754795,30.28656)"
       id="path8984"
       style="display:inline;overflow:visible;visibility:visible;opacity:0.285714;fill:url(#linearGradient7700);fill-opacity:1;fill-rule:nonzero;stroke:none;stroke-width:4.41488;marker:none;enable-background:accumulate"
       cx="229.9375"
       cy="199.0625"
       rx="6.5084429"
       ry="3.082082" /><ellipse
       style="display:inline;overflow:visible;visibility:visible;opacity:0.620689;fill:url(#linearGradient7702);fill-opacity:1;fill-rule:nonzero;stroke:none;stroke-width:4.41488;marker:none;filter:url(#filter8906);enable-background:accumulate"
       id="path8986"
       transform="matrix(0.2750159,-0.1394397,0.5158824,1.017471,-65.3535,-69.30064)"
       cx="229.9375"
       cy="199.0625"
       rx="7.055552"
       ry="2.140048" /><path
       inkscape:connector-curvature="0"
       sodipodi:nodetypes="ccc"
       transform="matrix(0.2042516,-0.1035605,0.2395168,0.4723972,6.259901,30.64976)"
       id="path8988"
       d="m 217.0575,201.9403 c 3.7695,3.4842 26.9713,8.9112 25.255,0.8097 -3.3174,5.3233 -18.7842,1.2929 -25.255,-0.8097 z"
       style="fill:url(#radialGradient8994);fill-opacity:1;fill-rule:evenodd;stroke:none;stroke-width:4.41488;filter:url(#filter8980)" /><path
       inkscape:connector-curvature="0"
       style="fill:url(#radialGradient9004);fill-opacity:1;fill-rule:evenodd;stroke:none;stroke-width:4.41488"
       d="m 68.25,186 c 0,-0.6206 38.8462,11.8385 45.5,18.5 -5.4712,-5.3385 -33.15971,-17.6161 -37.375,-17.75 -4.21529,-0.1339 -7.625,-0.5 -8.125,-0.75 z"
       id="path8996"
       transform="matrix(0.5296484,0,0,0.5296484,-11.72226,-13.86416)"
       sodipodi:nodetypes="cczc" /><g
       id="g9018"
       transform="matrix(0.8790148,-0.1929959,0.2338341,0.6959295,-20.20953,36.72556)"
       style="stroke-width:4.41488"><ellipse
         style="display:inline;overflow:visible;visibility:visible;opacity:0.285714;fill:url(#linearGradient8912);fill-opacity:1;fill-rule:nonzero;stroke:none;stroke-width:4.41488;marker:none;enable-background:accumulate"
         id="path9006"
         transform="matrix(0.5296484,0,0,0.5296484,-84.4165,-4.727724)"
         cx="229.9375"
         cy="199.0625"
         rx="7.9375"
         ry="2.4375" /><ellipse
         transform="matrix(0.7131486,0,0,1.140781,-126.6101,-124.8917)"
         id="path9008"
         style="display:inline;overflow:visible;visibility:visible;opacity:0.620689;fill:url(#linearGradient8910);fill-opacity:1;fill-rule:nonzero;stroke:none;stroke-width:4.41488;marker:none;filter:url(#filter8906);enable-background:accumulate"
         cx="229.9375"
         cy="199.0625"
         rx="7.9375"
         ry="2.4375" /></g><path
       inkscape:connector-curvature="0"
       style="opacity:0.615763;fill:url(#radialGradient9046);fill-opacity:1;fill-rule:evenodd;stroke:none;stroke-width:4.41488;filter:url(#filter9068)"
       d="m 80.5,220.0625 c 0,0 2.10339,5.6508 7.875,5.9375 5.83887,0.2901 12.5032,-7.007 13.0625,-9.625 -1,2.25 -6.59033,9.0333 -13.8125,8.9375 -4.09986,-0.054 -7.125,-5.25 -7.125,-5.25 z"
       id="path9038"
       transform="matrix(0.5296484,0,0,0.5296484,-11.62295,-14.42691)"
       sodipodi:nodetypes="czczc" /><path
       inkscape:label="top_inner_highlight"
       d="m 63.400391,10.207031 c -3.097253,0 -6.109664,1.119729 -8.257813,3.310547 L 13.943359,55.716797 a 1.4566767,1.4566767 0 0 1 -0.01367,0.01172 c -3.76575,3.765749 -4.6833689,6.246568 -4.4511724,7.638672 0.1160983,0.696051 0.4806181,1.290406 1.2089844,1.923828 0.728366,0.633421 1.814295,1.24767 3.138672,1.802734 2.648753,1.110128 6.210573,1.990179 9.710937,2.949219 3.500365,0.95904 6.941314,1.97644 9.542969,3.626953 a 1.4566767,1.4566767 0 0 1 0.01563,0.0098 c 0.396545,0.258215 0.759265,0.573102 1.021485,1.027343 0.262219,0.454242 0.363058,1.063946 0.259765,1.570313 -0.206586,1.012733 -0.840862,1.534685 -1.476562,2.019531 -1.2714,0.969692 -3.033992,1.772502 -4.789063,2.625 -1.755071,0.852498 -3.491971,1.748572 -4.371094,2.462891 -0.439561,0.357159 -0.599989,0.660243 -0.59375,0.638672 0.0062,-0.02157 -0.128773,-0.26354 0.08203,-0.05273 a 1.4566767,1.4566767 0 0 1 0.01367,0.01367 c 0.552307,0.567649 2.265324,1.519499 4.458984,2.388672 2.19366,0.869173 4.886021,1.748066 7.597656,2.628906 2.711635,0.88084 5.443057,1.762523 7.765625,2.669922 2.322568,0.907399 4.214347,1.74755 5.464844,2.998047 a 1.4566767,1.4566767 0 0 1 0.01367,0.01367 c 0.622684,0.639981 1.037708,1.431817 1.130859,2.246094 0.09315,0.814276 -0.118131,1.57267 -0.429687,2.21289 -0.623114,1.280442 -1.630567,2.266702 -2.542969,3.216802 -0.912402,0.95009 -1.729901,1.86349 -2.025391,2.4707 -0.147745,0.3036 -0.168219,0.48572 -0.154297,0.60742 0.01392,0.1217 0.04495,0.26186 0.322266,0.54688 A 1.4566767,1.4566767 0 0 1 44.859375,106 c 1.192742,1.2609 3.785509,1.43202 6.722656,2.11914 1.468574,0.34356 3.020143,0.87346 4.335938,2.01172 1.315794,1.13825 2.295418,2.86411 2.714843,5.21289 a 1.4566767,1.4566767 0 0 1 0,0.002 c 0.176524,0.99495 0.706144,1.48573 1.970704,1.88086 1.264559,0.39514 3.180187,0.45519 5.296875,0.14453 4.231067,-0.62097 9.266349,-2.69051 12.164062,-5.08789 0.164413,-0.1422 0.12384,-0.11325 0.179688,-0.18554 -0.19616,-0.14054 -0.645286,-0.45652 -1.396485,-0.83204 -0.890045,-0.44492 -1.928918,-0.85252 -2.732422,-1.86914 -0.401751,-0.5083 -0.701915,-1.30018 -0.583984,-2.08398 0.117931,-0.7838 0.546903,-1.43319 1.125,-2.02734 a 1.4566767,1.4566767 0 0 1 0.0078,-0.008 c 4.745529,-4.79825 9.436641,-5.965637 12.949219,-6.896481 1.756289,-0.465422 3.197168,-0.893298 4.310547,-1.595703 1.113379,-0.702405 1.986926,-1.649783 2.720703,-3.517578 a 1.4566767,1.4566767 0 0 1 0.0039,-0.0078 c 0.08095,-0.202377 0.07823,-0.240359 -0.03125,-0.478516 -0.10948,-0.238157 -0.40273,-0.618935 -0.873047,-1.027344 -0.940635,-0.816817 -2.51049,-1.719733 -4.0625,-2.580078 -1.552011,-0.860345 -3.067708,-1.643234 -4.164063,-2.660156 -0.548177,-0.508461 -1.100392,-1.139497 -1.166016,-2.113281 -0.06562,-0.973784 0.567086,-1.867526 1.306641,-2.390625 a 1.4566767,1.4566767 0 0 1 0.0039,-0.002 c 2.74583,-1.933288 6.881493,-3.416621 11.392579,-4.980468 4.511082,-1.563848 9.375252,-3.1606 13.328122,-5.009766 3.95288,-1.849166 6.87202,-3.996138 7.79688,-6.142578 0.46243,-1.07322 0.54046,-2.154833 0.0566,-3.558594 -0.48382,-1.403761 -1.59352,-3.115002 -3.56641,-5.08789 a 1.4566767,1.4566767 0 0 1 -0.0117,-0.01172 L 72,13.558594 l -0.002,-0.002 c -2.360461,-2.225808 -5.500354,-3.34961 -8.597656,-3.34961 z m 45.939449,79.998047 c -2.64033,0.09532 -5.06585,1.304857 -6.09961,3.189453 0.29289,0.10957 0.55221,0.22058 1.01954,0.328125 1.37503,0.316434 3.31963,0.542222 5.21093,0.583985 1.89131,0.04176 3.76134,-0.113616 4.91407,-0.433594 0.51958,-0.14423 0.8073,-0.316107 0.93164,-0.40625 -0.25999,-1.079658 -0.8934,-1.846192 -1.92188,-2.414063 -1.07322,-0.59257 -2.54715,-0.90208 -4.05469,-0.847656 z m -70.509762,9.087891 c -2.090061,-0.145362 -4.72053,0.673313 -6.003906,1.705081 -0.641688,0.51588 -0.887896,0.99276 -0.91211,1.31054 -0.02421,0.31779 0.06549,0.75172 0.925782,1.47852 a 1.4566767,1.4566767 0 0 1 0.01367,0.0117 c 1.35352,1.17061 2.867771,1.05974 4.611328,0.10937 1.464512,-0.79827 2.765689,-2.29912 3.632812,-3.875 -0.588706,-0.381638 -1.308952,-0.67356 -2.267578,-0.740231 z m 61.033203,0.611328 c -0.461503,0.578513 -0.728387,1.098963 -0.755859,1.472653 -0.03738,0.5085 0.134422,0.90445 0.529297,1.27735 0.739641,0.69848 2.327091,0.98567 3.957031,0.10937 -0.0359,-0.18943 -0.0984,-0.45737 -0.34375,-0.81445 -0.50163,-0.73008 -1.65445,-1.53832 -3.386719,-2.044923 z"
       inkscape:href="#use7639"
       id="87235"
       style="fill:none;stroke:url(#radialGradient11553);stroke-width:4.43072;stroke-miterlimit:4;stroke-dasharray:none;stroke-opacity:1;filter:url(#filter9298)"
       xlink:href="#use7639"
       inkscape:original="M 63.400391 8.75 C 59.950391 8.75 56.549609 10 54.099609 12.5 L 12.900391 54.699219 C -2.6996094 70.299219 23.000781 69.000391 32.300781 74.900391 C 36.600781 77.700391 18.499219 81.3 22.199219 85 C 25.799219 88.7 43.9 92.099219 47.5 95.699219 C 51.1 99.399219 40.200781 103.3 43.800781 107 C 47.300781 110.7 55.699219 107.19961 57.199219 115.59961 C 58.299219 121.79961 72.6 118.70039 79 113.40039 C 83 110.00039 72.099219 110.00078 75.699219 106.30078 C 84.699219 97.200781 92.7 102.20078 96 93.800781 C 97.8 89.300781 82.4 86.099219 86.5 83.199219 C 96.3 76.299219 132.29922 72.799219 115.69922 56.199219 L 73 12.5 C 70.35 10 66.850391 8.75 63.400391 8.75 z M 109.28711 88.75 C 105.82461 88.875 102.30039 90.600781 101.40039 93.800781 C 101.40039 95.900781 117.70078 97.100781 116.80078 93.300781 C 116.15078 90.100781 112.74961 88.625 109.28711 88.75 z M 38.931641 97.839844 C 33.944141 97.492969 27.550391 101.22539 31.900391 104.90039 C 35.600391 108.10039 41.2 104.19922 43 99.699219 C 42.1 98.524219 40.594141 97.955469 38.931641 97.839844 z M 99.400391 98.199219 C 94.800391 102.39922 100.19922 106.80039 104.69922 103.90039 C 105.89922 103.10039 104.60039 99.199219 99.400391 98.199219 z "
       inkscape:radius="-1.456531"
       sodipodi:type="inkscape:offset" /><path
       inkscape:connector-curvature="0"
       sodipodi:nodetypes="csssssscs"
       transform="matrix(0.4883067,0,0,0.4883067,-5.810401,-7.704252)"
       id="path5897"
       d="m 95.5,172 c -5.09061,1.5019 -21.59202,7.7371 -19.25,12.5 2.2436,4.5627 40.6114,6.4013 46.5,20 2.5679,5.9301 -5.8924,10.4033 -3.75,16.5 1.6497,4.6948 14.412,16.4908 22.486,22.0678 6.333,4.3744 14.651,-3.5224 11.264,-10.0678 -5.3959,-10.4276 18.4427,-23.1991 29.25,-29 6.3052,-3.3844 -13,-20 -13,-20 0,0 -73.5,-12 -73.5,-12 z"
       style="opacity:0.325123;fill:url(#linearGradient5905);fill-opacity:1;fill-rule:evenodd;stroke:none;stroke-width:4.41488;filter:url(#filter5983-5)" /><path
       inkscape:connector-curvature="0"
       sodipodi:nodetypes="cssssssssss"
       id="path5783"
       d="m 41.74217,78.53304 c 2.23193,1.63922 6.63675,0.65053 9.28212,1.84176 6.34952,2.85921 14.15494,6.04542 12.71857,0.40455 0,0 -1.61577,1.34204 -1.61577,1.34204 0,0 -0.0315,-2.55754 -0.0315,-2.55754 0,0 -3.75198,0.91629 -3.75198,0.91629 0,0 -2.90617,-2.33276 -4.23852,-3.10199 -0.27829,-0.16067 -1.7077,1.29281 -1.7077,1.29281 0,0 -0.25697,-1.5438 -0.25697,-1.5438 -1.85737,-0.19764 -3.69616,-0.28481 -5.31515,-0.27182 -3.88094,0.0311 -6.49906,0.63774 -5.08307,1.6777 z"
       style="fill:url(#linearGradient5801);fill-opacity:1;fill-rule:evenodd;stroke:none;stroke-width:4.41488" /><path
       inkscape:connector-curvature="0"
       sodipodi:nodetypes="csssssc"
       transform="matrix(0.4883067,0,0,0.4883067,-5.810401,-7.704252)"
       id="path5803"
       d="m 182.75,187.25 c -1.7598,6.4783 21.6278,15.2799 19.875,19.75 -3.859,9.8416 -24.976,3.1375 -41.125,23.75 -2.3132,2.9525 3.25,13.5 2.5,12.25 -0.75,-1.25 -6.4649,-9.9629 -5,-14.25 4.5942,-13.4452 49.0128,-18.4575 40.875,-24.875 -4.6799,-3.6906 -21.5055,-13.8872 -17.125,-16.625 z"
       style="opacity:0.477833;fill:url(#radialGradient5811);fill-opacity:1;fill-rule:evenodd;stroke:none;stroke-width:4.41488;filter:url(#filter5845)" /><ellipse
       transform="matrix(0.4883067,0,0,0.4883067,-6.359746,-8.009444)"
       id="path6041"
       style="display:inline;overflow:visible;visibility:visible;opacity:0.586207;fill:#ffffff;fill-opacity:1;fill-rule:nonzero;stroke:none;stroke-width:4.41488;marker:none;enable-background:accumulate"
       cx="233.9375"
       cy="201.1875"
       rx="2.5625"
       ry="1.0625" /><ellipse
       style="display:inline;overflow:visible;visibility:visible;opacity:0.586207;fill:#ffffff;fill-opacity:1;fill-rule:nonzero;stroke:none;stroke-width:4.41488;marker:none;enable-background:accumulate"
       id="path6043"
       transform="matrix(0.3096579,0,0,0.4883067,27.52844,1.573576)"
       cx="233.9375"
       cy="201.1875"
       rx="2.5625"
       ry="1.0625" /><ellipse
       style="display:inline;overflow:visible;visibility:visible;opacity:0.586207;fill:#ffffff;fill-opacity:1;fill-rule:nonzero;stroke:none;stroke-width:4.41488;marker:none;enable-background:accumulate"
       id="path6045"
       transform="matrix(0.5478563,0,0,0.4883067,-92.10223,1.115795)"
       cx="233.9375"
       cy="201.1875"
       rx="2.5625"
       ry="1.0625" /><path
       inkscape:connector-curvature="0"
       sodipodi:nodetypes="ccc"
       id="path5049"
       d="m 36.67228,76.52865 c -7.15299,4.42411 -18.27403,6.03423 -6.10383,8.97264 -1.44971,-3.2281 3.13858,-2.87202 6.10383,-8.97264 z"
       style="display:inline;overflow:visible;visibility:visible;opacity:0.251232;fill:url(#linearGradient5822);fill-opacity:1;fill-rule:nonzero;stroke:none;stroke-width:9.04118;marker:none;enable-background:accumulate" /><path
       inkscape:connector-curvature="0"
       style="color:#000000;display:inline;overflow:visible;visibility:visible;opacity:0.363158;fill:url(#linearGradient1030);fill-opacity:1;fill-rule:nonzero;stroke:none;stroke-width:8.82974;marker:none;filter:url(#filter10997-7);enable-background:accumulate"
       d="m 8.83428,171.6472 c 0,0 22.59178,-2.1279 27.81802,-8.6464 3.05755,-3.8136 -12.15146,-8.2638 -8.86827,-12 12.35008,-14.0541 22.73076,-13.4673 37.05025,-19.3536 14.31949,-5.8862 9.03544,-8.769 4.40381,-11.3535 -7.9325,-4.4264 -25.58722,-9.1424 -19.74696,-19.6465 5.87688,-10.56993 57.34317,-25.24999 57.34317,-25.24999 15.5962,-5.32843 13.6391,-14.96447 6,-23 L 66.83428,6.647214 c 0,0 2.28296,43.388646 -7,61.999996 -11.4715,22.99914 -72.54408,48.66179 -47,51.49999 9,1 13.32065,4.0705 17,11 7.57631,14.2688 -21,40.5 -21,40.5 z"
       id="path10207"
       sodipodi:nodetypes="csszsscccsssc"
       transform="matrix(0.4883067,0,0,0.4883067,57.7504,32.99748)" /></g><g
     aria-label="Draw Freely."
     id="text8459"
     style="font-size:3.52778px;line-height:1.25;font-family:'Century Gothic';-inkscape-font-specification:'Century Gothic';letter-spacing:0px;word-spacing:0px;stroke-width:0.264583"
     inkscape:label="tagline"><path
       d="m 1.4460006,5.0529058 c 0.033867,0 0.059267,-0.016933 0.070556,-0.056444 -0.016933,0 -0.0254,-0.019755 -0.0254,-0.059267 0,-0.095956 0.039511,-0.2032001 0.1241779,-0.3160891 0.163689,-0.2201334 0.4092224,-0.3302002 0.7366004,-0.3302002 0.2596447,0 0.4515559,0.095956 0.5757337,0.2850446 0.090311,0.1411112 0.138289,0.3160891 0.138289,0.5192893 0,0.093133 -0.011289,0.1919112 -0.028222,0.2935113 C 2.9812905,5.710484 2.8599349,5.987062 2.6736681,6.2241288 2.4648235,6.4894178 2.2305789,6.6192402 1.9737565,6.6192402 c -0.2286001,0 -0.3725336,-0.062089 -0.4318003,-0.1919113 -0.019756,-0.039511 -0.028222,-0.084667 -0.028222,-0.1354667 0,-0.047978 0.014111,-0.1016001 0.045156,-0.1608668 0.045156,-0.081844 0.1016,-0.1241779 0.1665112,-0.1241779 0.00847,0 0.014111,-0.00564 0.019756,-0.016933 0.00564,-0.011289 0.00564,-0.019756 0.00282,-0.031044 -0.00282,-0.011289 -0.00847,-0.016933 -0.016933,-0.016933 -0.1072445,0 -0.1919112,0.062089 -0.2540001,0.1806223 -0.033867,0.067733 -0.047978,0.1298223 -0.047978,0.189089 0,0.059267 0.011289,0.1157112 0.036689,0.1665113 0.079022,0.1693334 0.2709335,0.2511779 0.5700892,0.2511779 0.2991558,0 0.5644449,-0.1270001 0.7902228,-0.3866447 0.2032001,-0.2314224 0.3330224,-0.516467 0.3894669,-0.8523117 0.014111,-0.098778 0.022578,-0.1947334 0.022578,-0.2850446 0,-0.2173112 -0.047978,-0.4092225 -0.138289,-0.5785559 C 2.9446016,4.3558165 2.6962459,4.2175275 2.3547568,4.2175275 l -0.1552224,0.00847 c -0.3019779,0.033867 -0.5362225,0.1495778 -0.705556,0.352778 -0.1016,0.1213556 -0.1524001,0.2314223 -0.1524001,0.327378 0,0.098778 0.033867,0.1467556 0.1044223,0.1467556 z m 0.4064003,1.0696229 c 0,0.1524001 0.028222,0.2257779 0.084667,0.2257779 0.0254,0 0.039511,-0.011289 0.039511,-0.036689 0,-0.2370668 0.059267,-0.6208893 0.1778002,-1.1542896 0.062089,-0.2906891 0.1382889,-0.5249337 0.2229557,-0.6999116 0,-0.028222 -0.016933,-0.045155 -0.045156,-0.045155 -0.070556,0 -0.1439335,0.079022 -0.2173113,0.2370668 -0.073378,0.1580445 -0.1354667,0.3697113 -0.1862668,0.6406448 -0.0508,0.2709335 -0.0762,0.5475115 -0.0762,0.8325561 z"
       style="font-family:'Euphoria Script';-inkscape-font-specification:'Euphoria Script';fill:#d55500"
       id="path10142" /><path
       d="m 4.3359594,5.5919506 c 0.00847,0 0.014111,-0.00564 0.014111,-0.022578 0,-0.1157112 0.014111,-0.2229557 0.047978,-0.3217335 0.031044,-0.098778 0.056444,-0.1608668 0.0762,-0.189089 0.016933,-0.0254 0.033867,-0.045156 0.047978,-0.059267 0,-0.016933 -0.00847,-0.031045 -0.019756,-0.042333 -0.011289,-0.011289 -0.028222,-0.016933 -0.045155,-0.016933 -0.087489,0 -0.1834446,0.056444 -0.2878669,0.1693335 C 3.9831814,5.306906 3.8166702,5.5834839 3.6642701,5.9334397 h -0.019756 c 0.036689,-0.2878668 0.098778,-0.567267 0.1862668,-0.843845 0,-0.039511 -0.019756,-0.062089 -0.053622,-0.062089 -0.081844,0 -0.1495779,0.1157112 -0.2060224,0.3414891 C 3.5146922,5.597595 3.48647,5.8515952 3.48647,6.1309954 c 0,0.1495779 0.0254,0.2229557 0.081844,0.2229557 0.028222,0 0.045156,-0.011289 0.045156,-0.033867 0,-0.090311 0.079022,-0.2878668 0.2370668,-0.5898448 0.1580445,-0.301978 0.2991557,-0.5080003 0.428978,-0.6208893 -0.033867,0.079022 -0.0508,0.1608668 -0.0508,0.2483557 0,0.1580446 0.033867,0.2342446 0.1072445,0.2342446 z"
       style="font-family:'Euphoria Script';-inkscape-font-specification:'Euphoria Script';fill:#d55500"
       id="path10144" /><path
       d="m 4.7564718,6.4019289 c 0.1185334,0 0.2991558,-0.2032001 0.5390448,-0.6124226 h 0.028222 c -0.022578,0.1298223 -0.031045,0.265289 -0.031045,0.4064002 0,0.1411112 0.019756,0.2652891 0.062089,0.3668892 0.042333,0.1044223 0.1044223,0.1552223 0.1834446,0.1552223 0.033867,0 0.064911,-0.019756 0.095956,-0.059267 0.031045,-0.039511 0.0508,-0.070556 0.062089,-0.093133 0.00847,-0.022578 0.014111,-0.042333 0.019756,-0.056445 0.00282,-0.011289 0.00282,-0.022578 0,-0.028222 -0.00564,-0.00564 -0.011289,-0.00847 -0.016933,-0.00847 -0.022578,0 -0.033867,0.011289 -0.039511,0.031045 -0.016933,0.039511 -0.033867,0.070556 -0.0508,0.090311 -0.019756,0.019756 -0.039511,0.028222 -0.062089,0.028222 -0.059267,0 -0.087489,-0.095956 -0.087489,-0.2906891 0,-0.1919112 0.019756,-0.3866447 0.064911,-0.5842004 0.042333,-0.1947334 0.0762,-0.3245557 0.1044223,-0.3922891 0.0254,-0.064911 0.047978,-0.1157112 0.064911,-0.1524001 0,-0.042333 -0.019756,-0.064911 -0.053622,-0.064911 -0.067733,0 -0.1354668,0.067733 -0.1975557,0.2032002 C 5.36325,5.4931728 5.2644722,5.6737951 5.1402943,5.8798175 5.0669165,6.0011731 4.9991831,6.1027732 4.9342719,6.1817954 4.8693608,6.2608177 4.8185608,6.3003288 4.7846941,6.3003288 c -0.045156,0 -0.067733,-0.056444 -0.067733,-0.1693334 0,-0.2229557 0.056445,-0.4628447 0.1693334,-0.7168449 0.098778,-0.2201335 0.2088446,-0.3302002 0.3330225,-0.3302002 0.0254,0 0.047978,0.011289 0.070556,0.028222 0.019756,0.016933 0.033867,0.031045 0.039511,0.042333 0.00564,0.011289 0.00847,0.022578 0.014111,0.036689 0.00564,0.014111 0.022578,0.019756 0.053622,0.019756 0.0254,0 0.042333,-0.014111 0.047978,-0.047978 l -0.016933,-0.036689 c -0.011289,-0.0254 -0.033867,-0.0508 -0.067733,-0.079022 -0.033867,-0.0254 -0.081844,-0.039511 -0.1411112,-0.039511 -0.062089,0 -0.1270001,0.019756 -0.1947335,0.056444 C 4.8608941,5.1545059 4.7310718,5.3181949 4.632294,5.5609061 4.5589161,5.735884 4.5250495,5.8939286 4.5250495,6.037862 c 0,0.2427113 0.0762,0.3640669 0.2314223,0.3640669 z"
       style="font-family:'Euphoria Script';-inkscape-font-specification:'Euphoria Script';fill:#d55500"
       id="path10146" /><path
       d="m 7.3980752,5.1234614 c -0.011289,-0.079022 -0.028222,-0.1524001 -0.056445,-0.214489 -0.028222,-0.062089 -0.062089,-0.095956 -0.095956,-0.095956 -0.028222,0 -0.056444,0.011289 -0.079022,0.033867 -0.0254,0.022578 -0.036689,0.047978 -0.036689,0.0762 0,0.028222 0.016933,0.067733 0.0508,0.1213556 0.033867,0.056445 0.0762,0.1016001 0.1326445,0.1411112 v 0.016933 c 0,0.1749779 -0.0254,0.352778 -0.0762,0.5334003 C 7.1864084,5.9165064 7.1243195,6.0604398 7.0509417,6.1733288 6.9775638,6.2862177 6.9070082,6.33984 6.8392749,6.33984 c -0.062089,0 -0.090311,-0.0508 -0.090311,-0.1552223 0,-0.2201335 0.056444,-0.5277559 0.1721556,-0.9228673 0,-0.039511 -0.022578,-0.059267 -0.062089,-0.059267 -0.042333,0 -0.090311,0.053622 -0.1411112,0.1580445 L 6.5965636,5.5947728 C 6.5175413,5.7528174 6.4244079,5.9108619 6.3199856,6.0689065 6.2155633,6.226951 6.1393633,6.3059733 6.0913855,6.3059733 c -0.039511,0 -0.059267,-0.042333 -0.059267,-0.1326445 0,-0.090311 0.0254,-0.2286002 0.081844,-0.4176892 0.056445,-0.1862668 0.1016,-0.3245558 0.1354667,-0.4092225 0.033867,-0.084667 0.062089,-0.1552223 0.084667,-0.2116668 0,-0.039511 -0.019755,-0.059267 -0.053622,-0.059267 -0.0762,0.011289 -0.1580446,0.112889 -0.2483557,0.3104446 C 5.9248743,5.634284 5.871252,5.8685286 5.871252,6.0858398 c 0,0.2116668 0.062089,0.3160891 0.1862668,0.3160891 0.1241778,0 0.3048002,-0.2088446 0.5390448,-0.6265337 -0.011289,0.090311 -0.014111,0.1721556 -0.014111,0.2483557 0,0.1354667 0.022578,0.239889 0.070556,0.3132668 0.045155,0.067733 0.1100667,0.098778 0.1947334,0.098778 0.084667,0 0.1693335,-0.062089 0.2568224,-0.1862668 0.084667,-0.1241779 0.1552223,-0.2794002 0.2116668,-0.465667 0.053622,-0.1862668 0.081844,-0.3668891 0.087489,-0.5446892 0.045155,0.019756 0.090311,0.028222 0.1298223,0.028222 0.039511,0 0.070556,-0.00847 0.093133,-0.031044 0.022578,-0.022578 0.033867,-0.045156 0.033867,-0.070556 -0.022578,0.014111 -0.056444,0.019756 -0.1072445,0.019756 -0.0508,0 -0.1016,-0.019756 -0.1552223,-0.062089 z"
       style="font-family:'Euphoria Script';-inkscape-font-specification:'Euphoria Script';fill:#d55500"
       id="path10148" /><path
       d="m 8.8910341,4.9569502 c 0,-0.1016001 0.033867,-0.2003779 0.1044223,-0.301978 C 9.1393898,4.4433054 9.39339,4.3360609 9.7546347,4.3360609 c 0.062089,0 0.1100667,0 0.1411112,-0.00282 -0.059267,0.062089 -0.1100668,0.1495779 -0.1524001,0.265289 -0.045156,0.1157112 -0.090311,0.2652891 -0.1354668,0.4487337 -0.1072445,0.011289 -0.1862668,0.014111 -0.2370668,0.014111 -0.0508,0 -0.079022,-0.00564 -0.087489,-0.016933 -0.022578,0.00564 -0.033867,0.028222 -0.031045,0.064911 0.00564,0.047978 0.036689,0.070556 0.090311,0.070556 0.053622,0 0.1326445,-0.00847 0.239889,-0.0254 -0.00847,0.031044 -0.028222,0.1213556 -0.062089,0.2709335 C 9.4865234,5.5750173 9.44419,5.735884 9.3962122,5.9108619 9.3538789,6.0547953 9.31719,6.1535732 9.2861455,6.2100177 9.2522788,6.2664621 9.2127677,6.3341955 9.1619676,6.41604 9.1111676,6.4978845 9.0575453,6.554329 8.9954564,6.5853735 8.9333675,6.6164179 8.876923,6.630529 8.8233007,6.630529 c -0.056444,0 -0.098778,-0.00282 -0.1326445,-0.014111 -0.1439334,-0.045156 -0.214489,-0.1693334 -0.214489,-0.3725335 0,-0.138289 0.039511,-0.2737558 0.1241778,-0.4035781 0.1044223,-0.1665112 0.2370669,-0.2511779 0.4007559,-0.2511779 -0.00564,-0.022578 -0.016933,-0.039511 -0.033867,-0.0508 -0.016933,-0.011289 -0.036689,-0.016933 -0.059267,-0.016933 -0.1721557,0 -0.3104447,0.1016001 -0.414867,0.301978 -0.070556,0.1326445 -0.1044223,0.265289 -0.1044223,0.3951113 0,0.070556 0.00847,0.1411112 0.031045,0.2088446 0.053622,0.2032001 0.1919112,0.301978 0.4120447,0.301978 0.3048002,0 0.541867,-0.2286002 0.7083783,-0.6858005 0.064911,-0.1806223 0.1411112,-0.4882447 0.2314223,-0.9256894 0.1157112,-0.016933 0.189089,-0.028222 0.2229557,-0.028222 0.031044,0 0.0508,-0.014111 0.059266,-0.036689 0,-0.019756 -0.0056,-0.031044 -0.02258,-0.031044 -0.064911,0 -0.146756,0.00564 -0.2427116,0.014111 0.045156,-0.2201335 0.087489,-0.389467 0.1298223,-0.5080004 0.039511,-0.1185334 0.093133,-0.189089 0.1552223,-0.2173112 0.07338,-0.014111 0.141111,-0.033867 0.2032,-0.062089 0.09878,-0.045156 0.155222,-0.095956 0.169334,-0.1495779 v -0.016933 c 0,-0.022578 -0.01976,-0.033867 -0.05645,-0.033867 -0.03951,0 -0.09596,0.036689 -0.174978,0.1100668 -0.03104,0.028222 -0.08749,0.053622 -0.166511,0.0762 -0.081844,0.022578 -0.1806224,0.033867 -0.2935113,0.033867 -0.112889,0 -0.2201335,0.011289 -0.3189113,0.028222 -0.2935113,0.059267 -0.4938892,0.1919112 -0.603956,0.3951113 -0.0508,0.090311 -0.073378,0.1665112 -0.073378,0.2286002 0,0.062089 0.00564,0.1157112 0.022578,0.1580445 0.031044,0.095956 0.084667,0.1411112 0.163689,0.1411112 0.036689,0 0.059267,-0.011289 0.064911,-0.039511 -0.079022,-0.00847 -0.1185334,-0.081844 -0.1185334,-0.2229557 z m 1.2417789,0.5785559 c 0,-0.073378 0.0056,-0.1467556 0.02258,-0.2173112 0.03669,-0.1665113 0.09878,-0.2935113 0.183445,-0.3781781 0,-0.022578 -0.0085,-0.039511 -0.01976,-0.053622 -0.01411,-0.011289 -0.03104,-0.019756 -0.04798,-0.019756 -0.07338,0 -0.129823,0.059267 -0.172156,0.1778001 -0.04516,0.1185334 -0.06491,0.2709335 -0.06491,0.4628448 0,0.014111 0.0056,0.0254 0.02258,0.031044 0.01693,0.00847 0.03387,0.011289 0.0508,0.011289 0.01693,0 0.0254,-0.00282 0.0254,-0.014111 z"
       style="font-family:'Euphoria Script';-inkscape-font-specification:'Euphoria Script';fill:#d55500"
       id="path10150" /><path
       d="m 11.213727,5.5919506 c 0.0085,0 0.01411,-0.00564 0.01411,-0.022578 0,-0.1157112 0.01411,-0.2229557 0.04798,-0.3217335 0.03104,-0.098778 0.05645,-0.1608668 0.0762,-0.189089 0.01693,-0.0254 0.03387,-0.045156 0.04798,-0.059267 0,-0.016933 -0.0085,-0.031045 -0.01976,-0.042333 -0.01129,-0.011289 -0.02822,-0.016933 -0.04516,-0.016933 -0.08749,0 -0.183445,0.056444 -0.287867,0.1693335 -0.186267,0.1975557 -0.352778,0.4741336 -0.505178,0.8240894 h -0.01976 c 0.03669,-0.2878668 0.09878,-0.567267 0.186267,-0.843845 0,-0.039511 -0.01975,-0.062089 -0.05362,-0.062089 -0.08185,0 -0.149578,0.1157112 -0.206022,0.3414891 -0.05645,0.2286001 -0.08467,0.4826003 -0.08467,0.7620005 0,0.1495779 0.0254,0.2229557 0.08184,0.2229557 0.02822,0 0.04516,-0.011289 0.04516,-0.033867 0,-0.090311 0.07902,-0.2878668 0.237067,-0.5898448 0.158044,-0.301978 0.299155,-0.5080003 0.428978,-0.6208893 -0.03387,0.079022 -0.0508,0.1608668 -0.0508,0.2483557 0,0.1580446 0.03387,0.2342446 0.107244,0.2342446 z"
       style="font-family:'Euphoria Script';-inkscape-font-specification:'Euphoria Script';fill:#d55500"
       id="path10152" /><path
       d="m 12.133773,5.0331502 c -0.09313,0 -0.183445,0.028222 -0.270933,0.079022 -0.163689,0.1016001 -0.29069,0.2624668 -0.381001,0.4882448 -0.05927,0.1495778 -0.08749,0.2878668 -0.08749,0.4120447 0,0.067733 0.0085,0.1354667 0.0254,0.1975557 0.05362,0.189089 0.180623,0.2822224 0.381001,0.2822224 0.0508,0 0.09878,-0.011289 0.149577,-0.033867 0.0508,-0.022578 0.09031,-0.0508 0.121356,-0.079022 0.03105,-0.028222 0.06491,-0.067733 0.1016,-0.1185334 0.03669,-0.047978 0.05927,-0.081844 0.06491,-0.1044223 0,-0.011289 -0.01411,-0.016933 -0.04798,-0.016933 -0.02258,0 -0.03669,0.00847 -0.04233,0.022578 -0.03387,0.056444 -0.07338,0.1044222 -0.121355,0.1495778 -0.0254,0.022578 -0.05645,0.042333 -0.09031,0.059267 -0.03669,0.016933 -0.07055,0.022578 -0.1016,0.022578 -0.03387,0 -0.05927,-0.00282 -0.07902,-0.011289 -0.107244,-0.036689 -0.160867,-0.1495778 -0.160867,-0.3386669 0,-0.2201334 0.05645,-0.4374447 0.172156,-0.6491115 0.107244,-0.1919112 0.222956,-0.2906891 0.347133,-0.2906891 0.06209,0 0.09313,0.039511 0.09313,0.1157112 0,0.1044223 -0.04516,0.2173113 -0.135467,0.3414891 -0.112889,0.1552224 -0.234244,0.2314224 -0.366889,0.2314224 0.0085,0.019756 0.02258,0.033867 0.04233,0.042333 0.01693,0.011289 0.04233,0.014111 0.07056,0.014111 0.180622,0 0.324556,-0.087489 0.434622,-0.2624668 0.06209,-0.1044223 0.09596,-0.2060224 0.09596,-0.301978 0,-0.1665112 -0.07338,-0.251178 -0.214489,-0.251178 z"
       style="font-family:'Euphoria Script';-inkscape-font-specification:'Euphoria Script';fill:#d55500"
       id="path10154" /><path
       d="m 13.231615,5.0331502 c -0.09313,0 -0.183444,0.028222 -0.270933,0.079022 -0.163689,0.1016001 -0.290689,0.2624668 -0.381,0.4882448 -0.05927,0.1495778 -0.08749,0.2878668 -0.08749,0.4120447 0,0.067733 0.0085,0.1354667 0.0254,0.1975557 0.05362,0.189089 0.180622,0.2822224 0.381,0.2822224 0.0508,0 0.09878,-0.011289 0.149578,-0.033867 0.0508,-0.022578 0.09031,-0.0508 0.121355,-0.079022 0.03105,-0.028222 0.06491,-0.067733 0.1016,-0.1185334 0.03669,-0.047978 0.05927,-0.081844 0.06491,-0.1044223 0,-0.011289 -0.01411,-0.016933 -0.04798,-0.016933 -0.02258,0 -0.03669,0.00847 -0.04233,0.022578 -0.03387,0.056444 -0.07338,0.1044222 -0.121355,0.1495778 -0.0254,0.022578 -0.05645,0.042333 -0.09031,0.059267 -0.03669,0.016933 -0.07056,0.022578 -0.1016,0.022578 -0.03387,0 -0.05927,-0.00282 -0.07902,-0.011289 -0.107244,-0.036689 -0.160867,-0.1495778 -0.160867,-0.3386669 0,-0.2201334 0.05645,-0.4374447 0.172156,-0.6491115 0.107245,-0.1919112 0.222956,-0.2906891 0.347134,-0.2906891 0.06209,0 0.09313,0.039511 0.09313,0.1157112 0,0.1044223 -0.04515,0.2173113 -0.135467,0.3414891 -0.112889,0.1552224 -0.234244,0.2314224 -0.366889,0.2314224 0.0085,0.019756 0.02258,0.033867 0.04233,0.042333 0.01693,0.011289 0.04233,0.014111 0.07056,0.014111 0.180623,0 0.324556,-0.087489 0.434623,-0.2624668 0.06209,-0.1044223 0.09596,-0.2060224 0.09596,-0.301978 0,-0.1665112 -0.07338,-0.251178 -0.214489,-0.251178 z"
       style="font-family:'Euphoria Script';-inkscape-font-specification:'Euphoria Script';fill:#d55500"
       id="path10156" /><path
       d="m 14.007724,6.8139736 c 0.0762,0 0.143933,-0.042333 0.200378,-0.1326445 0.0254,-0.039511 0.04233,-0.067733 0.05362,-0.087489 0.01129,-0.016933 0.01693,-0.033867 0.02258,-0.045156 0.0056,-0.011289 0.0028,-0.019756 -0.0056,-0.0254 -0.0254,-0.00847 -0.04233,-0.00282 -0.0508,0.016933 -0.01693,0.039511 -0.04515,0.081844 -0.08467,0.1213556 -0.03951,0.039511 -0.08184,0.059267 -0.124178,0.059267 -0.0508,0 -0.09313,-0.039511 -0.121356,-0.1185334 -0.02822,-0.079022 -0.04233,-0.1947335 -0.04233,-0.3414891 0,-0.1467557 0.01411,-0.3245558 0.04798,-0.5334003 0.03387,-0.2060224 0.07056,-0.3866447 0.110066,-0.5418671 0.03951,-0.1524001 0.09031,-0.3217335 0.1524,-0.5023558 0.05927,-0.1806224 0.110067,-0.3189114 0.149578,-0.4092225 0,-0.036689 -0.01693,-0.056444 -0.04798,-0.056444 -0.06773,0 -0.149578,0.1044223 -0.239889,0.3104446 -0.09031,0.2088446 -0.169334,0.4684892 -0.237067,0.7817561 -0.06773,0.3160891 -0.1016,0.5870226 -0.1016,0.8156227 0,0.2314224 0.0254,0.4035781 0.0762,0.516467 0.0508,0.1157112 0.132644,0.1721557 0.242711,0.1721557 z"
       style="font-family:'Euphoria Script';-inkscape-font-specification:'Euphoria Script';fill:#d55500"
       id="path10158" /><path
       d="m 14.411301,7.285285 c -0.124178,0 -0.2032,-0.036689 -0.237067,-0.1157112 -0.01129,-0.014111 -0.0254,-0.019756 -0.04516,-0.016933 -0.01975,0.00282 -0.02822,0.00847 -0.02822,0.019756 0,0.00564 0,0.00847 0.0028,0.014111 0.0508,0.1100667 0.1524,0.163689 0.307623,0.163689 0.3556,0 0.606778,-0.2709335 0.753534,-0.818445 0.04515,0.011289 0.08184,0.031044 0.110066,0.053622 0.02822,0.0254 0.04516,0.047978 0.05645,0.070556 0.01129,0.022578 0.01693,0.0508 0.01975,0.084667 0,0.033867 0,0.056444 -0.0028,0.067733 0.01693,0 0.03669,-0.00847 0.05927,-0.031045 0.02258,-0.022578 0.03387,-0.047978 0.03387,-0.0762 0,-0.028222 -0.0028,-0.053622 -0.0056,-0.070556 -0.02258,-0.098778 -0.107244,-0.1608667 -0.248356,-0.1862667 0.02258,-0.1016001 0.04798,-0.2455335 0.08184,-0.4289781 0.03104,-0.1834446 0.07338,-0.3668891 0.124178,-0.5475115 0.0508,-0.1806223 0.09313,-0.3019779 0.129822,-0.3697113 0,-0.042333 -0.01975,-0.064911 -0.05927,-0.064911 -0.06209,0 -0.121355,0.059267 -0.174978,0.1721557 -0.127,0.276578 -0.276577,0.5475115 -0.445911,0.8128005 -0.118533,0.1834446 -0.2032,0.2737558 -0.254,0.2737558 -0.04516,0 -0.06773,-0.0508 -0.06773,-0.1552224 0,-0.1044222 0.0254,-0.2511779 0.07902,-0.4374447 0.0508,-0.1862668 0.09313,-0.3217335 0.127,-0.403578 0.03104,-0.081844 0.05644,-0.1495779 0.07902,-0.2003779 0,-0.039511 -0.01693,-0.062089 -0.04798,-0.062089 l -0.01693,0.00282 c -0.07902,0.016933 -0.163689,0.1382889 -0.256822,0.3612446 -0.09596,0.2229557 -0.141112,0.4430892 -0.141112,0.6632227 0,0.2201335 0.07056,0.3302002 0.214489,0.3302002 0.127001,0 0.313267,-0.2173112 0.558801,-0.6519337 h 0.0254 c -0.0254,0.1185334 -0.04798,0.2427112 -0.06491,0.3668891 -0.01976,0.1270001 -0.03951,0.2370668 -0.05927,0.3302002 -0.208845,0.00847 -0.383822,0.056445 -0.527756,0.1411112 -0.146756,0.084667 -0.259645,0.189089 -0.338667,0.3104446 -0.0056,0.011289 -0.0028,0.022578 0.01129,0.028222 0.02258,0.011289 0.04233,0.00847 0.05362,-0.00847 0.180623,-0.2511779 0.44309,-0.3810002 0.784579,-0.3894669 -0.04516,0.2116668 -0.110067,0.3866447 -0.191912,0.5277559 -0.09596,0.1608668 -0.2286,0.239889 -0.397933,0.239889 z"
       style="font-family:'Euphoria Script';-inkscape-font-specification:'Euphoria Script';fill:#d55500"
       id="path10160" /><path
       d="m 15.867567,6.4216845 0.03387,-0.047978 c 0.06773,-0.1016001 0.104422,-0.1721557 0.104422,-0.2173113 0,-0.042333 -0.01976,-0.064911 -0.05644,-0.064911 -0.04516,0 -0.08185,0.0254 -0.104422,0.0762 -0.0254,0.0508 -0.03669,0.098778 -0.03669,0.1439334 0,0.073378 0.01975,0.1100668 0.05927,0.1100668 z"
       style="font-family:'Euphoria Script';-inkscape-font-specification:'Euphoria Script';fill:#d55500"
       id="path10162" /></g><g
     aria-label="INKSCAPE"
     id="text9728"
     style="font-size:3.175px;line-height:1.25;font-family:'Century Gothic';-inkscape-font-specification:'Century Gothic';letter-spacing:0px;word-spacing:0px;stroke-width:0.264583"
     inkscape:label="inkscape"><path
       d="m 1.4931929,2.8396571 c -0.00635,-0.26035 -0.00953,-0.4064 -0.00953,-0.669925 0,-0.263525 0,-0.4191 0.00953,-0.6857999 0.00635,-0.263525 0.0508,-0.27305 0.27305,-0.288925 0.01905,-0.01905 0.01905,-0.053975 0,-0.073025 -0.117475,0.00635 -0.314325,0.015875 -0.409575,0.015875 -0.09525,0 -0.31115,-0.00953 -0.41275,-0.015875 -0.01905,0.01905 -0.01905,0.053975 0,0.073025 0.22225,0.01905 0.27305,0.0254 0.2794,0.288925 0.00635,0.2635249 0.00953,0.4190999 0.00953,0.6826249 0,0.263525 -0.00318,0.409575 -0.00953,0.6731 -0.00635,0.263525 -0.05715,0.2794 -0.2794,0.288925 -0.01905,0.01905 -0.01905,0.053975 0,0.073025 0.123825,-0.00635 0.3175,-0.015875 0.41275,-0.015875 0.09525,0 0.2794,0.00635 0.409575,0.015875 0.01905,-0.01905 0.01905,-0.053975 0,-0.073025 -0.22225,-0.00953 -0.2667,-0.0254 -0.27305,-0.288925 z"
       style="font-family:'Linux Libertine Display O';-inkscape-font-specification:'Linux Libertine Display O'"
       id="path10116" /><path
       d="m 3.6807667,1.5188572 0.00318,1.1017249 c 0,0.060325 -0.015875,0.09525 -0.0381,0.09525 -0.0254,0 -0.060325,-0.05715 -0.1524,-0.174625 L 2.4044168,1.1378572 1.9948418,1.1315072 c -0.01905,0.01905 -0.01905,0.053975 0,0.073025 0.1524,0.00953 0.231775,0.111125 0.2667,0.23495 l -0.00317,1.3652499 c 0,0.282575 -0.053975,0.301625 -0.276225,0.32385 -0.01905,0.01905 -0.01905,0.053975 0,0.073025 0.155575,-0.00318 0.20955,-0.015875 0.3429,-0.015875 0.13335,0 0.180975,0.0127 0.339725,0.015875 0.01905,-0.01905 0.01905,-0.053975 0,-0.073025 -0.22225,-0.022225 -0.276225,-0.034925 -0.276225,-0.32385 l -0.00318,-1.012825 c 0,-0.10795 0.015875,-0.155575 0.041275,-0.155575 0.01905,0 0.053975,0.034925 0.10795,0.104775 l 1.1080749,1.400175 c 0.034925,0.047625 0.0762,0.0762 0.127,0.0762 0.04445,0 0.0381,-0.0381 0.0381,-0.098425 l 0.00317,-1.6001999 c 0,-0.282575 0.053975,-0.301625 0.276225,-0.32385 0.01905,-0.01905 0.01905,-0.053975 0,-0.073025 -0.155575,0.00318 -0.20955,0.015875 -0.3429,0.015875 -0.13335,0 -0.180975,-0.0127 -0.339725,-0.015875 -0.01905,0.01905 -0.01905,0.053975 0,0.073025 0.22225,0.022225 0.276225,0.034925 0.276225,0.32385 z"
       style="font-family:'Linux Libertine Display O';-inkscape-font-specification:'Linux Libertine Display O'"
       id="path10118" /><path
       d="m 4.8205941,2.8396571 c -0.00635,-0.254 -0.00953,-0.40005 -0.00953,-0.650875 0.111125,0.00318 0.22225,0.053975 0.288925,0.136525 l 0.4984749,0.62865 c 0.0635,0.08255 0.10795,0.1778 0.1143,0.2286 0,0.00953 0.00318,0.01905 0.015875,0.01905 0.0635,-0.00318 0.05715,-0.015875 0.1524,-0.015875 0.123825,0 0.2032,0.0127 0.352425,0.015875 0.01905,-0.01905 0.01905,-0.053975 0,-0.073025 -0.05715,-0.00953 -0.2032,-0.041275 -0.31115,-0.174625 l -0.695325,-0.8255 c -0.0254,-0.028575 -0.041275,-0.053975 -0.041275,-0.079375 0,-0.022225 0.00317,-0.04445 0.1111249,-0.155575 L 5.763569,1.4140822 c 0.14605,-0.155575 0.3048,-0.2032 0.4318,-0.219075 0.01905,-0.01905 0.01905,-0.053975 0,-0.073025 -0.149225,0.00318 -0.206375,0.015875 -0.333375,0.015875 -0.127,0 -0.225425,-0.0127 -0.37465,-0.015875 -0.01905,0.01905 -0.01905,0.053975 0,0.073025 0.1143,0.00953 0.250825,0.0635 0.12065,0.206375 L 5.0999941,1.9601821 c -0.066675,0.073025 -0.17145,0.130175 -0.288925,0.1397 0,-0.22225 0.00317,-0.37465 0.00953,-0.6159499 0.00635,-0.263525 0.053975,-0.2794 0.276225,-0.288925 0.01905,-0.01905 0.01905,-0.053975 0,-0.073025 -0.155575,0.00318 -0.254,0.015875 -0.415925,0.015875 -0.15875,0 -0.24765,-0.0127 -0.4064,-0.015875 -0.01905,0.01905 -0.01905,0.053975 0,0.073025 0.22225,0.00953 0.2667,0.0254 0.27305,0.288925 0.00635,0.2635249 0.0127,0.4190999 0.0127,0.6826249 0,0.263525 -0.00635,0.409575 -0.0127,0.6731 -0.00635,0.263525 -0.0508,0.2794 -0.27305,0.288925 -0.01905,0.01905 -0.01905,0.053975 0,0.073025 0.155575,-0.00318 0.250825,-0.015875 0.41275,-0.015875 0.15875,0 0.250825,0.0127 0.409575,0.015875 0.01905,-0.01905 0.01905,-0.053975 0,-0.073025 -0.22225,-0.00953 -0.269875,-0.0254 -0.276225,-0.288925 z"
       style="font-family:'Linux Libertine Display O';-inkscape-font-specification:'Linux Libertine Display O'"
       id="path10120" /><path
       d="m 7.5129938,1.1823072 c -0.18415,-0.0254 -0.174625,-0.085725 -0.485775,-0.085725 -0.320675,0 -0.60325,0.212725 -0.60325,0.5492749 0,0.29845 0.20955,0.441325 0.4572,0.5461 0.200025,0.0889 0.530225,0.15875 0.530225,0.5207 0,0.257175 -0.1524,0.422275 -0.403225,0.422275 -0.29845,0 -0.5207,-0.1651 -0.59055,-0.4826 -0.0381,-0.0127 -0.041275,-0.00635 -0.06985,0.00953 0.0127,0.244475 0.0254,0.327025 0.0635,0.4826 0.200025,0 0.28575,0.073025 0.568325,0.073025 0.14605,0 0.282575,-0.034925 0.3937,-0.1016 0.180975,-0.1143 0.29845,-0.31115 0.29845,-0.51435 0,-0.301625 -0.206375,-0.4445 -0.43815,-0.542925 -0.1524,-0.0635 -0.59055,-0.187325 -0.59055,-0.4984749 0,-0.1778 0.168275,-0.38735 0.352425,-0.38735 0.31115,0 0.441325,0.2286 0.504825,0.4381499 0.034925,0 0.041275,0.00317 0.06985,-0.01905 -0.00953,-0.1524 -0.022225,-0.2413 -0.05715,-0.409575 z"
       style="font-family:'Linux Libertine Display O';-inkscape-font-specification:'Linux Libertine Display O'"
       id="path10122" /><path
       d="m 8.9163457,3.2174821 c 0.307975,0 0.6223,-0.14605 0.8382,-0.428625 -0.015875,-0.028575 -0.0381,-0.047625 -0.073025,-0.047625 -0.225425,0.24765 -0.441325,0.346075 -0.7366,0.346075 -0.492125,0 -0.739775,-0.498475 -0.739775,-0.962025 0,-0.517525 0.3302,-0.9429749 0.73025,-0.9429749 0.43815,0 0.625475,0.2921 0.708025,0.5651499 0.028575,0.00317 0.047625,0 0.073025,-0.015875 -0.015875,-0.1650999 -0.0381,-0.3174999 -0.06985,-0.4921249 -0.161925,-0.015875 -0.3048,-0.142875 -0.695325,-0.142875 -0.62865,0 -1.031875,0.492125 -1.031875,1.0890249 0,0.561975 0.314325,1.031875 0.99695,1.031875 z"
       style="font-family:'Linux Libertine Display O';-inkscape-font-specification:'Linux Libertine Display O'"
       id="path10124" /><path
       d="m 10.69117,2.3030821 c -0.06985,0 -0.09207,-0.0254 -0.07937,-0.05715 L 10.94517,1.4236072 h 0.0095 l 0.3048,0.8794749 z m -0.358775,0.663575 0.1905,-0.492125 c 0.01587,-0.041275 0.03492,-0.06985 0.111125,-0.06985 h 0.663575 l 0.200025,0.5842 c 0.04445,0.130175 -0.08255,0.130175 -0.23495,0.1397 -0.01905,0.01905 -0.01905,0.053975 0,0.073025 0.117475,-0.00318 0.2921,-0.015875 0.415925,-0.015875 0.130175,0 0.2667,0.0127 0.384175,0.015875 0.01905,-0.01905 0.01905,-0.053975 0,-0.073025 -0.123825,-0.00953 -0.2286,-0.022225 -0.28575,-0.18415 L 11.113445,1.0965822 c -0.04763,0.028575 -0.123825,0.0635 -0.1651,0.0635 l -0.7366,1.7335499 c -0.08255,0.193675 -0.1778,0.225425 -0.3175005,0.23495 -0.01905,0.01905 -0.01905,0.053975 0,0.073025 0.1174755,-0.00318 0.1905005,-0.015875 0.3143255,-0.015875 0.130175,0 0.225425,0.0127 0.3429,0.015875 0.01905,-0.01905 0.01905,-0.053975 0,-0.073025 -0.12065,-0.00635 -0.269875,-0.028575 -0.219075,-0.161925 z"
       style="font-family:'Linux Libertine Display O';-inkscape-font-specification:'Linux Libertine Display O'"
       id="path10126" /><path
       d="m 12.678718,2.2459321 c 0.06985,0.022225 0.161925,0.028575 0.269875,0.028575 0.57785,0 0.74295,-0.36195 0.74295,-0.631825 0,-0.1873249 -0.117475,-0.5365749 -0.70485,-0.5365749 -0.08255,0 -0.3048,0.03175 -0.4318,0.03175 -0.15875,0 -0.24765,-0.0127 -0.4064,-0.015875 -0.01905,0.01905 -0.01905,0.053975 0,0.073025 0.22225,0.00953 0.269875,0.0254 0.27305,0.288925 0.0032,0.2635249 0.0063,0.4190999 0.0063,0.6826249 0,0.263525 0,0.409575 -0.0063,0.6731 -0.0063,0.2667 -0.0508,0.2794 -0.27305,0.288925 -0.01905,0.01905 -0.01905,0.053975 0,0.073025 0.155575,-0.00318 0.250825,-0.015875 0.41275,-0.015875 0.1778,0 0.2921,0.0127 0.45085,0.015875 0.01905,-0.01905 0.01905,-0.053975 0,-0.073025 -0.219075,-0.0127 -0.32385,-0.028575 -0.327025,-0.212725 -0.0032,-0.238125 -0.0063,-0.441325 -0.0063,-0.669925 z m 0.0063,-0.9112249 c 0.0032,-0.092075 0.05398,-0.1524 0.282575,-0.1524 0.219075,0 0.4445,0.1143 0.4445,0.5175249 0,0.3429 -0.174625,0.498475 -0.4826,0.498475 -0.0762,0 -0.20955,-0.00635 -0.250825,-0.015875 v -0.015875 c 0,-0.263525 0.0032,-0.5683249 0.0063,-0.8318499 z"
       style="font-family:'Linux Libertine Display O';-inkscape-font-specification:'Linux Libertine Display O'"
       id="path10128" /><path
       d="m 14.821838,2.0522571 -0.371475,0.00318 c 0,0 -0.0032,-0.4318 0.0064,-0.6921499 0.0032,-0.0762 0.04127,-0.1397 0.117475,-0.1397 h 0.4953 c 0.238125,0 0.28575,0.168275 0.3556,0.3873499 0.0381,0.00635 0.04445,0 0.0762,-0.015875 -0.01588,-0.130175 -0.0635,-0.4445 -0.06985,-0.4699 0,-0.00635 -0.0032,-0.00953 -0.0127,-0.00953 -0.05397,0.00953 -0.08255,0.022225 -0.15875,0.022225 h -0.9271 c -0.09525,0 -0.254,-0.0127 -0.41275,-0.015875 -0.01905,0.01905 -0.01905,0.053975 0,0.073025 0.22225,0.00953 0.263525,0.0254 0.27305,0.288925 0.0064,0.2603499 0.0064,0.4190999 0.0064,0.6826249 0,0.263525 0,0.41275 -0.0064,0.6731 -0.0095,0.263525 -0.0508,0.2794 -0.27305,0.288925 -0.01905,0.01905 -0.01905,0.053975 0,0.073025 0.155575,-0.00318 0.32385,-0.015875 0.4191,-0.015875 h 0.70485 c 0.1524,0 0.4064,0.015875 0.4064,0.015875 0.04445,-0.15875 0.0889,-0.377825 0.1143,-0.53975 -0.03175,-0.01905 -0.03492,-0.0254 -0.0762,-0.015875 -0.0635,0.2286 -0.1778,0.4572 -0.4191,0.4572 h -0.4953 c -0.06985,0 -0.1143,-0.0508 -0.117475,-0.136525 -0.0095,-0.2667 -0.0064,-0.822325 -0.0064,-0.822325 l 0.371475,0.00317 c 0.269875,0.00318 0.282575,0.06985 0.2921,0.212725 0.01905,0.01905 0.0508,0.01905 0.06985,0 -0.0032,-0.111125 -0.0127,-0.149225 -0.0127,-0.24765 0,-0.104775 0.0095,-0.1778 0.0127,-0.27305 -0.01905,-0.01905 -0.0508,-0.01905 -0.06985,0 -0.0095,0.174625 -0.02222,0.212725 -0.2921,0.212725 z"
       style="font-family:'Linux Libertine Display O';-inkscape-font-specification:'Linux Libertine Display O'"
       id="path10130" /></g></svg>
