<?xml version="1.0" encoding="UTF-8" standalone="no"?>
<!-- Created with Inkscape (http://www.inkscape.org/) -->

<svg
   id="svg3638"
   width="48"
   height="48"
   version="1.0"
   sodipodi:docname="logfile.svg"
   inkscape:version="1.1.2 (0a00cf5339, 2022-02-04)"
   xmlns:inkscape="http://www.inkscape.org/namespaces/inkscape"
   xmlns:sodipodi="http://sodipodi.sourceforge.net/DTD/sodipodi-0.dtd"
   xmlns:xlink="http://www.w3.org/1999/xlink"
   xmlns="http://www.w3.org/2000/svg"
   xmlns:svg="http://www.w3.org/2000/svg">
  <sodipodi:namedview
     id="namedview47"
     pagecolor="#ffffff"
     bordercolor="#666666"
     borderopacity="1.0"
     inkscape:pageshadow="2"
     inkscape:pageopacity="0.0"
     inkscape:pagecheckerboard="0"
     showgrid="false"
     inkscape:zoom="8.5208333"
     inkscape:cx="40.430318"
     inkscape:cy="19.716381"
     inkscape:window-width="2560"
     inkscape:window-height="1354"
     inkscape:window-x="2560"
     inkscape:window-y="0"
     inkscape:window-maximized="1"
     inkscape:current-layer="svg3638" />
  <defs
     id="defs3640">
    <linearGradient
       id="linearGradient5060">
      <stop
         id="stop5062"
         offset="0" />
      <stop
         id="stop5064"
         style="stop-opacity:0"
         offset="1" />
    </linearGradient>
    <linearGradient
       id="linearGradient2432"
       x1="32.892"
       x2="36.358"
       y1="8.059"
       y2="5.4565"
       gradientTransform="matrix(0.9977,0,0,1.0407,0.1638,-1.1058)"
       gradientUnits="userSpaceOnUse">
      <stop
         id="stop8591"
         style="stop-color:#fefefe"
         offset="0" />
      <stop
         id="stop8593"
         style="stop-color:#cbcbcb"
         offset="1" />
    </linearGradient>
    <linearGradient
       id="linearGradient2436"
       x1="22.104"
       x2="22.104"
       y1="39.699"
       y2="9.2626"
       gradientTransform="matrix(0.99461,0,0,1.4408,-0.3759,-12.863)"
       gradientUnits="userSpaceOnUse">
      <stop
         id="stop4340"
         style="stop-color:#8e8e8e"
         offset="0" />
      <stop
         id="stop4342"
         style="stop-color:#b5b5b5"
         offset="1" />
    </linearGradient>
    <linearGradient
       id="linearGradient2439"
       x1="24"
       x2="24"
       y1="2"
       y2="46.017"
       gradientTransform="matrix(1,0,0,0.97778,0,-0.96667)"
       gradientUnits="userSpaceOnUse">
      <stop
         id="stop3213"
         style="stop-color:#fff"
         offset="0" />
      <stop
         id="stop3215"
         style="stop-color:#fff;stop-opacity:0"
         offset="1" />
    </linearGradient>
    <radialGradient
       id="radialGradient2442"
       cx="102"
       cy="112.3"
       r="139.56"
       gradientTransform="matrix(0.3617,0,0,-0.39078,0.85106,47.517)"
       gradientUnits="userSpaceOnUse">
      <stop
         id="stop41"
         style="stop-color:#b7b8b9"
         offset="0" />
      <stop
         id="stop47"
         style="stop-color:#ececec"
         offset=".18851" />
      <stop
         id="stop49"
         style="stop-color:#fafafa;stop-opacity:0"
         offset=".25718" />
      <stop
         id="stop51"
         style="stop-color:#fff;stop-opacity:0"
         offset=".30111" />
      <stop
         id="stop53"
         style="stop-color:#fafafa;stop-opacity:0"
         offset=".5313" />
      <stop
         id="stop55"
         style="stop-color:#ebecec;stop-opacity:0"
         offset=".8449" />
      <stop
         id="stop57"
         style="stop-color:#e1e2e3;stop-opacity:0"
         offset="1" />
    </radialGradient>
    <linearGradient
       id="linearGradient2445"
       x1="25.132"
       x2="25.132"
       y1=".98521"
       y2="47.013"
       gradientTransform="matrix(1,0,0,0.95617,-1.0065e-7,-1.9149)"
       gradientUnits="userSpaceOnUse">
      <stop
         id="stop3602"
         style="stop-color:#f4f4f4"
         offset="0" />
      <stop
         id="stop3604"
         style="stop-color:#dbdbdb"
         offset="1" />
    </linearGradient>
    <linearGradient
       id="linearGradient2447"
       x1="-51.786"
       x2="-51.786"
       y1="50.786"
       y2="2.9062"
       gradientTransform="matrix(0.8075,0,0,0.89483,59.41,-2.9806)"
       gradientUnits="userSpaceOnUse">
      <stop
         id="stop3106"
         style="stop-color:#aaa"
         offset="0" />
      <stop
         id="stop3108"
         style="stop-color:#c8c8c8"
         offset="1" />
    </linearGradient>
    <radialGradient
       id="radialGradient2450"
       cx="605.71"
       cy="486.65"
       r="117.14"
       gradientTransform="matrix(0.02304,0,0,0.0147,26.361,37.04)"
       gradientUnits="userSpaceOnUse"
       xlink:href="#linearGradient5060" />
    <radialGradient
       id="radialGradient2453"
       cx="605.71"
       cy="486.65"
       r="117.14"
       gradientTransform="matrix(-0.02304,0,0,0.0147,21.623,37.04)"
       gradientUnits="userSpaceOnUse"
       xlink:href="#linearGradient5060" />
    <linearGradient
       id="linearGradient2456"
       x1="302.86"
       x2="302.86"
       y1="366.65"
       y2="609.51"
       gradientTransform="matrix(0.067325,0,0,0.0147,-0.34114,37.04)"
       gradientUnits="userSpaceOnUse">
      <stop
         id="stop5050"
         style="stop-opacity:0"
         offset="0" />
      <stop
         id="stop5056"
         offset=".5" />
      <stop
         id="stop5052"
         style="stop-opacity:0"
         offset="1" />
    </linearGradient>
    <filter
       id="filter3248"
       x="-0.1484589"
       y="-0.1643425"
       width="1.2969178"
       height="1.328685"
       color-interpolation-filters="sRGB">
      <feGaussianBlur
         id="feGaussianBlur3250"
         stdDeviation="0.77391625" />
    </filter>
    <linearGradient
       id="linearGradient3240">
      <stop
         id="stop3242"
         style="stop-color:#3e3e3e"
         offset="0" />
      <stop
         id="stop3244"
         style="stop-color:#828282"
         offset=".5" />
      <stop
         id="stop3246"
         style="stop-color:#3c3c3c"
         offset="1" />
    </linearGradient>
    <linearGradient
       id="linearGradient3223">
      <stop
         id="stop3225"
         style="stop-color:#999"
         offset="0" />
      <stop
         id="stop3231"
         style="stop-color:#fff"
         offset=".5" />
      <stop
         id="stop3227"
         style="stop-color:#777"
         offset="1" />
    </linearGradient>
    <linearGradient
       id="linearGradient2863"
       x1="9"
       x2="9"
       y1="29.057"
       y2="26.03"
       gradientTransform="matrix(1.1213,-1.1264,1.3858,1.3783,-37.931,11.005)"
       gradientUnits="userSpaceOnUse">
      <stop
         id="stop3292"
         style="stop-color:#e4db7b"
         offset="0" />
      <stop
         id="stop3294"
         style="stop-color:#f4f0c8"
         offset="1" />
    </linearGradient>
    <linearGradient
       id="linearGradient2865"
       x1="5.5179"
       x2="9.5221"
       y1="37.372"
       y2="41.392"
       gradientTransform="matrix(0.94216,0,0,0.941,1.4258,3.2093)"
       gradientUnits="userSpaceOnUse">
      <stop
         id="stop3193"
         style="stop-color:#cbbd27"
         offset="0" />
      <stop
         id="stop3195"
         style="stop-color:#9b901d"
         offset="1" />
    </linearGradient>
    <linearGradient
       id="linearGradient2868"
       x1="30.038"
       x2="30.038"
       y1="24.99"
       y2="30"
       gradientTransform="matrix(1.1213,-1.1264,1.3858,1.3783,-35.589,8.6529)"
       gradientUnits="userSpaceOnUse"
       xlink:href="#linearGradient3223" />
    <linearGradient
       id="linearGradient2871"
       x1="30.038"
       x2="30.038"
       y1="24.99"
       y2="30"
       gradientTransform="matrix(1.1213,-1.1264,1.3858,1.3783,-35.268,8.3303)"
       gradientUnits="userSpaceOnUse"
       xlink:href="#linearGradient3240" />
    <linearGradient
       id="linearGradient2874"
       x1="30.038"
       x2="30.038"
       y1="24.99"
       y2="30"
       gradientTransform="matrix(1.1213,-1.1264,1.3858,1.3783,-36.71,9.7792)"
       gradientUnits="userSpaceOnUse"
       xlink:href="#linearGradient3223" />
    <linearGradient
       id="linearGradient2877"
       x1="30.038"
       x2="30.038"
       y1="24.99"
       y2="30"
       gradientTransform="matrix(1.1213,-1.1264,1.3858,1.3783,-36.389,9.4567)"
       gradientUnits="userSpaceOnUse"
       xlink:href="#linearGradient3240" />
    <linearGradient
       id="linearGradient2880"
       x1="30.038"
       x2="30.038"
       y1="24.99"
       y2="30"
       gradientTransform="matrix(1.1213,-1.1264,1.3858,1.3783,-37.826,10.9)"
       gradientUnits="userSpaceOnUse"
       xlink:href="#linearGradient3223" />
    <linearGradient
       id="linearGradient2883"
       x1="30.038"
       x2="30.038"
       y1="24.99"
       y2="30"
       gradientTransform="matrix(1.1213,-1.1264,1.3858,1.3783,-37.505,10.578)"
       gradientUnits="userSpaceOnUse"
       xlink:href="#linearGradient3240" />
    <linearGradient
       id="linearGradient2888"
       x1="23.576"
       x2="23.576"
       y1="25.357"
       y2="31.211"
       gradientTransform="matrix(1.1539,-1.1591,1.1841,1.1777,-33.698,16.09)"
       gradientUnits="userSpaceOnUse">
      <stop
         id="stop3157"
         offset="0" />
      <stop
         id="stop3171"
         style="stop-color:#c3c3c3"
         offset=".13483" />
      <stop
         id="stop3173"
         style="stop-color:#8c8c8c"
         offset=".20224" />
      <stop
         id="stop3163"
         style="stop-color:#fff"
         offset=".26966" />
      <stop
         id="stop3165"
         style="stop-color:#757575"
         offset=".4465" />
      <stop
         id="stop3167"
         style="stop-color:#7d7d7d"
         offset=".57114" />
      <stop
         id="stop3169"
         style="stop-color:#b6b6b6"
         offset=".72038" />
      <stop
         id="stop3159"
         offset="1" />
    </linearGradient>
    <filter
       id="filter3699"
       x="-0.0599783"
       y="-0.24035035"
       width="1.1199566"
       height="1.4807007"
       color-interpolation-filters="sRGB">
      <feGaussianBlur
         id="feGaussianBlur3701"
         stdDeviation="1.0014601" />
    </filter>
  </defs>
  <g
     id="g150"
     transform="translate(-2.4963574,2.3885384e-4)">
    <rect
       id="rect2879"
       x="7.7378001"
       y="42.43"
       width="32.507999"
       height="3.5701001"
       style="opacity:0.3;fill:url(#linearGradient2456)" />
    <path
       id="path2881"
       d="m 7.7378,42.43 v 3.5699 c -1.1865,0.0067 -2.8684,-0.79982 -2.8684,-1.7852 0,-0.98533 1.324,-1.7847 2.8684,-1.7847 z"
       style="opacity:0.3;fill:url(#radialGradient2453)" />
    <path
       id="path2883"
       d="m 40.246,42.43 v 3.5699 c 1.1865,0.0067 2.8684,-0.79982 2.8684,-1.7852 0,-0.98533 -1.324,-1.7847 -2.8684,-1.7847 z"
       style="opacity:0.3;fill:url(#radialGradient2450)" />
    <path
       id="path4160"
       d="m 6.5,0.4972 h 24.061 c 1.4069,0.47465 8.9655,5.8822 10.939,9.6264 v 34.379 H 6.5 V 0.4966 Z"
       style="fill:url(#linearGradient2445);stroke:url(#linearGradient2447);stroke-width:0.99992;stroke-linejoin:round" />
    <path
       id="path4191"
       d="M 7.3617,44 C 7.1624,44 7,43.82454 7,43.60922 V 1.40522 C 7,1.18951 7.1624,1.01444 7.3617,1.01444 c 7.4831,0.10801 15.776,-0.16158 23.25,0.026895 l 10.283,8.866 0.10598,33.702 c 0,0.21532 -0.16204,0.39078 -0.3617,0.39078 h -33.277 z"
       style="fill:url(#radialGradient2442)" />
    <path
       id="path2435"
       d="M 40.5,10.259 V 43.522 H 7.5 V 1.477 h 22.866"
       style="opacity:0.6;fill:none;stroke:url(#linearGradient2439);stroke-width:0.99992;stroke-linejoin:round" />
    <path
       id="path3406"
       d="m 11,22 h 2.3458 v 1 H 11 Z m 2.6654,0 h 2.2134 v 1 h -2.2134 z m 2.5329,0 h 1.9485 v 1 h -1.9485 z m 2.2681,0 h 0.85587 v 1 H 18.4664 Z m 1.1754,0 h 1.9154 v 1 h -1.9154 z m 2.2349,0 h 4.9616 v 1 h -4.9616 z m 5.2811,0 h 3.7696 v 1 h -3.7696 z m 4.0891,0 h 1.1539 v 1 h -1.1539 z m 1.4734,0 h 2.2796 v 1 h -2.2796 z m -21.72,6 h 3.6918 v 1 h -3.6918 z m 3.9658,0 h 1.7762 v 1 h -1.7762 z m 2.1509,0 h 0.83512 v 1 H 17.117 Z m 1.0419,0 h 1.6081 v 1 h -1.6081 z m 1.882,0 h 1.6081 v 1 h -1.6081 z m 2.1173,0 h 2.5827 v 1 h -2.5827 z m 2.8903,0 h 3.3893 v 1 h -3.3893 z m 3.8649,0 h 2.2803 v 1 h -2.2803 z m 2.5542,0 h 0.53266 v 1 H 31.4676 Z m -20.467,-4 h 3.928 v 1 h -3.928 z m 4.236,0 h 4.2089 v 1 h -4.2089 z m 4.5169,0 h 1.6808 v 1 h -1.6808 z m 1.9887,0 h 3.9593 v 1 h -3.9593 z m 7.2859,0 h 1.0565 v 1 h -1.0565 z m -3.0187,0 h 2.7108 v 1 h -2.7108 z m 4.3831,0 h 0.61953 v 1 H 30.3925 Z m 0.92745,0 h 1.6808 v 1 h -1.6808 z m -20.319,2 h 4.2851 v 1 h -4.2851 z m 4.6211,0 h 4.5916 v 1 h -4.5916 z m 4.9275,0 h 1.8336 v 1 h -1.8336 z m 2.1695,0 h 4.3192 v 1 h -4.3192 z m 7.9482,0 h 1.1526 v 1 h -1.1526 z m -3.2931,0 h 2.9572 v 1 h -2.9572 z m 4.7816,0 h 0.67585 v 1 h -0.67585 z m 1.0118,0 h 1.8336 v 1 h -1.8336 z m -22.166,-6 h 3.0616 v 1 h -3.0616 z m 3.3868,0 h 5.0835 v 1 h -5.0835 z m 5.4088,0 h 2.455 v 1 h -2.455 z m 5.3919,0 h 1.9495 v 1 h -1.9495 z m 2.2747,0 h 3.129 v 1 h -3.129 z m 3.4542,0 h 5.0836 v 1 h -5.0836 z m -8.3406,0 h 2.2865 v 1 h -2.2865 z M 11.00135,8 h 2.3458 v 1 h -2.3458 z m 2.6654,0 h 2.2134 v 1 h -2.2134 z m 2.5329,0 h 1.9485 v 1 h -1.9485 z m 2.2681,0 h 0.85587 v 1 h -0.85587 z m 1.1754,0 h 1.9154 v 1 h -1.9154 z m 2.2349,0 h 4.9616 v 1 h -4.9616 z m 5.2811,0 h 3.7696 v 1 h -3.7696 z m 4.0891,0 h 1.1539 v 1 h -1.1539 z m 1.4734,0 h 2.2796 v 1 h -2.2796 z m -21.72,2 h 3.6918 v 1 h -3.6918 z m 4.0288,0 h 1.7762 v 1 h -1.7762 z m 2.1131,0 h 0.83512 v 1 h -0.83512 z m 1.1721,0 h 1.6081 v 1 h -1.6081 z m 1.9451,0 h 1.6081 v 1 h -1.6081 z m 1.9451,0 h 2.5827 v 1 h -2.5827 z m 2.9197,0 h 3.3894 v 1 h -3.3894 z m 3.7263,0 h 2.2803 v 1 h -2.2803 z m 2.6172,0 h 0.53265 v 1 h -0.53265 z m -20.467,4 h 4.2851 v 1 h -4.2851 z m 4.6211,0 h 4.5916 v 1 h -4.5916 z m 4.9275,0 h 1.8336 v 1 h -1.8336 z m 2.1695,0 h 4.3192 v 1 h -4.3192 z m 7.9482,0 h 1.1526 v 1 h -1.1526 z m -3.2931,0 h 2.9572 v 1 h -2.9572 z m 4.7816,0 h 0.67585 v 1 h -0.67585 z m 1.0118,0 h 1.8336 v 1 h -1.8336 z m -22.166,-2 h 3.0616 v 1 h -3.0616 z m 3.3868,0 h 5.0835 v 1 h -5.0835 z m 5.4088,0 h 2.455 v 1 h -2.455 z m 5.3919,0 h 1.9495 v 1 h -1.9495 z m 2.2747,0 h 3.129 v 1 h -3.129 z m 3.4542,0 h 5.0836 v 1 h -5.0836 z m -8.3406,0 h 2.2865 v 1 h -2.2865 z m -11.576,4 h 1.6334 v 1 h -1.6334 z m 2.0561,0 h 5.9439 v 1 h -5.9439 z m -2.0561,18 h 3.6918 v 1 h -3.6918 z m 3.9658,0 h 1.7762 v 1 h -1.7762 z m 2.1509,0 h 0.83512 v 1 h -0.83512 z m 1.0419,0 h 1.6081 v 1 h -1.6081 z m 1.882,0 h 1.6081 v 1 h -1.6081 z m 2.1173,0 h 2.5827 v 1 h -2.5827 z m 2.8903,0 h 3.3893 v 1 h -3.3893 z m 3.8649,0 h 2.2803 v 1 h -2.2803 z m 2.5542,0 h 0.53266 v 1 h -0.53266 z m -20.467,-2 h 3.0616 v 1 h -3.0616 z m 3.3868,0 h 5.0835 v 1 h -5.0835 z m 5.4088,0 h 2.455 v 1 h -2.455 z m 5.3919,0 h 1.9495 v 1 h -1.9495 z m 2.2747,0 h 3.129 v 1 h -3.129 z m 3.4542,0 h 5.0836 v 1 h -5.0836 z m -8.3406,0 h 2.2865 v 1 h -2.2865 z m -11.576,4 h 3.8687 v 1 h -3.8687 z m 4.1882,0 h 1.2182 v 1 h -1.2182 z m 1.5376,0 h 2.7813 v 1 h -2.7813 z m 3.1008,0 h 1.8978 v 1 h -1.8978 z m 2.2173,0 h 1.8978 v 1 h -1.8978 z m 2.2173,0 h 2.7473 v 1 h -2.7473 z m 3.0668,0 h 0.57256 v 1 h -0.57256 z m 0.89201,0 h 3.5629 v 1 h -3.5629 z m 3.8823,0 h 1.8978 v 1 h -1.8978 z m -21.102,2 h 3.7964 v 1 h -3.7964 z m 6.2567,0 h 2.4387 v 1 h -2.4387 z m 2.7889,0 h 2.2351 v 1 h -2.2351 z m 2.5853,0 h 1.9296 v 1 h -1.9296 z m -7.4843,0 h 1.7599 v 1 h -1.7599 z"
       style="opacity:0.7;fill:url(#linearGradient2436)"
       sodipodi:nodetypes="cccccccccccccccccccccccccccccccccccccccccccccccccccccccccccccccccccccccccccccccccccccccccccccccccccccccccccccccccccccccccccccccccccccccccccccccccccccccccccccccccccccccccccccccccccccccccccccccccccccccccccccccccccccccccccccccccccccccccccccccccccccccccccccccccccccccccccccccccccccccccccccccccccccccccccccccccccccccccccccccccccccccccccccccccccccccccccccccccccccccccccccccccccccccccccccccccccccccccccccccccccccccccccccccccccccccccccccccccccccccccccccccccccccccccccccccccccccccccccccccccccccccccccccccccccccccccccccccccccccccccccccccccc" />
    <path
       id="path12038"
       d="m 28.617,0.92126 c 4.2825,0 2.1532,8.4832 2.1532,8.4832 0,0 10.358,-1.8023 10.358,2.8187 0,-2.6097 -11.302,-10.729 -12.511,-11.302 z"
       style="opacity:0.4;fill-rule:evenodd;filter:url(#filter3248)" />
    <path
       id="path4474"
       d="m 28.617,0.92126 c 3.1865,0 2.3358,7.6619 2.3358,7.6619 0,0 10.175,-0.98105 10.175,3.64 0,-1.1259 0.08591,-1.9322 -0.13378,-2.2836 -1.5783,-2.5242 -8.3955,-8.1884 -10.857,-8.9308 -0.18422,-0.055555 -0.5927,-0.087535 -1.5198,-0.087535 z"
       style="fill:url(#linearGradient2432);fill-rule:evenodd" />
  </g>
  <g
     id="g139"
     transform="matrix(0.59353351,0,0,0.59353351,19.98562,11.102383)">
    <path
       id="path2422"
       d="m 36.746,36.237 c -0.323,-0.0046 -0.58209,0.0365 -0.75667,0.08021 l -23.248,5.8019 -4.2791,1.0695 -0.13046,0.02674 -5.4272,3.0213 12.185,-1.3369 0.10437,-0.02674 4.3052,-1.0695 23.248,-5.8287 c 0.69833,-0.17484 -0.24405,-0.68626 -2.1135,-1.1497 -1.4021,-0.34758 -2.9187,-0.57454 -3.8877,-0.58822 z"
       style="opacity:0.15;fill-rule:evenodd;filter:url(#filter3699)" />
    <path
       id="rect2383"
       d="m 9.1978,33.011 c 0.77547,-0.59607 2.8374,0.37028 4.691,2.2138 1.8492,1.8391 2.7785,3.8524 2.1948,4.6347 -0.0022,0.003 0.04557,0.04013 0.04331,0.04308 l 28.138,-28.265 c 0.7144,-0.71762 -0.2556,-2.8461 -2.168,-4.7481 -1.9124,-1.9021 -4.0467,-2.8611 -4.7611,-2.1434 l -28.138,28.265 z"
       style="fill:url(#linearGradient2888);stroke:#000000;stroke-linejoin:round" />
    <path
       id="rect3175"
       d="m 33.902,8.1955 c 0.77547,-0.59607 2.8374,0.37028 4.691,2.2138 1.8492,1.8391 2.7785,3.8524 2.1948,4.6347 -0.0022,0.003 0.04557,0.04013 0.04331,0.04308 l 3.4341,-3.4495 0.07008,-0.0704 c 0.0023,-0.003 -0.04553,-0.04009 -0.04331,-0.04307 0.58363,-0.78228 -0.34565,-2.7955 -2.1948,-4.6347 -1.8536,-1.8435 -3.9156,-2.8099 -4.691,-2.2138 l -0.07008,0.070398 -3.4341,3.4495 z"
       style="opacity:0.8;fill:#ff9de8;stroke:#dd78c5;stroke-linejoin:round" />
    <path
       id="path3208"
       d="m 9.1978,33.011 c 0.77547,-0.59607 2.8374,0.37028 4.691,2.2138 1.8492,1.8391 2.7785,3.8524 2.1948,4.6347 -0.0022,0.003 0.04557,0.04013 0.04331,0.04308 l 19.378,-19.465 0.07008,-0.0704 c 0.0023,-0.003 -0.04552,-0.0401 -0.04331,-0.04308 0.58363,-0.78227 -0.34565,-2.7955 -2.1948,-4.6347 -1.8536,-1.8435 -3.9156,-2.8099 -4.691,-2.2138 L 28.5758,13.546 Z"
       style="opacity:0.6" />
    <path
       id="path3233"
       d="m 30.053,12.062 c 0.77547,-0.59608 2.8374,0.37028 4.691,2.2138 1.8492,1.8391 2.7785,3.8524 2.1948,4.6347 -0.0022,0.003 0.04557,0.04013 0.04332,0.04308 l 0.35041,-0.35199 c 0.0023,-0.003 -0.04552,-0.04009 -0.04331,-0.04308 0.58363,-0.78227 -0.34565,-2.7955 -2.1948,-4.6347 -1.8536,-1.8435 -3.9156,-2.8099 -4.691,-2.2138 L 30.05301,12.062 Z"
       style="fill:url(#linearGradient2883)" />
    <path
       id="path3216"
       d="m 29.732,12.385 c 0.77547,-0.59608 2.8374,0.37028 4.691,2.2138 1.8492,1.8391 2.7785,3.8524 2.1948,4.6347 -0.0022,0.003 0.04557,0.04013 0.04331,0.04308 l 0.35041,-0.35199 c 0.0023,-0.003 -0.04554,-0.04009 -0.04331,-0.04308 0.58363,-0.78227 -0.34565,-2.7955 -2.1948,-4.6347 -1.8536,-1.8435 -3.9156,-2.8099 -4.691,-2.2138 z"
       style="fill:url(#linearGradient2880)" />
    <path
       id="path3248"
       d="m 31.169,10.941 c 0.77547,-0.59607 2.8374,0.37028 4.691,2.2138 1.8492,1.8391 2.7785,3.8524 2.1948,4.6347 -0.0022,0.003 0.04557,0.04013 0.04331,0.04308 l 0.35041,-0.35199 c 0.0023,-0.003 -0.04552,-0.04009 -0.04331,-0.04308 0.58363,-0.78227 -0.34565,-2.7955 -2.1948,-4.6347 -1.8536,-1.8436 -3.9156,-2.8099 -4.691,-2.2138 z"
       style="fill:url(#linearGradient2877)" />
    <path
       id="path3250"
       d="m 30.848,11.264 c 0.77547,-0.59608 2.8374,0.37028 4.691,2.2138 1.8492,1.8391 2.7785,3.8524 2.1948,4.6347 -0.0022,0.003 0.04557,0.04012 0.04331,0.04308 l 0.35041,-0.35199 c 0.0023,-0.003 -0.04552,-0.04009 -0.04331,-0.04308 0.58363,-0.78227 -0.34565,-2.7955 -2.1948,-4.6347 -1.8536,-1.8436 -3.9156,-2.8099 -4.691,-2.2138 z"
       style="fill:url(#linearGradient2874)" />
    <path
       id="path3256"
       d="m 32.29,9.8147 c 0.77547,-0.59607 2.8374,0.37028 4.691,2.2138 1.8492,1.8391 2.7785,3.8524 2.1948,4.6347 -0.0022,0.003 0.04557,0.04013 0.04331,0.04308 l 0.35041,-0.35199 c 0.0023,-0.003 -0.04552,-0.0401 -0.04331,-0.04308 0.58363,-0.78227 -0.34565,-2.7955 -2.1948,-4.6347 -1.8536,-1.8435 -3.9156,-2.8099 -4.691,-2.2138 z"
       style="fill:url(#linearGradient2871)" />
    <path
       id="path3258"
       d="m 31.969,10.137 c 0.77547,-0.59608 2.8374,0.37028 4.691,2.2138 1.8492,1.8391 2.7785,3.8524 2.1948,4.6347 -0.0022,0.003 0.04557,0.04013 0.04331,0.04308 l 0.35041,-0.35199 c 0.0023,-0.003 -0.04553,-0.0401 -0.04331,-0.04308 0.58363,-0.78227 -0.34565,-2.7955 -2.1948,-4.6347 -1.8536,-1.8436 -3.9156,-2.8099 -4.691,-2.2138 L 31.96899,10.137 Z"
       style="fill:url(#linearGradient2868)" />
    <path
       id="path3270"
       d="m 3.5002,45.5 12.594,-5.443 C 16.67783,39.27473 15.73528,37.062 13.8861,35.2228 12.0325,33.3792 9.8732,32.4186 9.0977,33.0147 l -5.5978,12.485 z"
       style="fill:url(#linearGradient2863);fill-rule:evenodd;stroke:url(#linearGradient2865)" />
    <path
       id="path3281"
       d="M 5.0434,42.118 3.5,45.4864 6.9057,43.9701 C 6.65136,43.66041 6.41783,43.34478 6.10964,43.03826 5.75483,42.68537 5.40309,42.40179 5.04354,42.11799 Z"
       style="fill-rule:evenodd;stroke:#000000" />
  </g>
</svg>
