<?xml version="1.0" encoding="UTF-8" standalone="no"?>
<svg xmlns:dc="http://purl.org/dc/elements/1.1/" xmlns:cc="http://creativecommons.org/ns#" xmlns:rdf="http://www.w3.org/1999/02/22-rdf-syntax-ns#" xmlns:svg="http://www.w3.org/2000/svg" xmlns="http://www.w3.org/2000/svg" xmlns:xlink="http://www.w3.org/1999/xlink" xmlns:sodipodi="http://sodipodi.sourceforge.net/DTD/sodipodi-0.dtd" xmlns:inkscape="http://www.inkscape.org/namespaces/inkscape" height="660" width="600" version="1.0" id="svg2" sodipodi:version="0.32" inkscape:version="0.48.1 " sodipodi:docname="Blason-Rochechouart-Mortemart.svg" inkscape:export-filename="/Users/olivier/Desktop/Blason Rouge/Blason_Vide_3D.png" inkscape:export-xdpi="144" inkscape:export-ydpi="144" inkscape:output_extension="org.inkscape.output.svg.inkscape">
  <metadata id="metadata49">
    <rdf:RDF>
      <cc:Work rdf:about="">
        <dc:format>image/svg+xml</dc:format>
        <dc:type rdf:resource="http://purl.org/dc/dcmitype/StillImage"/>
        <dc:title>Gabarit d'un blason en pointe pour le projet Blasons de Wikipédia</dc:title>
        <dc:date>03-AUG-2006</dc:date>
        <dc:creator>
          <cc:Agent>
            <dc:title>Jérôme BLUM (wagner51)</dc:title>
          </cc:Agent>
        </dc:creator>
        <cc:license rdf:resource="http://web.resource.org/cc/PublicDomain"/>
        <dc:language>fr</dc:language>
        <dc:subject>
          <rdf:Bag>
            <rdf:li>gabarit modèle blason projet wikipédia</rdf:li>
          </rdf:Bag>
        </dc:subject>
      </cc:Work>
      <cc:License rdf:about="http://web.resource.org/cc/PublicDomain">
        <cc:permits rdf:resource="http://web.resource.org/cc/Reproduction"/>
        <cc:permits rdf:resource="http://web.resource.org/cc/Distribution"/>
        <cc:permits rdf:resource="http://web.resource.org/cc/DerivativeWorks"/>
      </cc:License>
    </rdf:RDF>
  </metadata>
  <sodipodi:namedview inkscape:window-height="747" inkscape:window-width="1280" inkscape:pageshadow="2" inkscape:pageopacity="0.0" guidetolerance="10.0" gridtolerance="10.0" objecttolerance="10.0" borderopacity="1.0" bordercolor="#666666" pagecolor="#ffffff" id="base" showgrid="false" height="660px" inkscape:zoom="0.78181818" inkscape:cx="409.55332" inkscape:cy="336.22754" inkscape:window-x="-4" inkscape:window-y="-4" inkscape:current-layer="layer3" showguides="true" inkscape:guide-bbox="true" inkscape:window-maximized="1"/>
  <desc id="desc4">Flag of Canton of Valais (Wallis)</desc>
  <defs id="defs6">
    <linearGradient id="linearGradient2893">
      <stop style="stop-color: white; stop-opacity: 0.313726;" offset="0" id="stop2895"/>
      <stop id="stop2897" offset="0.19" style="stop-color: white; stop-opacity: 0.25098;"/>
      <stop style="stop-color: rgb(107, 107, 107); stop-opacity: 0.12549;" offset="0.60000002" id="stop2901"/>
      <stop style="stop-color: black; stop-opacity: 0.12549;" offset="1" id="stop2899"/>
    </linearGradient>
    <linearGradient id="linearGradient2885">
      <stop id="stop2887" offset="0" style="stop-color: white; stop-opacity: 1;"/>
      <stop style="stop-color: white; stop-opacity: 1;" offset="0.22857143" id="stop2891"/>
      <stop id="stop2889" offset="1" style="stop-color: black; stop-opacity: 1;"/>
    </linearGradient>
    <linearGradient id="linearGradient2955">
      <stop id="stop2867" offset="0" style="stop-color: rgb(253, 0, 0); stop-opacity: 1;"/>
      <stop style="stop-color: rgb(231, 114, 117); stop-opacity: 0.658824;" offset="0.5" id="stop2873"/>
      <stop style="stop-color: black; stop-opacity: 0.322917;" offset="1" id="stop2959"/>
    </linearGradient>
    <radialGradient inkscape:collect="always" xlink:href="#linearGradient2955" id="radialGradient2961" cx="225.52438" cy="218.90099" fx="225.52438" fy="218.90099" r="300" gradientTransform="matrix(-0.000416794, 2.18287, -1.88423, -0.000359956, 615.597, -289.121)" gradientUnits="userSpaceOnUse"/>
    <polygon id="star" transform="scale(53, 53)" points="0,-1 0.587785,0.809017 -0.951057,-0.309017 0.951057,-0.309017 -0.587785,0.809017 0,-1"/>
    <clipPath id="clip">
      <path d="M 0,-200 L 0,600 L 300,600 L 300,-200 L 0,-200 z " id="path10"/>
    </clipPath>
    <radialGradient inkscape:collect="always" xlink:href="#linearGradient2955" id="radialGradient1911" gradientUnits="userSpaceOnUse" gradientTransform="matrix(-0.000416794, 2.18287, -1.88423, -0.000359956, 615.597, -289.121)" cx="225.52438" cy="218.90099" fx="225.52438" fy="218.90099" r="300"/>
    <radialGradient inkscape:collect="always" xlink:href="#linearGradient2955" id="radialGradient2865" gradientUnits="userSpaceOnUse" gradientTransform="matrix(0, 1.74872, -1.59316, -1.04977e-07, 551.788, -191.29)" cx="225.52438" cy="218.90099" fx="225.52438" fy="218.90099" r="300"/>
    <radialGradient inkscape:collect="always" xlink:href="#linearGradient2955" id="radialGradient2871" gradientUnits="userSpaceOnUse" gradientTransform="matrix(0, 1.38624, -1.32329, -5.74113e-08, -158.082, -109.541)" cx="225.52438" cy="218.90099" fx="225.52438" fy="218.90099" r="300"/>
    <radialGradient inkscape:collect="always" xlink:href="#linearGradient2893" id="radialGradient3163" gradientUnits="userSpaceOnUse" gradientTransform="matrix(1.35322, 0, 0, 1.34893, -77.6293, -85.7469)" cx="221.44487" cy="226.33101" fx="221.44487" fy="226.33101" r="300"/>
  </defs>
  <g inkscape:groupmode="layer" id="layer3" inkscape:label="Fond écu" style="display: inline;">
    <path id="path2855" style="fill:#ffffff;fill-opacity:1;fill-rule:evenodd;stroke:none" d="m 300,659.77907 c 0,0 298.50001,-112.32031 298.50001,-397.77183 0,-285.451525 0,-258.5516935 0,-258.5516935 l -597.0000101,0 0,258.5516935 C 1.4999999,547.45876 300,659.77907 300,659.77907 z" sodipodi:nodetypes="cccccc" inkscape:connector-curvature="0"/>
    <g style="display:inline" id="g8306" transform="matrix(0.4981148,0,0,0.9053301,-105.02153,-378.41669)">
      <path style="fill:#e20909;fill-opacity:1;fill-rule:evenodd;stroke:#000000;stroke-width:3;stroke-linecap:butt;stroke-linejoin:miter;stroke-miterlimit:4;stroke-dasharray:none;stroke-opacity:1;display:inline" d="M 79.4375,66.875 C 79.123249,66.877082 78.83902,66.91037 78.53125,66.9375 C 59.451929,68.618282 57.499597,128.63613 36.6875,129.0625 C 18.747614,129.43622 15.40843,85.679416 1.5,72.25 C 1.5,76.383956 1.5,129.00452 1.5,175.65625 C 15.479098,188.62737 18.819277,237.15825 37.28125,237.96875 C 58.904946,238.91803 59.538433,175.50005 80.75,175.3125 C 108.2601,185.66607 92.86892,226.00976 122.875,240.625 C 151.98735,230.28259 140.26083,187.06828 168.75,172.53125 C 168.91588,172.54096 169.08663,172.54444 169.25,172.5625 C 195.0872,186.82396 182.58094,226.55444 211.46875,240.625 C 243.48424,236.9434 227.0497,177.89583 254.75,175.3125 C 281.72368,180.82487 272.48266,234.3925 299.875,237.96875 C 321.49866,238.91803 322.13218,175.50005 343.34375,175.3125 C 370.85383,185.66607 355.46266,226.00976 385.46875,240.625 C 411.97611,233.10628 408.08686,175.4337 431.34375,172.53125 C 431.50966,172.54096 431.68035,172.54444 431.84375,172.5625 C 451.4716,174.73734 452.93374,237.04942 473.875,237.96875 C 476.70443,238.09297 479.17155,237.10698 481.375,235.3125 C 503.75832,215.9703 490.49365,191.66805 517.34375,175.3125 C 538.5553,175.12495 539.52388,236.53125 561.5625,236.53125 C 580.87654,236.53132 584.08416,187.37234 598.5,175.21875 L 598.5,70.59375 C 582.89772,81.647415 580.86276,130.47664 561.40625,131.71875 C 539.12267,133.1414 537.88146,69.210428 517,66.9375 C 516.34774,66.866449 515.74055,66.88324 515.125,66.9375 C 496.04569,68.618282 494.09336,128.63613 473.28125,129.0625 C 446.00155,121.42582 461.26862,82.63111 431.1875,68.375 C 430.90552,68.375813 430.61858,68.416722 430.34375,68.4375 C 430.07416,68.413906 429.80752,68.379355 429.53125,68.375 C 402.0262,71.422081 418.50098,112.64422 386.5,131.71875 C 359.96757,124.80035 368.28971,73.3859 343,66.9375 C 342.67382,66.902018 342.34551,66.872913 342.03125,66.875 C 341.71696,66.877082 341.43277,66.91037 341.125,66.9375 C 322.04564,68.618282 320.09335,128.63613 299.28125,129.0625 C 271.96147,122.63741 282.13285,71.797119 254.40625,66.9375 C 253.75398,66.866449 253.1468,66.88324 252.53125,66.9375 C 233.45193,68.618282 231.4996,128.63613 210.6875,129.0625 C 182.59098,120.73287 199.54764,82.032601 167.75,68.4375 C 167.48036,68.413906 167.21377,68.379355 166.9375,68.375 C 144.90548,68.033014 145.27042,131.93479 123.40625,131.71875 C 102.47832,130.39801 100.83529,69.161249 80.40625,66.9375 C 80.080108,66.902018 79.75176,66.872913 79.4375,66.875 z M 79.4375,304.875 C 79.123249,304.87708 78.83902,304.91037 78.53125,304.9375 C 59.451929,306.61829 57.499597,366.63613 36.6875,367.0625 C 20.461453,367.40052 16.180085,331.64892 5.21875,314.875 C 12.741413,368.74685 31.13016,415.52487 55.28125,455.71875 C 62.428553,437.45344 67.705669,413.42784 80.75,413.3125 C 108.2601,423.66607 92.86892,464.00976 122.875,478.625 C 151.98735,468.28259 140.26083,425.06828 168.75,410.53125 C 168.91588,410.54096 169.08663,410.54444 169.25,410.5625 C 195.0872,424.82395 182.58094,464.55444 211.46875,478.625 C 243.48424,474.9434 227.0497,415.89583 254.75,413.3125 C 281.72368,418.82487 272.48266,472.3925 299.875,475.96875 C 321.49866,476.91801 322.13218,413.50005 343.34375,413.3125 C 370.85383,423.66607 355.46266,464.00976 385.46875,478.625 C 411.97611,471.10628 408.08686,413.4337 431.34375,410.53125 C 431.50966,410.54096 431.68035,410.54444 431.84375,410.5625 C 451.4716,412.73733 452.93374,475.04942 473.875,475.96875 C 476.70443,476.09295 479.17155,475.10698 481.375,473.3125 C 503.75832,453.9703 490.49365,429.66805 517.34375,413.3125 C 530.98885,413.19185 536.26728,438.54271 544.15625,456.65625 C 569.06607,415.45609 587.93517,367.30768 595.21875,311.65625 C 582.49927,326.67059 579.40764,368.56954 561.40625,369.71875 C 539.12267,371.1414 537.88146,307.21043 517,304.9375 C 516.34774,304.86646 515.74055,304.88324 515.125,304.9375 C 496.04569,306.61829 494.09336,366.63613 473.28125,367.0625 C 446.00155,359.42582 461.26862,320.63111 431.1875,306.375 C 430.90552,306.37583 430.61858,306.41672 430.34375,306.4375 C 430.07416,306.4139 429.80752,306.37936 429.53125,306.375 C 402.0262,309.4221 418.50098,350.64422 386.5,369.71875 C 359.96757,362.80035 368.28971,311.3859 343,304.9375 C 342.67382,304.90203 342.34551,304.87291 342.03125,304.875 C 341.71696,304.87708 341.43277,304.91037 341.125,304.9375 C 322.04564,306.61829 320.09335,366.63613 299.28125,367.0625 C 271.96147,360.63741 282.13285,309.79712 254.40625,304.9375 C 253.75398,304.86646 253.1468,304.88324 252.53125,304.9375 C 233.45193,306.61829 231.4996,366.63613 210.6875,367.0625 C 182.59098,358.73287 199.54764,320.0326 167.75,306.4375 C 167.48036,306.4139 167.21377,306.37936 166.9375,306.375 C 144.90548,306.03303 145.27042,369.93479 123.40625,369.71875 C 102.47832,368.39801 100.83529,307.16125 80.40625,304.9375 C 80.080108,304.90203 79.75176,304.87291 79.4375,304.875 z M 253.46875,540.875 C 253.15848,540.8771 252.83902,540.91037 252.53125,540.9375 C 233.45192,542.61826 231.4996,602.63613 210.6875,603.0625 C 182.59099,594.73288 199.54764,556.0326 167.75,542.4375 C 167.48037,542.4139 167.21377,542.37936 166.9375,542.375 C 158.12387,542.23819 152.90839,552.38614 148.40625,564.59375 C 223.80739,629.78449 299.99999,658.49999 300,658.5 C 300,658.5 375.4194,630.10435 450.4375,565.625 C 447.27353,556.39717 442.37796,547.67841 431.1875,542.375 C 430.90553,542.3758 430.61858,542.41672 430.34375,542.4375 C 430.07417,542.4139 429.80752,542.37936 429.53125,542.375 C 402.02621,545.42207 418.50098,586.64422 386.5,605.71875 C 359.96758,598.80036 368.28971,547.3859 343,540.9375 C 342.67383,540.902 342.34551,540.87291 342.03125,540.875 C 341.71697,540.87711 341.43277,540.91037 341.125,540.9375 C 322.04565,542.61826 320.09335,602.63613 299.28125,603.0625 C 271.96148,596.63742 282.13285,545.79712 254.40625,540.9375 C 254.08011,540.90197 253.77902,540.8729 253.46875,540.875 z " transform="matrix(2.00308,0,0,1.1021,213.352,419.511)" id="path36946"/>
    </g>
    <g style="fill:#000000;fill-opacity:1;stroke:#313131;stroke-opacity:1" id="g1907" inkscape:label="Calque 1" transform="matrix(0.38665423,0,0,0.38665423,-52.289777,85.572444)">
      <g style="fill:#000000;fill-opacity:1;stroke:#313131;stroke-opacity:1" transform="matrix(-0.647169,0,0,0.647169,660.5028,212.0972)" id="g5482">
        <path inkscape:connector-curvature="0" style="fill:#000000;fill-opacity:1;stroke:#313131;stroke-width:4.83307886;stroke-miterlimit:4;stroke-opacity:1;stroke-dasharray:none" d="m 64.271039,552.88889 10.530597,-0.91658 c 2.484931,1.62824 5.841264,2.96046 7.458506,2.96046 3.508429,0 12.724486,4.89432 18.370388,9.75584 5.14647,4.43138 5.15255,8.91443 0.0183,13.6976 -3.642149,3.39329 -5.454391,3.65249 -18.479524,2.6431 -23.862824,-1.84918 -31.504221,-6.4792 -40.7537,-24.69297 -4.379684,-8.62451 -5.23822,-12.49947 -5.23822,-23.64192 l 0,-13.32668 -11.268055,-2.33127 c -6.197355,-1.28218 -14.107558,-3.72816 -17.5781076,-5.43553 -3.4706171,-1.70735 -10.2587602,-5.02847 -15.0847724,-7.38026 -4.825935,-2.35181 -10.910738,-6.59203 -13.521686,-9.42279 -5.832941,-6.32413 -7.074654,-7.45625 -13.274816,-12.10289 -5.662232,-4.24338 -10.996818,-14.36803 -10.089641,-19.14898 0.396632,-2.09063 2.539391,-3.48376 5.957744,-3.87351 5.647484,-0.64394 18.969796,2.9957 18.969796,5.18247 0,1.9981 17.2530989,8.94785 22.213591,8.94785 2.4296409,0 6.7414065,1.21198 9.581603,2.69323 2.840263,1.48129 7.620218,2.69825 10.622271,2.70433 3.001975,0.006 7.324853,1.31852 9.606183,2.91649 6.36277,4.45664 24.640501,2.78512 32.419098,-2.96478 5.803373,-4.28977 19.201321,-23.05204 23.165987,-32.44142 l 10.886851,-14.73961 c -0.702968,-1.83193 4.300828,-7.29307 8.758658,-11.37626 3.77516,-3.45799 7.32533,-6.28723 7.88907,-6.28723 0.5637,0 2.91734,-3.06202 5.23045,-6.80453 4.15004,-6.71496 34.64767,-29.28951 39.53605,-29.2649 1.27904,0.006 5.3356,-1.51617 9.01441,-3.38361 3.67896,-1.8674 14.50594,-5.51826 24.05995,-8.11299 15.24909,-4.14145 20.79559,-4.7177 45.4087,-4.7177 21.39576,0 31.46459,0.81849 42.50323,3.45497 7.95604,1.90026 15.48231,4.0834 16.72508,4.85145 2.16992,1.34112 9.31338,2.90505 26.73027,5.85213 4.46228,0.75502 10.1412,2.49666 12.62018,3.8703 4.4271,2.45314 9.9563,3.546 35.15631,6.94892 6.94111,0.93734 30.22972,1.46011 51.75244,1.16185 l 39.13218,-0.54235 9.54581,-5.69438 c 11.40911,-6.806 25.4791,-17.1151 44.70202,-32.75334 4.46212,-3.63003 12.57513,-8.82362 18.02882,-11.54134 5.45378,-2.71769 11.78978,-6.40639 14.08009,-8.19708 6.46429,-5.05414 38.35301,-14.28763 49.3028,-14.27577 13.59527,0.0148 30.34351,3.02388 33.77138,6.06769 1.59835,1.41916 10.20765,6.37198 19.13191,11.00627 8.92433,4.63428 18.25437,10.27865 20.73322,12.54304 2.47898,2.2644 7.14405,5.62378 10.36661,7.4653 5.27272,3.01299 5.85943,4.17645 5.85943,11.62027 0,7.15931 -0.87779,9.10782 -6.52509,14.4851 -3.58882,3.41717 -7.65619,8.84979 -9.03865,12.07242 -1.61287,3.75975 -3.77853,5.85937 -6.04362,5.85937 l -8.45258,0 -9.39248,0 -13.6432,0 -26.98475,0 c -22.23581,0 -29.05005,2.68539 -52.21606,20.57761 -7.81398,6.0351 -16.33266,12.52695 -18.93036,14.42631 -2.59764,1.8994 -8.171,6.73327 -12.38519,10.742 l -7.66228,7.28858 0,14.24049 c 0,21.72778 4.42416,37.40225 12.89029,45.6692 6.40662,6.256 8.00432,6.87867 20.77899,8.09889 13.92164,1.32981 22.62997,5.30949 23.54249,10.75876 0.23147,1.3823 -1.72984,4.94714 -4.35864,7.92193 l -4.77948,5.40866 -22.68462,0 c -20.62496,0 -23.29862,-0.38168 -29.44556,-4.20356 -3.71845,-2.31192 -6.76073,-4.98551 -6.76073,-5.94128 0,-0.95584 -2.04383,-3.78158 -4.54182,-6.27951 -2.49781,-2.49787 -4.06021,-5.3207 -3.47178,-6.27278 0.58845,-0.95216 0.34159,-1.50827 -0.54851,-1.23578 -2.26943,0.6946 -16.94133,-16.55096 -15.73773,-18.49836 2.07428,-3.35625 -10.20742,2.4582 -15.36086,7.2722 -6.326,5.9094 -6.72574,9.70139 -1.80578,17.13019 1.97014,2.97479 3.58735,6.68706 3.59383,8.24947 0.007,1.56244 1.8896,4.60478 4.18461,6.76083 3.42691,3.2194 6.33123,3.92004 16.25054,3.92004 6.6427,0 13.48638,0.67912 15.20828,1.50918 1.72181,0.83007 6.37579,3.06113 10.34213,4.95797 6.20872,2.96912 7.28731,4.35411 7.75622,9.95957 0.4954,5.92254 -0.0466,6.7914 -5.99935,9.61616 -7.77973,3.69169 -32.72654,5.15165 -43.02703,2.51805 -8.42572,-2.15427 -21.44224,-10.04674 -20.11384,-12.19601 0.52158,-0.84409 -0.46255,-1.42349 -2.18716,-1.28759 -1.73425,0.13672 -2.91425,-0.81988 -2.64023,-2.14042 0.27242,-1.31317 -0.37007,-1.85277 -1.42761,-1.19912 -1.8067,1.11656 -28.74109,-21.4815 -37.1756,-31.19035 -3.46185,-3.98485 -5.84149,-4.58592 -23.43752,-5.9197 -10.77161,-0.81652 -23.23542,-2.39603 -27.69764,-3.50996 -11.31372,-2.82443 -92.38397,-0.74528 -103.69708,2.65947 -4.55591,1.3711 -13.30869,5.62081 -19.45072,9.44374 -6.14194,3.82296 -12.48116,7.74239 -14.08703,8.70987 -1.60574,0.96746 -9.774,6.42398 -18.15142,12.12562 -10.8224,7.36555 -16.92699,10.36661 -21.08707,10.36661 -8.20738,0 -12.82978,2.93345 -12.82978,8.14204 0,5.22828 1.78977,5.74851 23.60042,6.85987 15.49377,0.78945 22.25031,2.91064 26.37236,8.27936 2.98554,3.88864 2.86063,7.36781 -0.26462,7.36781 -1.41654,0 -3.64765,1.01409 -4.95788,2.25359 -1.31028,1.23951 -4.41072,3.16671 -6.8897,4.28273 -14.20161,6.39351 -14.7293,6.47394 -31.24312,4.76199 -8.5641,-0.88785 -35.70804,-16.62471 -40.47039,-23.46303 -3.41073,-4.89749 -7.79118,-15.80534 -6.81842,-16.97895 0.27526,-0.33217 0.98329,-2.63223 1.57322,-5.11118 l 1.07285,-4.50725 -23.80595,-0.44648 c -29.641544,-0.55593 -44.460076,-1.57393 -46.030887,-3.16213 l 2.542126,7.87487 z" id="path1900" sodipodi:nodetypes="ccssssscccssssssssssssccsssssssssssscccssssssssssscccccsscccssscccsssssssssssssssssssssssssssssssssscssccccc"/>
        <path inkscape:connector-curvature="0" style="fill:#000000;fill-opacity:1;fill-rule:evenodd;stroke:#313131;stroke-width:3;stroke-linecap:butt;stroke-linejoin:miter;stroke-miterlimit:4;stroke-opacity:1;stroke-dasharray:none" d="m 583.21429,355.93361 c -9.56238,-5.95654 -10.5269,-24.3142 7.03292,-35.93516 4.52199,-2.99263 12.34019,-3.07727 23.68136,-1.2077" id="path3692" sodipodi:nodetypes="csc"/>
        <path inkscape:connector-curvature="0" style="fill:#000000;fill-opacity:1;fill-rule:evenodd;stroke:#313131;stroke-width:3;stroke-linecap:butt;stroke-linejoin:miter;stroke-miterlimit:4;stroke-opacity:1;stroke-dasharray:none" d="m 637.14286,354.50504 c 5,0.71429 11.16072,2.41071 15,1.07143 6.23523,-4.20201 -2.64168,-9.68159 -7.14286,-10 -6.20665,-2.98109 -22.10313,7.78533 -7.85714,8.92857 z" id="path3694" sodipodi:nodetypes="cccc"/>
        <path inkscape:connector-curvature="0" style="fill:#000000;fill-opacity:1;fill-rule:evenodd;stroke:#313131;stroke-width:3;stroke-linecap:butt;stroke-linejoin:miter;stroke-miterlimit:4;stroke-opacity:1;stroke-dasharray:none" d="m 681.78572,353.43361 -3.92858,6.42857 -0.35714,10 5.71429,5.71429 5.35714,-4.64286 0.35714,-11.07143 -7.14285,-6.42857 z" id="path3696" sodipodi:nodetypes="ccccccc"/>
        <path inkscape:connector-curvature="0" style="fill:#000000;fill-opacity:1;fill-rule:evenodd;stroke:#313131;stroke-width:2;stroke-linecap:butt;stroke-linejoin:miter;stroke-miterlimit:4;stroke-opacity:1;stroke-dasharray:none" d="m 657.14286,374.86218 c -15.20132,6.46693 -25.25882,19.1356 -30,30.35715" id="path3698" sodipodi:nodetypes="cc"/>
        <path inkscape:connector-curvature="0" style="fill:#000000;fill-opacity:1;fill-rule:evenodd;stroke:#313131;stroke-width:2;stroke-linecap:butt;stroke-linejoin:miter;stroke-miterlimit:4;stroke-opacity:1;stroke-dasharray:none" d="m 662.14286,376.6479 c -10.52108,7.38572 -20.73139,15.01315 -22.85715,28.92857" id="path3700" sodipodi:nodetypes="cc"/>
        <path inkscape:connector-curvature="0" style="fill:#000000;fill-opacity:1;fill-rule:evenodd;stroke:#313131;stroke-width:2;stroke-linecap:butt;stroke-linejoin:miter;stroke-miterlimit:4;stroke-opacity:1;stroke-dasharray:none" d="m 667.5,377.36218 c -10.4071,8.57143 -12.85665,17.14286 -12.85714,25.71429" id="path3702" sodipodi:nodetypes="cc"/>
        <path inkscape:connector-curvature="0" style="fill:#000000;fill-opacity:1;fill-rule:evenodd;stroke:#313131;stroke-width:2;stroke-linecap:butt;stroke-linejoin:miter;stroke-miterlimit:4;stroke-opacity:1;stroke-dasharray:none" d="m 671.78572,379.50504 c -6.91234,9.04762 -11.95246,18.09524 -10.35715,27.14286" id="path3704" sodipodi:nodetypes="cc"/>
        <path inkscape:connector-curvature="0" style="fill:#000000;fill-opacity:1;fill-rule:evenodd;stroke:#313131;stroke-width:2;stroke-linecap:butt;stroke-linejoin:miter;stroke-miterlimit:4;stroke-opacity:1;stroke-dasharray:none" d="m 675.71429,384.50504 -22.14286,-2.5" id="path3706"/>
        <path inkscape:connector-curvature="0" style="fill:#000000;fill-opacity:1;fill-rule:evenodd;stroke:#313131;stroke-width:4.83307886;stroke-linecap:butt;stroke-linejoin:miter;stroke-miterlimit:4;stroke-opacity:1;stroke-dasharray:none" d="m 36.365492,518.49656 c 28.115913,-3.16002 56.231825,-3.56916 84.347738,0 15.62013,6.28067 17.71923,14.14737 19.30494,22.24874 0.64031,3.27135 -3.52864,6.8279 -8.19326,8.05584 l 0,0" id="path4593" sodipodi:nodetypes="ccscc"/>
        <path inkscape:connector-curvature="0" style="fill:#000000;fill-opacity:1;fill-rule:evenodd;stroke:#313131;stroke-width:4.83307886;stroke-linecap:butt;stroke-linejoin:miter;stroke-miterlimit:4;stroke-opacity:1;stroke-dasharray:none" d="m 518.20826,448.79604 c -9.95797,29.37084 -36.12833,37.21103 -36.03374,48.99239" id="path4595" sodipodi:nodetypes="cc"/>
      </g>
    </g>
  </g>
  <g inkscape:groupmode="layer" id="layer4" inkscape:label="Meubles"/>
  <g inkscape:groupmode="layer" id="layer2" inkscape:label="Reflet final" sodipodi:insensitive="true">
    <path sodipodi:nodetypes="cccccc" d="M 300.00001,658.5 C 300.00001,658.5 598.50001,546.17969 598.50001,260.72817 C 598.50001,-24.723334 598.50001,2.1764865 598.50001,2.1764865 L 1.5,2.1764865 L 1.5,260.72817 C 1.5,546.17969 300.00001,658.5 300.00001,658.5 z " style="opacity: 1; fill: url(#radialGradient3163) rgb(0, 0, 0); fill-opacity: 1; fill-rule: evenodd; stroke: none; stroke-width: 1px; stroke-linecap: butt; stroke-linejoin: miter; stroke-opacity: 1;" id="path2875" inkscape:export-xdpi="144" inkscape:export-ydpi="144"/>
  </g>
  <g inkscape:groupmode="layer" id="layer1" inkscape:label="Contour final" sodipodi:insensitive="true">
    <path sodipodi:nodetypes="cccccc" d="M 299.99999,658.50028 C 299.99999,658.50028 1.5,546.17992 1.5,260.72828 C 1.5,-24.723336 1.5,2.1764957 1.5,2.1764957 L 598.49999,2.1764957 L 598.49999,260.72828 C 598.49999,546.17992 299.99999,658.50028 299.99999,658.50028 z " style="opacity: 1; fill: none; fill-opacity: 1; fill-rule: evenodd; stroke: rgb(0, 0, 0); stroke-width: 3; stroke-linecap: butt; stroke-linejoin: miter; stroke-miterlimit: 4; stroke-dasharray: none; stroke-opacity: 1;" id="path1411" inkscape:export-xdpi="144" inkscape:export-ydpi="144"/>
  </g>
</svg>