<?xml version="1.0" encoding="UTF-8" standalone="no"?>
<!-- Generator: Adobe Illustrator 25.4.1, SVG Export Plug-In . SVG Version: 6.00 Build 0)  -->

<svg
   version="1.1"
   id="Layer_1"
   x="0px"
   y="0px"
   viewBox="0 0 640 479.99998"
   xml:space="preserve"
   sodipodi:docname="bootlogo.svg"
   inkscape:version="1.3.2 (091e20ef0f, 2023-11-25)"
   width="640"
   height="480"
   inkscape:export-filename="bootlogo-gc-black.png"
   inkscape:export-xdpi="96"
   inkscape:export-ydpi="96"
   xmlns:inkscape="http://www.inkscape.org/namespaces/inkscape"
   xmlns:sodipodi="http://sodipodi.sourceforge.net/DTD/sodipodi-0.dtd"
   xmlns="http://www.w3.org/2000/svg"
   xmlns:svg="http://www.w3.org/2000/svg"><defs
   id="defs20952" /><sodipodi:namedview
   id="namedview20950"
   pagecolor="#505050"
   bordercolor="#eeeeee"
   borderopacity="1"
   inkscape:showpageshadow="0"
   inkscape:pageopacity="0"
   inkscape:pagecheckerboard="0"
   inkscape:deskcolor="#505050"
   showgrid="false"
   inkscape:zoom="2"
   inkscape:cx="342.75"
   inkscape:cy="209.75"
   inkscape:window-width="1366"
   inkscape:window-height="697"
   inkscape:window-x="-8"
   inkscape:window-y="-8"
   inkscape:window-maximized="1"
   inkscape:current-layer="Layer_1"
   inkscape:export-bgcolor="#ffffff00" />
<style
   type="text/css"
   id="style20921">
	.st0{fill:#232F95;}
	.st1{fill:#FFFFFF;}
	.st2{fill:url(#SVGID_1_);}
	.st3{fill:url(#SVGID_00000111155831620639866600000003921391370441781127_);}
	.st4{fill:url(#SVGID_00000102505985199485770770000002354646192602757268_);}
	.st5{fill:url(#SVGID_00000125576369834967694360000008750145347336252329_);}
	.st6{fill:url(#SVGID_00000135687819843697360640000006178138543656851584_);}
	.st7{fill:url(#SVGID_00000159466921493868720810000014016182508573058443_);}
	.st8{fill:url(#SVGID_00000005963664294035192360000010232689159189231764_);}
	.st9{fill:url(#SVGID_00000028289871621437128210000015079656264657254296_);}
	.st10{fill:url(#SVGID_00000179622374488693294260000006428509399074704771_);}
	.st11{fill:url(#SVGID_00000129184652046110450460000006664022786634611385_);}
	.st12{fill:url(#SVGID_00000047040353598646357520000015233783875449208982_);}
	.st13{fill:url(#SVGID_00000128465994653147609660000002356153413276012958_);}
	.st14{fill:url(#SVGID_00000124843515884733181300000000975493194917203862_);}
	.st15{fill:url(#SVGID_00000041287490194169250410000016737827370745144460_);}
	.st16{fill:url(#SVGID_00000165236041691446987680000005084904786898057381_);}
	.st17{fill:url(#SVGID_00000183949014214310268350000009609324948710083971_);}
	.st18{fill:url(#SVGID_00000088851781461254300500000006851920764484114564_);}
	.st19{fill:url(#SVGID_00000096027901367377455620000006351458748177850772_);}
	.st20{fill:url(#SVGID_00000163045006492054414240000015303733003173297815_);}
	.st21{fill:url(#SVGID_00000124133705642821249080000004768747987113346205_);}
	.st22{fill:url(#SVGID_00000114768731945875480620000002539457988870048659_);}
	.st23{fill:url(#SVGID_00000163073950339811047650000017515012285716990100_);}
	.st24{fill:url(#SVGID_00000068637302818759395650000014331928639785075880_);}
	.st25{fill:url(#SVGID_00000080905215484906015530000016757500179074461873_);}
	.st26{fill:url(#SVGID_00000088820663036675996100000005074625290124592516_);}
	.st27{fill:url(#SVGID_00000158750510226715191150000015296448661273174697_);}
	.st28{fill:url(#SVGID_00000031207955803517378350000003532800925294346134_);}
	.st29{fill:url(#SVGID_00000041999318073065795220000001098796282890510479_);}
	.st30{fill:url(#SVGID_00000110430823044379712300000013858908252337647505_);}
	.st31{fill:url(#SVGID_00000103946264971653337990000008553512655500450239_);}
	.st32{fill:url(#SVGID_00000127760133219926337850000009198919923678461341_);}
	.st33{fill:url(#SVGID_00000126297753265187848600000004104448924967569591_);}
	.st34{fill:url(#SVGID_00000008833277450093800480000006217495151914939835_);}
	.st35{fill:url(#SVGID_00000036966391068821537410000008439398539339995543_);}
	.st36{fill:url(#SVGID_00000055670748804823379960000007551668827257974413_);}
	.st37{fill:url(#SVGID_00000172424596269058316640000000819781847684258444_);}
	.st38{fill:url(#SVGID_00000125586925699360725690000003283789030693180817_);}
	.st39{fill:url(#SVGID_00000027571041272524568500000015298002476423181199_);}
	.st40{fill:url(#SVGID_00000071545189202617430810000006534817371035438255_);}
	.st41{fill:url(#SVGID_00000156550682698456145650000007087030678488582536_);}
	.st42{fill:url(#SVGID_00000095320764000114775570000009462233817454140032_);}
	.st43{fill:url(#SVGID_00000102514523281597422960000009377680344598390149_);}
	.st44{fill:url(#SVGID_00000084507588244482266580000007917685195985323912_);}
	.st45{fill:url(#SVGID_00000178924607815115377220000004428381974945017266_);}
	.st46{fill:url(#SVGID_00000148646060500486268460000013146237913309537927_);}
	.st47{fill:url(#SVGID_00000152958648000672291710000015307639916022133377_);}
	.st48{fill:url(#SVGID_00000178917258206351504470000004291504326095087241_);}
	.st49{fill:url(#SVGID_00000178920245088709297140000016680930745378489738_);}
	.st50{fill:url(#SVGID_00000129917159589641049260000018090883685744880809_);}
	.st51{fill:url(#SVGID_00000181071821584505362330000017030227939017686438_);}
	.st52{fill:url(#SVGID_00000003816609578286839430000004440517338844064178_);}
	.st53{fill:url(#SVGID_00000021816503937097817170000013819552135466679221_);}
	.st54{fill:url(#SVGID_00000183951145400811889200000000618121169936689853_);}
	.st55{fill:url(#SVGID_00000101102539219882780450000003719937841384861058_);}
	.st56{fill:url(#SVGID_00000183961910716279688730000007112395034997792932_);}
	.st57{fill:url(#SVGID_00000162336997367908664000000007940044183100875179_);}
	.st58{fill:url(#SVGID_00000039130677364185276490000014266969434623134374_);}
	.st59{fill:url(#SVGID_00000047783105738019130320000014633016404570536366_);}
	.st60{fill:url(#SVGID_00000011750337611780726570000013502693707846538137_);}
	.st61{fill:url(#SVGID_00000006674794806524696930000013371361977527028413_);}
	.st62{fill:url(#SVGID_00000098904343007380300770000012479348707845482397_);}
	.st63{fill:url(#SVGID_00000087386093682477674360000002336906702549373321_);}
	.st64{fill:url(#SVGID_00000108294489057082372310000002383317667675496592_);}
	.st65{fill:url(#SVGID_00000051368249315405644690000018399974361766161031_);}
	.st66{fill:url(#SVGID_00000105418064807748624940000016306381836752136368_);}
	.st67{fill:url(#SVGID_00000072261679962212305160000008286479038696224427_);}
	.st68{fill:url(#SVGID_00000172398841209935902020000013900518959160018855_);}
	.st69{fill:url(#SVGID_00000062900436345161915750000011648221797971493037_);}
	.st70{fill:url(#SVGID_00000086664128717373690090000008150238684107899795_);}
	.st71{fill:url(#SVGID_00000160869930361446154990000016295628700523454863_);}
	.st72{fill:url(#SVGID_00000048486344557370565360000001513219322901257088_);}
	.st73{fill:url(#SVGID_00000005232601554370661190000008017184386436351408_);}
	.st74{fill:url(#SVGID_00000013908650767259040260000003808282214285952898_);}
	.st75{fill:url(#SVGID_00000085933251674414256090000013505591597167484057_);}
	.st76{fill:url(#SVGID_00000103949561111187055810000007498985008643805856_);}
	.st77{fill:url(#SVGID_00000111162032036420683190000000576236652284246432_);}
	.st78{fill:url(#SVGID_00000018218533963572417340000016835114783246867348_);}
	.st79{fill:url(#SVGID_00000003820356082619591960000001786236105030194878_);}
	.st80{fill:url(#SVGID_00000029757529805245030930000010474722249145135003_);}
	.st81{fill:url(#SVGID_00000117646066925799794250000013554168195865380996_);}
	.st82{fill:url(#SVGID_00000146496031361196703130000011610327754578062980_);}
	.st83{fill:url(#SVGID_00000075842378248539174930000003841841825330425009_);}
	.st84{fill:url(#SVGID_00000146488613654166133080000015835284975911055546_);}
	.st85{fill:url(#SVGID_00000174569748824825321370000009608438536170211767_);}
	.st86{fill:url(#SVGID_00000157994016389690208890000009553073283184751281_);}
	.st87{fill:url(#SVGID_00000088094735364594042250000002096994546538596252_);}
	.st88{fill:url(#SVGID_00000090993358089488101030000006045381561970617233_);}
	.st89{fill:url(#SVGID_00000003793881244704239660000010595431425589047197_);}
	.st90{fill:url(#SVGID_00000162311091279547178500000002421070925260168856_);}
	.st91{fill:url(#SVGID_00000172425013629557192010000005610618577153827723_);}
	.st92{fill:url(#SVGID_00000137116299466360090930000016766031387689321628_);}
	.st93{fill:url(#SVGID_00000168088746249613359380000017579993072394198454_);}
	.st94{fill:url(#SVGID_00000101808790435370140940000013666140995899031700_);}
	.st95{fill:url(#SVGID_00000176037820640440460690000015979205908963633026_);}
	.st96{fill:url(#SVGID_00000087378839378056133700000005665762503503259047_);}
	.st97{fill:url(#SVGID_00000137810388604049265580000015261360802731522949_);}
	.st98{fill:url(#SVGID_00000044173014407537582350000016531263900444008069_);}
	.st99{fill:url(#SVGID_00000121271349619948359980000001219976659143107457_);}
	.st100{fill:url(#SVGID_00000164511126829033100200000015337641773915872140_);}
	.st101{fill:url(#SVGID_00000036932241071343100240000007765938015855361981_);}
	.st102{fill:#502F8E;}
	.st103{fill:url(#SVGID_00000036251372296742234340000014290761139889725370_);}
	.st104{fill:url(#SVGID_00000008853054678031311610000018428472253974207400_);}
	.st105{fill:url(#SVGID_00000008846118374973541120000007210839448657387933_);}
	.st106{fill:url(#SVGID_00000106838263182621147290000015255230233791138183_);}
	.st107{fill:url(#SVGID_00000001630684608283675680000014164515598874084763_);}
	.st108{fill:url(#SVGID_00000137108355812556031780000009080209647651570110_);}
	.st109{fill:url(#SVGID_00000057830678313007710010000012017431246686948227_);}
	.st110{fill:url(#SVGID_00000170957859364850771090000003402348167107545257_);}
	.st111{fill:url(#SVGID_00000077287843655987309490000016789832724607440032_);}
	.st112{fill:url(#SVGID_00000072281100655539002790000007952468819740287620_);}
	.st113{fill:url(#SVGID_00000040573812978061329810000009577814239215475644_);}
	.st114{fill:url(#SVGID_00000079460190444506935780000004048075949219445675_);}
	.st115{fill:url(#SVGID_00000060744903777669835370000005615353148602590893_);}
	.st116{fill:url(#SVGID_00000021106302835952826970000009317184489639367834_);}
	.st117{fill:url(#SVGID_00000057867512656273821160000010457436725358317478_);}
	.st118{fill:url(#SVGID_00000119106398411782732590000017792179888989095298_);}
	.st119{fill:url(#SVGID_00000124153508231584034930000004731654696319087802_);}
	.st120{fill:url(#SVGID_00000058559845969719811410000015315788278890198680_);}
	.st121{fill:url(#SVGID_00000056385410202062330420000006334104535532994188_);}
	.st122{fill:url(#SVGID_00000093879957888941137650000003359491328662500792_);}
	.st123{fill:url(#SVGID_00000031208541866598604000000004047747697763873939_);}
	.st124{fill:url(#SVGID_00000061453077900063386580000002044776417746415239_);}
	.st125{fill:url(#SVGID_00000146500507757214854560000004821689623512530870_);}
	.st126{fill:url(#SVGID_00000003819639602468096780000013144772823472034977_);}
	.st127{fill:url(#SVGID_00000023959699375140884670000000155761568448343426_);}
	.st128{fill:url(#SVGID_00000180354571358538470330000001732809884278679987_);}
	.st129{fill:url(#SVGID_00000010284858850122035510000012679714933227294653_);}
	.st130{fill:url(#SVGID_00000139994528720323636910000007254416428379876001_);}
	.st131{fill:url(#SVGID_00000132808203613443972280000018265625857570661013_);}
	.st132{fill:url(#SVGID_00000181083466188099018210000011444804181829572287_);}
	.st133{fill:url(#SVGID_00000062875186091174252910000010669617004798679169_);}
	.st134{fill:url(#SVGID_00000111893472098060429360000000449394970850741140_);}
	.st135{fill:url(#SVGID_00000011005684254518352090000015286956151922343317_);}
	.st136{fill:url(#SVGID_00000160910139417218591810000006428271600538982559_);}
	.st137{fill:url(#SVGID_00000182499564561159479270000018326699335767706018_);}
	.st138{fill:url(#SVGID_00000076572742602134104350000011969449675760683653_);}
	.st139{fill:url(#SVGID_00000085961956969031056220000010642492123210370737_);}
	.st140{fill:url(#SVGID_00000072999152562050466670000011944965775155081629_);}
	.st141{fill:url(#SVGID_00000065767854046803778070000005075415008300119986_);}
	.st142{fill:url(#SVGID_00000041280786202012134260000015534635522609991090_);}
	.st143{fill:url(#SVGID_00000119103165187408034730000004583305741708083856_);}
	.st144{fill:url(#SVGID_00000016790521302516327010000011088643622070453408_);}
	.st145{fill:url(#SVGID_00000044888601943264166920000007970902295563136442_);}
	.st146{fill:url(#SVGID_00000169519328610677799880000007976115787783773866_);}
	.st147{fill:url(#SVGID_00000127027828053358944170000005650972635310499226_);}
	.st148{fill:url(#SVGID_00000054968186400808332450000007313695073981143216_);}
	.st149{fill:url(#SVGID_00000093163734951847127200000000889793317580350393_);}
	.st150{fill:url(#SVGID_00000128472868284657109780000004296849854750791317_);}
	.st151{fill:url(#SVGID_00000065795392523845977620000011688006695130277024_);}
	.st152{fill:url(#SVGID_00000127725037828641494890000018372380342737851776_);}
	.st153{fill:url(#SVGID_00000047042156146787235430000015653478412568785793_);}
	.st154{fill:url(#SVGID_00000176035722815367847270000004536325122525445540_);}
	.st155{fill:url(#SVGID_00000114058566928871680420000013621696264561814937_);}
	.st156{fill:url(#SVGID_00000016791367835541623010000009022567865681271461_);}
	.st157{fill:url(#SVGID_00000122693304374497811430000012725745249411198853_);}
	.st158{fill:url(#SVGID_00000016760037650210823790000010904899712354793092_);}
	.st159{fill:url(#SVGID_00000098917707943659990530000008221010442896029590_);}
	.st160{fill:url(#SVGID_00000071534127973441870170000007647776391460175517_);}
	.st161{fill:url(#SVGID_00000016782514982678602800000004543400314855856786_);}
	.st162{fill:url(#SVGID_00000134934459143720026360000018372068682464717194_);}
	.st163{fill:url(#SVGID_00000172441850778456384420000009540668683583963829_);}
	.st164{fill:url(#SVGID_00000115503454084374166340000005023665214171221659_);}
	.st165{fill:url(#SVGID_00000103253165500664416640000008802041873136478869_);}
	.st166{fill:url(#SVGID_00000075124601132318590760000003746280980555171756_);}
	.st167{fill:url(#SVGID_00000003816206492500957830000008053413438750542994_);}
	.st168{fill:url(#SVGID_00000161595627094538585830000015870733599908393346_);}
	.st169{fill:url(#SVGID_00000175321398282941928390000008482439895151973548_);}
	.st170{fill:url(#SVGID_00000130625419415949072190000013289145415420521404_);}
</style>
<rect
   style="display:inline;opacity:1;fill:#000000;fill-opacity:1;stroke-width:220;stroke-linecap:square;stroke-dashoffset:2052.18;paint-order:stroke fill markers"
   id="rect1"
   width="640"
   height="480"
   x="0"
   y="0"
   inkscape:label="bg" />
<g
   id="g20947"
   style="display:none"
   inkscape:label="guide"
   transform="matrix(0.11926033,0,0,0.11926033,91.079797,142.80694)">
	<path
   class="st0"
   d="M 3529.5,503.5 3839,16.6 H 3006.3 C 2945,16.9 2883.5,34.5 2827.9,69.2 2805.7,83.1 2785,99.4 2765.7,117.6 2713.1,55 2657.6,16.6 2567.9,16.6 H 1156.6 L 1111.2,156.3 1088,16.6 H 780 L 768.8,42.1 739,31.8 C 577.7,-24.1 421.2,-6.2 273.8,85 120.5,179.9 49.2,328.4 67.8,514.4 c 11.2,111.8 82,211.4 189.5,266.3 31.3,16.1 64.2,27.5 98,34.5 L 0,1414.1 h 991.1 c 157.5,0 253.6,-47.4 307.2,-107.6 l 66.6,107.9 h 978 v -136.8 l 175.9,136.8 h 1207 V 787.5 h -239.3 z"
   id="path20923"
   style="fill:#1900cd;fill-opacity:1" />
	<g
   id="g20935">
		<g
   id="g20933">
			<path
   class="st1"
   d="m 1614,891.7 -3.5,6.3 -145.5,264.3 -154.4,-264.6 -3.5,-6 h -136.5 l 11.2,18.4 26.3,43.3 c -42.1,-40 -106.6,-61.7 -190.5,-61.7 H 742.9 v 343.7 L 539.5,897.9 536,892 H 431 l -3.5,6 -231.4,389.9 -10.9,18.3 h 91 v 0.1 h 202.2 v -91.6 h -119 l 119,-214.7 168.2,300 3.5,6.2 h 135.5 l -0.2,-0.4 h 208.2 c 179.5,0 270.6,-70.1 270.6,-208.4 0,-24 -3.1,-46.2 -9.1,-66.3 l 162.9,268.9 3.5,5.8 h 79.3 l 3.5,-6.1 226.1,-389.9 10.6,-18.2 H 1614 Z M 973.2,1209.3 H 862.7 V 985.6 h 155.7 c 84.2,0 123.5,34.1 123.5,107.1 0,87.1 -42.5,116.6 -168.7,116.6 z"
   id="path20925" />
			<polyline
   class="st1"
   points="2533.8,891.7 2521.7,891.7 2521.7,1138 2210.3,894.2 2207,891.7 2125.3,891.7 2125.3,1235.6      1921.6,897.7 1918,891.8 1813,891.8 1809.5,897.8 1578.1,1287.7 1567.2,1306 1690.6,1306 1690.9,1305.6 1860.7,1305.6      1860.7,1214 1741.6,1214 1860.6,999.8 2028.7,1299.8 2032.2,1306 2167.8,1306 2167.7,1305.8 2236.2,1305.8 2236.2,1056.1      2546.4,1303.2 2549.7,1305.8 2631.2,1305.8 2631.2,891.7 2533.8,891.7    "
   id="polyline20927" />
			<path
   class="st1"
   d="M 3023.8,891.8 H 2781 c -85.2,0 -113.9,26.4 -113.9,104.5 v 205.2 c 0,77.9 28.7,104.3 113.9,104.3 h 242.8 c 85.3,0 114.1,-26.4 114.1,-104.3 v -58.2 l -12.1,-0.1 -95.6,-0.2 H 3018 v 63.8 H 2786.6 V 988.1 H 3018 v 57.5 l 12.2,0.1 95.5,0.3 h 12.2 v -49.9 c 0.1,-78.9 -27.7,-104.3 -114.1,-104.3"
   id="path20929" />
			<polyline
   class="st1"
   points="3611.9,1209.3 3296.7,1209.3 3296.7,1136.7 3484.8,1136.7 3484.8,1045.3 3296.7,1045.3      3296.7,985.5 3619.5,985.5 3619.5,891.8 3176.9,891.8 3176.9,1305.8 3624.1,1305.8 3624.1,1209.3 3611.9,1209.3    "
   id="polyline20931" />
		</g>
	</g>
	<path
   class="st1"
   d="M 1549,119.5 1411.4,443.3 1352,119.5 H 1231.9 L 1076.7,597.2 997.1,119.5 H 847.4 L 620.7,634.1 654.5,419 H 429.2 L 412,529.7 h 94.1 L 495.3,589 c -54,21.5 -145.7,13.4 -184.9,-56.7 -24.8,-44.4 -47.8,-143.7 56.6,-234.8 85,-74.2 232.1,-87.7 317.1,-48.6 0,0 10.8,-62.1 18.9,-120.1 C 539.8,72.1 412.9,119.3 328,172 212.3,243.6 156.6,352.8 171.5,501.1 c 17.2,172.2 240.1,280.7 429,171.4 1.7,-1 3,-1.8 4.3,-2.5 L 587,710.4 h 126.8 l 79.6,-176.7 h 140.3 l 31,176.7 h 206.4 l 105.2,-330.6 67.5,330.6 h 81 l 157.9,-365.6 16.1,365.6 h 121.4 L 1694.6,119.5 H 1549 M 842,419 893.3,304.4 915.5,419 Z"
   id="path20937" />
	<polyline
   class="st1"
   points="1729.8,710.4 2068.4,710.4 2088.7,583.6 1876.8,583.6 1893.6,478.4 2077.9,478.4 2098.1,351.6    1911.9,351.6 1928.1,246.3 2139.9,246.3 2160.2,119.5 1824.2,119.5 1729.8,710.4  "
   id="polyline20939" />
	<polygon
   class="st1"
   points="3427.1,463.5 3645.7,119.5 3504,119.5 3383.9,312.4 3308.4,119.5 3169.4,119.5 3312.4,431.1 3268.4,710.4 3389.8,710.4 "
   id="polygon20941" />
	<path
   class="st1"
   d="m 3052.8,124.6 c -134.6,-31.1 -274.2,76.1 -311.9,239.6 -37.8,163.3 40.8,320.9 175.4,352 134.6,31.1 274.2,-76.1 311.9,-239.5 37.7,-163.4 -40.8,-321 -175.4,-352.1 m 47.5,347.3 c -32.8,98.3 -111.4,154.7 -175.7,126 -64.2,-28.8 -89.7,-131.7 -56.9,-230 32.7,-98.3 111.3,-154.7 175.6,-125.9 64.3,28.7 89.8,131.7 57,229.9 z"
   id="path20943" />
	<path
   class="st1"
   d="m 2571.3,122.8 c -65.6,-1.1 -227.6,0 -227.6,0 h 1.3 l -93.7,586.4 c 0,0 194.2,0 273.1,0 112.5,0 277,-165.8 127.2,-301.1 154,-159.4 1.4,-283.9 -80.3,-285.3 m -71,472.7 c -67,0 -107.1,0 -107.1,0 L 2412,477.6 c 0,0 25.4,0 101.7,0 96.4,0 93.7,117.9 -13.4,117.9 z M 2515,357.1 c -67,0 -84.4,0 -84.4,0 l 18.8,-109.8 c 0,0 2.7,0 79,0 85.7,0 68.3,109.8 -13.4,109.8 z"
   id="path20945" />
</g><g
   id="g31"
   inkscape:label="parts"
   style="display:none"
   transform="translate(-1.0717891,-31.746029)"><g
     id="#df0000ff"
     transform="matrix(1.9405662,0,0,1.9405662,-195.28682,1828.515)"
     style="display:inline"
     inkscape:label="anbernic imported"><path
       fill="#df0000"
       opacity="1"
       d="M 123.18,8.27 C 127.96,5.13 133.47,3.16 139,1.8 c 9.79,-0.46 20.06,-1.52 29.44,2.03 9.05,3.09 16.61,9.96 21.3,18.21 26,46.61 53.19,92.54 79.51,138.98 1.17,2.21 2.67,4.23 4.24,6.17 19.28,-0.08 38.57,-0.21 57.84,0.06 0.35,-53.95 0.09,-107.92 0.13,-161.88 19.86,-0.12 39.71,0 59.57,-0.06 8.75,-0.21 17.21,3.3 24.34,8.17 10.16,7.91 17.42,18.71 26.06,28.12 5.48,7.43 11.69,14.27 17.54,21.4 7.84,10.16 16.43,19.7 24.28,29.85 7.25,8.06 14.1,16.48 20.95,24.88 6.5,8.21 13.69,15.86 19.75,24.42 1.97,2.49 3.95,5.8 7.6,5.62 -0.04,-47.34 0.18,-94.69 -0.11,-142.02 1.79,-0.55 3.61,-1.17 5.52,-1.08 6.01,0.28 12.04,-0.29 18.03,0.44 4.34,-1.08 8.68,0.74 13.01,-0.19 3,-0.64 5.99,0.25 9,0.34 7.29,-1.05 14.67,-0.42 22.01,-0.61 4.02,-0.2 7.97,0.97 12,0.66 6.95,-0.9 14.01,-0.82 20.99,-0.42 4.32,0.93 8.67,-0.93 13.01,0.07 6.66,1.23 13.32,-0.63 20,-0.34 9.33,0.18 18.66,-0.1 27.99,0.13 6.97,1.48 14,-1.15 21,0.3 4.34,0.89 8.65,-0.61 13,-0.42 3.68,-0.01 7.33,1.22 11,0.34 4.32,-0.96 8.67,0.74 13,-0.16 3.99,0.01 8.01,1.08 12.01,0.17 5.99,-1.27 12.01,1.17 17.99,-0.17 7.66,-0.34 15.36,-0.07 23,0.43 4.65,-1.05 9.33,0.51 14,-0.53 9.27,0.7 18.82,1.83 27.09,6.46 8.72,3.78 16.11,10.27 21.62,17.97 4.08,5.44 5.87,12.22 6.63,18.88 0.01,13.66 0.04,27.33 -0.01,40.99 -0.98,7.25 -4,14.83 -10.26,19.1 5.82,5.03 9.25,12.34 10.27,19.89 0.02,14.33 0.03,28.67 0,43.01 -1.34,7.62 -4.17,15.2 -9.35,21.09 -3.71,5.36 -9.38,8.79 -14.76,12.25 -11.69,7.08 -25.72,9.42 -39.23,8.93 -59.67,-0.02 -119.33,0 -179,-0.02 -4.97,-0.03 -10.03,0.53 -14.9,-0.79 0.59,-42.63 -0.08,-85.28 0.34,-127.92 60.18,0.26 120.37,0.04 180.56,0.11 5.32,-0.15 10.67,0.32 15.97,-0.2 3.79,-1.74 2.76,-6.09 2.85,-9.47 -0.08,-6.36 0.05,-12.72 -0.01,-19.08 0.18,-1.94 -1.69,-3.03 -2.94,-4.11 -2.57,-0.62 -5.26,-0.2 -7.87,-0.3 -71.36,0.01 -142.72,0.03 -214.08,-0.01 -1.88,-0.31 -2.7,1.97 -2.38,3.47 0.1,52.6 -0.08,105.2 0.09,157.8 -2.21,0.19 -4.41,0.48 -6.62,0.56 -16.67,-0.09 -33.35,-0.08 -50.02,-0.01 -9.14,-0.07 -18.12,-2.77 -25.94,-7.45 -7.45,-5.07 -13.11,-12.22 -18.72,-19.16 -12.04,-14.34 -23.68,-29.01 -35.76,-43.32 -20.71,-24.4 -40.72,-49.43 -61.44,-73.8 -0.76,0.43 -1.52,0.84 -2.29,1.24 -0.06,47.31 0.03,94.62 -0.04,141.93 -98.34,-0.08 -196.68,0.09 -295.01,-0.09 7.89,-14.22 16.47,-28.06 24.18,-42.39 1.06,-1.53 1.56,-4.25 3.99,-3.72 29.67,-0.08 59.35,0.06 89.03,-0.07 -2.31,-5.33 -5.79,-10.04 -8.53,-15.15 C 192.24,135 182.45,119 173.24,102.66 167.61,93.3 161.83,84.02 156.77,74.33 c -1.58,-2.69 -4.35,-5.47 -7.77,-4.85 -2.07,0.48 -3.43,2.35 -4.62,3.98 -8.6,15.22 -17.37,30.35 -26.32,45.36 -17.62,30.69 -35.35,61.34 -53.07,91.98 -1.22,2.67 -4.51,2.34 -6.96,2.55 -17.02,-0.13 -34.04,-0.13 -51.05,0 -1.99,-0.02 -3.95,-0.45 -5.83,-1.05 3.66,-4.69 6.2,-10.09 9.11,-15.25 12.98,-22.65 26.1,-45.21 38.98,-67.92 20.77,-34.96 40.54,-70.52 61.01,-105.67 2.93,-6.09 7.74,-10.99 12.93,-15.19 M 673.4,131.43 c -0.12,11.7 -0.08,23.4 -0.01,35.1 45.89,0.01 91.78,0 137.67,0.01 2.4,0.28 4.91,-2.02 4.74,-4.46 0.06,-8.38 -0.06,-16.77 0.05,-25.15 0.48,-2.75 -2.1,-5.48 -4.78,-5.49 -45.89,0 -91.78,0.02 -137.67,-0.01 z"
       id="path1"
       style="display:inline" /><path
       fill="#df0000"
       opacity="1"
       d="M 929.05,11.79 C 936.94,7.24 946.09,6 954.97,4.83 963.32,4 971.67,5.6 980,4.69 c 6.34,-0.26 12.66,1.36 19,0.37 7,-1.17 13.99,0.61 21.01,0.29 8.99,-0.16 18.02,0.42 26.98,-0.62 5.33,-0.39 10.67,0.22 16,0.34 5.67,-0.9 11.33,0.47 17.03,0.24 8.32,-0.12 16.65,0.13 24.98,0.02 4,-0.04 7.99,-0.97 12,-0.28 4.67,0.72 9.32,-0.59 14.01,-0.42 5.01,-0.15 9.97,1.11 15,0.56 5.64,-0.8 11.32,0.79 16.99,-0.13 6.32,-1.1 12.66,0.53 19,-0.11 5.67,0.8 11.32,-0.65 17.01,-0.09 4.98,0.58 10.01,-0.74 15,0.2 7,1.03 13.97,-0.79 20.99,-0.39 3.66,0.08 7.33,0.89 11,0.3 9,-1.23 17.99,0.72 27,0.37 10,-0.23 20.04,0.52 30,-0.6 4.34,-0.17 8.66,1.06 13.01,0.26 5.31,-0.83 10.65,0.01 15.98,0.09 6.66,-1.15 13.33,1.01 20.01,-0.05 6.31,-1.01 12.66,0.29 18.99,-0.23 4.68,-0.38 9.33,1.04 14.01,0.23 3.8,-0.67 7.6,0.25 11.35,0.85 11.31,1.72 22.11,6.64 30.99,13.83 8.51,7.31 14.82,17.86 15.18,29.26 -0.04,13.02 -0.06,26.05 0.01,39.07 0.01,8.17 -4.26,15.9 -10.59,20.92 2.64,2.49 5.37,5.07 6.78,8.5 1.9,4.66 2.69,9.68 3.63,14.6 1.76,11.46 4.68,22.78 5.42,34.37 12.2,0.16 24.41,0.13 36.62,0.02 -0.09,-28.15 -0.01,-56.31 -0.04,-84.46 -0.15,-25.48 0.3,-50.97 -0.23,-76.44 7.84,-1.68 15.92,-0.6 23.88,-0.89 10.64,0.82 21.37,1.11 32.01,0.04 10.48,-0.01 21.09,3.28 29.39,9.78 6.25,5.15 11.55,11.33 16.55,17.67 6.47,7.55 12.49,15.46 18.95,23.01 11.63,13.11 22.28,27.05 33.48,40.53 13.62,16.36 27.22,32.77 40.64,49.3 1.3,1.73 3.32,2.53 5.41,2.91 0,-47.51 0.02,-95.01 -0.01,-142.52 48.38,-0.13 96.77,-0.09 145.16,-0.02 -0.28,69.54 0.2,139.09 -0.24,208.63 h -56.65 c -0.31,-54.17 -0.08,-108.35 -0.12,-162.53 -8.2,0.09 -16.41,0.04 -24.61,0.01 -2.49,0.05 -5.02,-0.05 -7.41,0.66 0.5,22.61 0.07,45.24 0.21,67.86 -0.1,31.17 0.21,62.36 -0.15,93.53 -20.2,-0.15 -40.41,0.1 -60.61,-0.11 -9.13,-1.59 -18.34,-4.76 -25.43,-10.93 -5.8,-4.95 -10.43,-11.02 -15.27,-16.85 -12.84,-15.46 -25.36,-31.19 -38.63,-46.28 -17.76,-21.91 -35.95,-43.45 -53.71,-65.35 -1.55,-2.02 -3.68,-3.56 -6.26,-3.78 -0.07,47.77 0.13,95.56 -0.1,143.33 -45.87,-0.17 -91.74,-0.02 -137.61,-0.07 -2.72,0.64 -3.44,-2.46 -3.87,-4.45 -4.53,-23.1 -8.49,-46.31 -13.14,-69.39 -0.52,-3.69 -2.53,-8.19 -6.98,-7.79 -42.36,-0.02 -84.72,0.03 -127.08,-0.03 -1.29,0.03 -2.54,0.14 -3.76,0.44 -0.52,1.14 -0.47,2.42 -0.5,3.65 0.11,25.6 -0.03,51.21 0.08,76.81 -18.81,0 -37.62,0.03 -56.43,-0.02 0.11,-42.41 -0.11,-84.82 0.11,-127.22 62.86,0.23 125.73,0.02 188.59,0.1 3.06,0.42 5.96,-2.52 5.48,-5.58 -0.06,-9.09 0.04,-18.18 -0.12,-27.28 -2.08,-0.52 -4.16,-1.18 -6.31,-1.21 -138.04,-0.03 -276.09,0.01 -414.13,-0.03 -3.13,-0.46 -6.55,2.24 -6.41,5.46 -0.07,9.2 0.04,18.42 -0.01,27.63 66.91,0.23 133.84,-0.05 200.76,0.14 0.06,15.37 -0.27,30.75 0.17,46.11 -4.08,0.94 -8.3,0.58 -12.44,0.61 -62.85,0 -125.7,0 -188.54,0 0.17,9.87 -0.03,19.75 0.05,29.63 -0.22,2.83 2.65,5.57 5.45,5.45 65.11,0.1 130.23,-0.12 195.34,0.11 -0.17,15.79 0.06,31.58 -0.12,47.37 H 950.25 c -5.15,-2.68 -11.14,-2.7 -16.37,-5.13 -7.21,-3.24 -14.32,-7.15 -19.82,-12.93 -7.77,-7.45 -12.93,-18.02 -12.55,-28.91 0.09,-39.65 0.01,-79.31 0.04,-118.97 1.02,-16.22 13.53,-29.36 27.5,-36.27 z"
       id="path2-6" /><path
       fill="#df0000"
       opacity="1"
       d="m 1889.4,12.15 c 9.84,-5.58 21.43,-7.21 32.6,-6.83 56.5,0.09 112.99,-0.17 169.48,0.13 -0.14,14.89 0,29.77 -0.05,44.66 -0.33,0.35 -0.99,1.04 -1.31,1.39 -55.05,0.03 -110.1,0.01 -165.15,0 -2.94,-0.35 -5.9,2.5 -5.45,5.47 0.04,34.69 0.04,69.37 0,104.06 -0.4,2.94 2.47,5.9 5.44,5.52 53.68,-0.06 107.36,0.03 161.04,-0.05 1.86,0.19 4.36,-0.76 5.42,1.4 0.13,14.81 -0.22,29.64 0.16,44.46 -4.71,1.61 -9.73,0.79 -14.58,0.9 -52.67,0.03 -105.34,-0.03 -158.01,0.04 -15.98,-0.51 -32.42,-5.86 -43.65,-17.64 -7.33,-6.53 -11.57,-16.04 -12.78,-25.67 -0.11,-39.33 0.02,-78.66 -0.06,-117.99 -0.41,-8.55 3.11,-16.73 7.55,-23.85 5.35,-6.49 11.65,-12.4 19.35,-16 z"
       id="path3-7" /></g><g
     id="g14"
     style="display:inline"
     inkscape:label="anbernic unaltered"><path
       style="font-size:520px;font-family:GAMECUBEN;-inkscape-font-specification:GAMECUBEN;letter-spacing:-80px;word-spacing:0px;fill:#ff21fa;fill-opacity:0.996324;stroke-width:100;stroke-linejoin:round;stroke-dasharray:2300;stroke-dashoffset:2300;paint-order:markers stroke fill"
       d="m 3994.3177,980.4139 h -282.88 v 240.24 h 283.92 v -87.88 h 101.92 l 0.52,113.88 q 4.68,37.96 -37.96,53.04 -18.2,6.76 -43.68,7.8 -66.56,0.52 -345.8,0 -56.16,0 -60.32,-60.32 1.04,-75.92 0,-306.28 0,-45.76 79.04,-49.4 h 327.6 q 74.36,0 80.08,49.4 v 114.92 h -102.44 z"
       id="path14" /><path
       style="font-size:520px;font-family:GAMECUBEN;-inkscape-font-specification:GAMECUBEN;letter-spacing:-80px;word-spacing:0px;fill:#ff21fa;fill-opacity:0.996324;stroke-width:100;stroke-linejoin:round;stroke-dasharray:2300;stroke-dashoffset:2300;paint-order:markers stroke fill"
       d="m 3448.2377,891.4939 h 121.16 v 416 h -121.16 z"
       id="path13" /><path
       style="font-size:520px;font-family:GAMECUBEN;-inkscape-font-specification:GAMECUBEN;letter-spacing:-80px;word-spacing:0px;fill:#ff21fa;fill-opacity:0.996324;stroke-width:100;stroke-linejoin:round;stroke-dasharray:2300;stroke-dashoffset:2300;paint-order:markers stroke fill"
       d="m 3303.0775,1307.4939 h 105.56 v -416 h -105.56 v 267.28 l -326.56,-267.28 h -103.48 v 416 h 103.48 l 0.52,-275.08 z"
       id="path12" /><path
       style="font-size:520px;font-family:GAMECUBEN;-inkscape-font-specification:GAMECUBEN;letter-spacing:-80px;word-spacing:0px;fill:#ff21fa;fill-opacity:0.996324;stroke-width:100;stroke-linejoin:round;stroke-dasharray:2300;stroke-dashoffset:2300;paint-order:markers stroke fill"
       d="m 2423.6779,1044.3739 h 260 q 15.6,0 15.6,-24.44 v -17.16 q 0,-24.44 -15.6,-24.44 h -260 z m 109.2,99.32 -109.2,0.52 v 163.28 h -108.16 l -0.52,-416 h 443.04 q 41.08,0 44.2,56.16 v 151.84 q 0,41.08 -44.72,44.2 h -76.44 l 165.88,163.8 h -147.68 z"
       id="path11" /><path
       style="font-size:520px;font-family:GAMECUBEN;-inkscape-font-specification:GAMECUBEN;letter-spacing:-80px;word-spacing:0px;fill:#ff21fa;fill-opacity:0.996324;stroke-width:100;stroke-linejoin:round;stroke-dasharray:2300;stroke-dashoffset:2300;paint-order:markers stroke fill"
       d="m 2280.3576,1307.4939 v -91.52 h -332.8 v -74.36 h 195.52 v -90.48 h -196.04 v -74.36 h 334.36 v -85.28 h -442 v 416 z"
       id="path10" /><path
       style="font-size:520px;font-family:GAMECUBEN;-inkscape-font-specification:GAMECUBEN;letter-spacing:-80px;word-spacing:0px;fill:#ff21fa;fill-opacity:0.996324;stroke-width:100;stroke-linejoin:round;stroke-dasharray:2300;stroke-dashoffset:2300;paint-order:markers stroke fill"
       d="m 1799.798,1142.6539 v 110.76 q 0,50.44 -44.2,54.08 h -443.56 v -416 h 443.56 q 41.6,0 44.72,56.16 l -0.52,105.04 q 3.64,41.08 -44.72,44.2 41.6,-2.08 44.72,45.76 z m -378.56,-98.28 h 260 q 15.6,0 15.6,-24.44 v -17.16 q 0,-23.92 -15.6,-23.92 h -260 z m 0,171.08 h 260 q 15.6,0 15.6,-24.44 v -17.16 q 0,-24.44 -15.6,-24.44 h -260 z"
       id="path9" /><path
       style="font-size:520px;font-family:GAMECUBEN;-inkscape-font-specification:GAMECUBEN;letter-spacing:-80px;word-spacing:0px;fill:#ff21fa;fill-opacity:0.996324;stroke-width:100;stroke-linejoin:round;stroke-dasharray:2300;stroke-dashoffset:2300;paint-order:markers stroke fill"
       d="m 1166.8778,1307.4939 h 105.56 v -416 h -105.56 v 267.28 l -326.56002,-267.28 h -103.48 v 416 h 103.48 l 0.52,-275.08 z"
       id="path8" /><path
       style="font-size:520px;font-family:GAMECUBEN;-inkscape-font-specification:GAMECUBEN;letter-spacing:-80px;word-spacing:0px;fill:#ff21fa;fill-opacity:0.996324;stroke-width:100;stroke-linejoin:round;stroke-dasharray:2300;stroke-dashoffset:2300;paint-order:markers stroke fill"
       d="m 302.75796,1307.4939 170.04,-302.12 120.12,214.24 h -120.12 v 87.88 h 306.8 l -37.44,-61.36 -212.16,-354.64 h -113.88 l -236.6,416 z"
       id="text2" /></g><g
     id="g7"
     transform="translate(100.17228,-1608.6051)"
     style="display:inline"
     inkscape:label="advance custom"><path
       style="font-size:520px;font-family:GAMECUBEN;-inkscape-font-specification:GAMECUBEN;letter-spacing:-80px;word-spacing:0px;fill:#ff21fa;fill-opacity:0.996324;stroke-width:100;stroke-linejoin:round;stroke-dasharray:2300;stroke-dashoffset:2300;paint-order:markers stroke fill"
       d="m 3613.2778,1307.4939 v -91.52 h -332.8 v -74.36 h 195.52 v -90.48 h -196.04 v -74.36 h 334.36 v -85.28 h -442 v 416 z"
       id="path7" /><path
       style="font-size:520px;font-family:GAMECUBEN;-inkscape-font-specification:GAMECUBEN;letter-spacing:-80px;word-spacing:0px;fill:#ff21fa;fill-opacity:0.996324;stroke-width:100;stroke-linejoin:round;stroke-dasharray:2300;stroke-dashoffset:2300;paint-order:markers stroke fill"
       d="m 3048.7577,980.4139 h -282.88 v 240.24 h 283.92 v -87.88 h 101.92 l 0.52,113.88 q 4.68,37.96 -37.96,53.04 -18.2,6.76 -43.68,7.8 -66.56,0.52 -345.8,0 -56.16,0 -60.32,-60.32 1.04,-75.92 0,-306.28 0,-45.76 79.04,-49.4 h 327.6 q 74.36,0 80.08,49.4 v 114.92 h -102.44 z"
       id="path6" /><path
       style="font-size:520px;font-family:GAMECUBEN;-inkscape-font-specification:GAMECUBEN;letter-spacing:-80px;word-spacing:0px;fill:#ff21fa;fill-opacity:0.996324;stroke-width:100;stroke-linejoin:round;stroke-dasharray:2300;stroke-dashoffset:2300;paint-order:markers stroke fill"
       d="m 2541.3175,1307.4939 h 105.56 v -416 h -105.56 v 267.28 l -326.56,-267.28 h -103.48 v 416 h 103.48 l 0.52,-275.08 z"
       id="path5" /><path
       style="font-size:520px;font-family:GAMECUBEN;-inkscape-font-specification:GAMECUBEN;letter-spacing:-80px;word-spacing:0px;fill:#ff21fa;fill-opacity:0.996324;stroke-width:100;stroke-linejoin:round;stroke-dasharray:2300;stroke-dashoffset:2300;paint-order:markers stroke fill"
       d="m 2032.7977,1307.4939 -170.04,-302.12 -120.12,214.24 h 120.12 v 87.88 h -306.8 l 37.44,-61.36 212.16,-354.64 h 113.88 l 236.6,416 z"
       id="path4" /><path
       style="font-size:520px;font-family:GAMECUBEN;-inkscape-font-specification:GAMECUBEN;letter-spacing:-80px;word-spacing:0px;fill:#ff21fa;fill-opacity:0.996324;stroke-width:100;stroke-linejoin:round;stroke-dasharray:2300;stroke-dashoffset:2300;paint-order:markers stroke fill"
       d="m 1419.5976,1307.4939 h 81.64 l 261.56,-416 h -121.16 l -180.96,273 -166.4,-273 h -113.36 z"
       id="path3" /><path
       style="font-size:520px;font-family:GAMECUBEN;-inkscape-font-specification:GAMECUBEN;letter-spacing:-80px;word-spacing:0px;fill:#ff21fa;fill-opacity:0.996324;stroke-width:100;stroke-linejoin:round;stroke-dasharray:2300;stroke-dashoffset:2300;paint-order:markers stroke fill"
       d="M 1092.4378,1307.4939 H 738.83778 v -416 h 353.60002 q 114.92,0 160.68,103.48 19.24,42.64 22.88,102.96 -3.64,61.36 -22.88,104.52 -45.76,105.04 -160.68,105.04 z m 84.76,-208.52 q -2.6,-35.36 -13.52,-60.84 -27.04,-60.84 -94.64,-60.84 H 841.79778 v 244.92 h 226.72002 q 67.6,0 95.16,-61.36 10.92,-26 13.52,-61.88 z"
       id="path2" /><path
       style="font-size:520px;font-family:GAMECUBEN;-inkscape-font-specification:GAMECUBEN;letter-spacing:-80px;word-spacing:0px;fill:#ff21fa;fill-opacity:0.996324;stroke-width:100;stroke-linejoin:round;stroke-dasharray:2300;stroke-dashoffset:2300;paint-order:markers stroke fill"
       d="m 656.35796,1307.4939 -170.04,-302.12 -120.12,214.24 h 120.12 v 87.88 h -306.8 l 37.44,-61.36 212.16,-354.64 h 113.88 l 236.6,416 z"
       id="text2-3" /></g><text
     xml:space="preserve"
     style="font-style:oblique;font-weight:bold;font-size:834.378px;font-family:'Futura Std';-inkscape-font-specification:'Futura Std Bold Oblique';letter-spacing:-77.6835px;word-spacing:0px;display:inline;opacity:1;fill:#ffffff;fill-opacity:0.996324;stroke-width:107.894;stroke-linejoin:round;stroke-dasharray:2481.56;stroke-dashoffset:2481.56;paint-order:markers stroke fill"
     x="147.19659"
     y="666.45813"
     id="text14"
     transform="scale(0.92683754,1.0789377)"
     inkscape:label="gameboy unmerged"><tspan
       sodipodi:role="line"
       id="tspan14"
       x="147.19659"
       y="666.45813"
       style="font-style:italic;font-variant:normal;font-weight:bold;font-stretch:normal;font-size:834.378px;font-family:'Gill Sans Std';-inkscape-font-specification:'Gill Sans Std Bold Italic';letter-spacing:-77.6835px;word-spacing:0px;fill:#ffffff;fill-opacity:0.996324;stroke-width:107.894"
       dx="0">GAME BOY</tspan></text><g
     id="g27"
     style="display:inline"
     inkscape:label="ambernic unmerged"><path
       style="font-size:520px;font-family:GAMECUBEN;-inkscape-font-specification:GAMECUBEN;letter-spacing:-80px;word-spacing:0px;display:none;fill:#ff21fa;fill-opacity:0.996324;stroke-width:100;stroke-linejoin:round;stroke-dasharray:2300;stroke-dashoffset:2300;paint-order:markers stroke fill"
       d="m 3974.3177,980.4139 -282.88,10e-5 v 240.2399 h 283.92 v -87.88 h 101.92 l 0.52,113.88 c 3.12,25.3067 -9.5333,42.9867 -37.96,53.04 -12.1333,4.5067 -26.6933,7.1067 -43.68,7.8 -44.3733,0.3467 -159.64,0.3467 -345.8,0 -37.44,0 -57.5467,-20.1067 -60.32,-60.32 0.6933,-50.6133 0.6933,-152.7067 0,-306.28 0,-30.50667 26.3467,-46.97333 79.04,-49.4 h 327.6 c 49.5733,0 76.2667,16.46667 80.08,49.4 v 114.92 h -102.44 z"
       id="path20"
       sodipodi:nodetypes="cccccccccccccscccc" /><path
       style="font-size:520px;font-family:GAMECUBEN;-inkscape-font-specification:GAMECUBEN;letter-spacing:-80px;word-spacing:0px;fill:#ff21fa;fill-opacity:0.996324;stroke-width:100;stroke-linejoin:round;stroke-dasharray:2300;stroke-dashoffset:2300;paint-order:markers stroke fill"
       d="m 3283.0775,891.4939 h 155.1602 111.16 v 416 h -111.16 V 980.414 h -155.1602 z"
       id="path21"
       sodipodi:nodetypes="cccccccc" /><path
       style="font-size:520px;font-family:GAMECUBEN;-inkscape-font-specification:GAMECUBEN;letter-spacing:-80px;word-spacing:0px;fill:#ff21fa;fill-opacity:0.996324;stroke-width:100;stroke-linejoin:round;stroke-dasharray:2300;stroke-dashoffset:2300;paint-order:markers stroke fill"
       d="m 3283.0775,1307.4939 h 105.56 v -416 h -105.56 v 267.28 l -326.56,-267.28 h -103.48 v 416 h 103.48 l 0.52,-275.08 z"
       id="path22" /><path
       style="font-size:520px;font-family:GAMECUBEN;-inkscape-font-specification:GAMECUBEN;letter-spacing:-80px;word-spacing:0px;fill:#ff21fa;fill-opacity:0.996324;stroke-width:100;stroke-linejoin:round;stroke-dasharray:2300;stroke-dashoffset:2300;paint-order:markers stroke fill"
       d="m 2423.6779,1044.3739 h 260 q 15.6,0 15.6,-24.44 v -17.16 q 0,-24.44 -15.6,-24.44 h -260 z m 109.2,99.32 -109.2,0.52 v 163.28 h -108.16 l -0.52,-416 h 443.04 q 41.08,0 44.2,56.16 v 151.84 q 0,41.08 -44.72,44.2 h -76.44 l 165.88,163.8 h -147.68 z"
       id="path23" /><path
       style="font-size:520px;font-family:GAMECUBEN;-inkscape-font-specification:GAMECUBEN;letter-spacing:-80px;word-spacing:0px;fill:#ff21fa;fill-opacity:0.996324;stroke-width:100;stroke-linejoin:round;stroke-dasharray:2300;stroke-dashoffset:2300;paint-order:markers stroke fill"
       d="m 2280.3576,1307.4939 v -91.52 h -332.8 v -74.36 h 195.52 v -90.48 h -196.04 v -74.36 h 334.36 v -85.28 h -442 v 416 z"
       id="path24" /><path
       style="font-size:520px;font-family:GAMECUBEN;-inkscape-font-specification:GAMECUBEN;letter-spacing:-80px;word-spacing:0px;fill:#ff21fa;fill-opacity:0.996324;stroke-width:100;stroke-linejoin:round;stroke-dasharray:2300;stroke-dashoffset:2300;paint-order:markers stroke fill"
       d="m 1681.238,1044.3739 c 10.4,0 15.6,-8.1467 15.6,-24.44 v -17.16 c 0,-15.94667 -5.2,-23.92 -15.6,-23.92 h -514.3602 v -87.36 h 145.1602 443.56 c 27.7333,0 42.64,18.72 44.72,56.16 l -0.52,105.04 c 2.4267,27.3867 -12.48,42.12 -44.72,44.2 27.7333,-1.3867 42.64,13.8667 44.72,45.76 v 110.76 c 0,33.6267 -14.7333,51.6533 -44.2,54.08 h -443.56 V 1044.374 Z m -260,171.08 h 260 c 10.4,0 15.6,-8.1467 15.6,-24.44 v -17.16 c 0,-16.2933 -5.2,-24.44 -15.6,-24.44 h -260 z"
       id="path25"
       sodipodi:nodetypes="sssscccsccccscccscsssscc" /><path
       style="font-size:520px;font-family:GAMECUBEN;-inkscape-font-specification:GAMECUBEN;letter-spacing:-80px;word-spacing:0px;fill:#ff21fa;fill-opacity:0.996324;stroke-width:100;stroke-linejoin:round;stroke-dasharray:2300;stroke-dashoffset:2300;paint-order:markers stroke fill"
       d="m 1166.8778,1307.4939 h 105.56 v -416 h -105.56 v 267.28 l -326.56002,-267.28 h -103.48 v 416 h 103.48 l 0.52,-275.08 z"
       id="path26" /><path
       style="font-size:520px;font-family:GAMECUBEN;-inkscape-font-specification:GAMECUBEN;letter-spacing:-80px;word-spacing:0px;fill:#ff21fa;fill-opacity:0.996324;stroke-width:100;stroke-linejoin:round;stroke-dasharray:2300;stroke-dashoffset:2300;paint-order:markers stroke fill"
       d="m 302.75796,1307.4939 170.04,-302.12 120.12,214.24 H 400.45315 l -49.46087,87.88 h 428.60568 l -37.44,-61.36 -212.16,-354.64 h -113.88 l -236.6,416 z"
       id="path27"
       sodipodi:nodetypes="ccccccccccc" /><path
       style="font-size:520px;font-family:GAMECUBEN;-inkscape-font-specification:GAMECUBEN;letter-spacing:-80px;word-spacing:0px;display:inline;fill:#ff21fa;fill-opacity:0.996324;stroke-width:100;stroke-linejoin:round;stroke-dasharray:2300;stroke-dashoffset:2300;paint-order:markers stroke fill"
       d="m 4036.758,980.414 h -345.3203 v 240.2399 l 345.3203,10e-5 v 86.84 c -44.3733,0.3467 -200.2403,0.3466 -386.4003,-10e-5 -37.44,0 -57.5467,-20.1067 -60.32,-60.32 0.6933,-50.6133 0.6933,-152.7067 0,-306.28 0,-30.50667 26.3467,-46.97333 79.04,-49.4 l 367.6803,10e-5 z"
       id="path28"
       sodipodi:nodetypes="ccccccccccc" /></g></g><g
   inkscape:groupmode="layer"
   id="layer1"
   inkscape:label="main"
   style="display:inline"
   transform="translate(-1.0717891,-31.746029)"><g
     id="g37"
     style="display:none"
     transform="matrix(0.10814332,0,0,0.10814332,91.960405,188.50579)"
     inkscape:label="boy"><path
       id="path38"
       style="color:#000000;-inkscape-font-specification:GAMECUBEN;display:inline;fill:#4b367c;fill-opacity:1;stroke-linecap:square;stroke-dashoffset:2300.01;-inkscape-stroke:none;paint-order:markers stroke fill"
       d="m 597.79282,-119.79728 c -184.54124,0 -331.33176,71.353649 -421.87837,174.732119 C 85.367842,158.31331 48.94619,284.93123 48.94619,398.99883 c 10e-7,99.09691 28.669692,207.51978 105.91232,293.92288 43.13857,48.25453 100.87412,86.28535 169.52888,110.48731 l -15.4346,27.13697 -341.382476,600.23111 H 140.13752 374.83934 708.95653 860.12194 963.36806 l 0.25392,-133.4696 158.19642,133.4696 h 66.9351 206.9695 320.39 44.5526 431.7223 211.2533 143.32 v -100.2253 l 101.8211,100.2253 h 80.9709 349.8167 l 0.2517,-133.4696 158.1987,133.4696 h 76.9322 196.9701 138.2044 c 0.087,2e-4 0.1426,-10e-5 0.2298,0 186.1698,0.3465 340.7536,0.3623 387.3645,0 l 122.321,-0.9544 v -326.123 -6.3284 -329.15912 h -241.6738 l 38.1192,-317.27726 313.1225,-561.65006 h -419.3347 l -29.072,56.331587 -16.192,-56.331587 -457.64,5.5e-4 c -128.3039,1.5e-4 -213.2343,28.407572 -301.151,107.4965974 -4.3445,-5.3733211 -8.8599,-10.6844794 -13.7665,-15.8417544 -56.9334,-59.841096 -145.2484,-91.655393 -244.896,-91.655393 h -266.405 -30.9502 -472.3544 -114.2393 -216.6032 l -116.6493,-0.002 h -246.8376 -83.5977 l -27.0254,96.646302 -14.4167,-96.646302 H 871.32521 l -16.04095,38.637944 -45.67994,-15.756384 c -63.93386,-22.05199 -135.32634,-31.96151 -211.8115,-31.96151 z"
       sodipodi:nodetypes="csssccccccccccccccccccccccccccccccccccccccsccsccccccccccccccc"
       inkscape:label="stroke" /><path
       style="color:#000000;-inkscape-font-specification:GAMECUBEN;display:inline;fill:#ffffff;fill-opacity:0.996324;stroke-linecap:square;stroke-dashoffset:2300.01;-inkscape-stroke:none;paint-order:markers stroke fill"
       d="m 597.79282,3.486898 c -310.28709,0 -425.56245,221.971012 -425.56245,395.511932 0,150.33486 87.54081,310.76062 333.69034,310.76062 54.46933,0 124.29274,-6.86838 164.78533,-15.82205 l -2.79753,6.73991 h 138.675 l 57.2028,-150.33358 h 183.74639 l 18.2015,150.33358 h 129.1419 72.7162 l 133.474,-478.24717 h 1.7337 l 104.0079,478.24717 h 59.8033 L 1785.8916,235.5466 h 1.7336 l 18.2015,465.13071 h 121.3426 L 1899.4325,12.566848 H 1765.9586 L 1566.6112,445.41208 1471.2717,12.566848 H 1333.4614 L 1176.1493,575.14942 1090.8682,3.486898 H 957.39429 L 696.71349,631.3037 732.1358,338.46218 H 498.11914 L 485.1187,447.42815 h 108.33991 l -14.73412,122.08461 c -34.66895,10.08958 -56.33597,13.11645 -88.40474,13.11645 -105.74029,0 -188.08061,-61.5472 -188.08061,-188.67601 0,-157.39758 122.20894,-263.33825 295.55368,-263.33825 53.73687,0 98.806,7.06253 156.87649,25.22379 L 769.40343,28.710683 C 722.60035,12.567342 662.7971,3.486898 597.79282,3.486898 Z m 2749.57868,0 c -200.2132,0 -347.5555,163.452082 -347.5555,386.431982 0,188.6753 126.5408,319.84057 298.1521,319.84057 195.8795,0 340.6228,-155.38142 340.6228,-392.48674 0,-184.63946 -118.7414,-313.785812 -291.2194,-313.785812 z M 2012.8837,12.566848 1929.68,700.67731 h 432.495 l 13.8673,-115.02072 h -306.8204 l 21.6688,-180.603 H 2304.97 l 13.8695,-115.02291 H 2104.758 l 19.9352,-162.44092 h 243.5475 l 13.8695,-115.022912 z m 586.5937,0 -83.2059,688.110462 h 289.488 c 143.8761,0 202.8125,-115.02167 202.8125,-199.77421 0,-77.68983 -41.6024,-145.28962 -110.0736,-168.49568 56.3371,-33.29564 85.8042,-86.76968 85.8042,-153.36096 0,-79.707749 -44.2012,-166.479612 -196.7446,-166.479612 z m 987.0199,0 124.8077,399.548432 -34.6671,288.56203 h 125.6745 L 3836.9817,412.11528 4059.7294,12.566848 H 3925.3865 L 3788.4451,277.92335 3712.1718,12.566848 Z M 2712.1515,127.58976 h 65.8712 c 57.2038,0 83.2059,27.24033 83.2059,69.6166 0,43.38523 -23.4021,81.72611 -84.0727,81.72611 h -84.9374 z m 626.5538,3.02519 c 98.8065,0 169.8769,82.73449 169.8769,196.74684 0,142.26319 -92.7396,255.26742 -209.7473,255.26742 -99.6732,0 -169.0123,-81.72604 -169.0123,-199.77422 0,-138.22735 94.4751,-252.24004 208.8827,-252.24004 z m -2334.5081,17.15296 h 1.7337 l 31.2019,304.70587 H 900.18929 Z M 2679.2159,393.9532 h 89.2738 c 60.6706,0 110.0736,27.24384 110.0736,90.80825 0,52.46586 -26.8675,100.89514 -104.8726,100.89514 H 2654.0819 Z M 416.11721,891.49417 179.51753,1307.4929 h 123.2404 l 170.0411,-302.1185 120.1189,214.2391 H 418.94674 l -49.46033,87.8794 h 410.11117 60.72052 l 0.51879,-275.08 326.04201,275.08 h 105.5599 V 978.85475 h 408.7991 c 10.4,0 15.601,7.97249 15.601,23.91915 v 17.1595 c 0,16.2933 -5.201,24.4402 -15.601,24.4402 h -369.2002 v 263.1193 h 443.5604 c 29.4666,-2.4267 44.2001,-20.4524 44.2001,-54.0791 v -110.761 c -2.08,-31.8932 -16.9879,-47.1454 -44.7211,-45.7587 32.2399,-2.08 47.1478,-16.8135 44.7211,-44.2002 l 0.5188,-105.04108 c -2.08,-37.43996 -16.9857,-56.15865 -44.7189,-56.15865 h -443.5604 -145.1588 v 87.36058 179.92005 L 840.3181,891.49417 H 736.83776 V 1237.2415 L 529.99746,891.49417 Z m 1423.27989,0 v 415.99873 h 440.9599 v -91.5197 h -332.7994 v -74.3601 h 195.521 v -90.4799 h -196.042 v -74.36018 h 334.3602 v -85.27885 z m 475.6007,0 0.521,415.99873 h 108.1582 v -163.2793 l 109.2002,-0.5188 166.4008,163.7981 h 147.6805 l -165.8798,-163.7981 h 76.4397 c 29.8133,-2.08 44.719,-16.8135 44.719,-44.2002 V 947.65282 c -2.08,-37.43996 -16.8136,-56.15865 -44.2002,-56.15865 z m 538.0396,0 v 415.99873 h 103.4803 l 0.5188,-275.08 326.042,275.08 h 105.5599 V 980.41332 h 49.5982 v 327.07958 h 111.1616 V 891.49417 h -111.1616 -155.1581 v 88.91915 178.36148 L 2956.5177,891.49417 Z m 816.0397,0 c -52.6933,2.42666 -79.0402,18.8924 -79.0402,49.39904 0.6933,153.57319 0.6933,255.66649 0,306.27979 2.7733,40.2132 22.8799,60.3199 60.3199,60.3199 186.1598,0.3467 342.0281,0.3489 386.4013,0 v -86.8418 H 3691.4377 V 980.41332 h 345.3204 v -88.91915 z m -1245.4001,86.8396 h 260.0001 c 10.3999,0 15.6009,8.14681 15.6009,24.44013 v 17.1595 c 0,16.2933 -5.201,24.4402 -15.6009,24.4402 H 2423.677 Z M 1421.2379,1149.4146 h 260 c 10.4,0 15.601,8.1469 15.601,24.4402 v 17.1595 c 0,16.2933 -5.201,24.4401 -15.601,24.4401 h -260 z"
       id="path39"
       inkscape:label="main"
       sodipodi:nodetypes="sssccccccccccccccccccccccccccccccsssccsssssscccccccccccccccsscssccccccccccccsssccsssssccccccssscccccccccccccccsssscccsccccscccccccccccccccccccccccccccccccscsccccccccccccccccccccccccccccccsssscccsssscc" /></g><g
     id="g16"
     style="display:inline"
     transform="matrix(0.10814332,0,0,0.10814332,91.960405,188.50579)"
     inkscape:label="child"><text
       xml:space="preserve"
       style="font-style:oblique;font-weight:bold;font-size:101.333px;font-family:'Futura Std';-inkscape-font-specification:'Futura Std Bold Oblique';letter-spacing:-12px;word-spacing:0px;display:none;fill:#ffffff;fill-opacity:0.996324;stroke:#df0000;stroke-width:24;stroke-linecap:square;stroke-linejoin:miter;stroke-dasharray:none;stroke-dashoffset:460;stroke-opacity:1;paint-order:markers stroke fill"
       x="85.90873"
       y="245.08485"
       id="text14-3"
       transform="matrix(8.570456,0,0,9.9769241,-850.35678,-1743.1108)"
       inkscape:label="gamechild unmerged"><tspan
         sodipodi:role="line"
         id="tspan14-6"
         x="0"
         y="0"
         style="font-style:italic;font-variant:normal;font-weight:bold;font-stretch:normal;font-size:101.333px;font-family:'Gill Sans Std';-inkscape-font-specification:'Gill Sans Std Bold Italic';letter-spacing:-12px;word-spacing:0px;fill:#ffffff;fill-opacity:0.996324;stroke:#df0000;stroke-width:24;stroke-linecap:square;stroke-linejoin:miter;stroke-dasharray:none;stroke-dashoffset:460;stroke-opacity:1"
         dx="0">GAME CHILD</tspan></text><path
       style="display:inline;color:#000000;-inkscape-font-specification:'Futura Std Bold Oblique';fill:#da1217;stroke-linecap:square;stroke-dashoffset:460;-inkscape-stroke:none;paint-order:markers stroke fill;fill-opacity:1"
       d="m 140.52734,163.06445 c -20.5966,0 -36.53854,6.61233 -46.882809,16.75782 -10.344272,10.14549 -14.871094,23.1555 -14.871094,34.96289 0,10.26051 3.641103,21.50231 12.400391,29.91992 8.759289,8.4176 21.982432,13.29297 38.611332,13.29297 4.86805,0 10.13611,-0.37998 14.95117,-0.91211 h 397.53906 31.4707 c 24.90388,0 44.62891,-21.37891 44.62891,-47.4668 0,-9.66051 -2.50868,-20.84522 -10.29688,-30.14844 -7.78819,-9.30321 -20.88386,-15.49414 -37.37109,-15.49414 H 458.86914 l -3.84961,27.35938 h -10.92578 l 3.84961,-27.35938 -37.86328,-4.3e-4 h -11.56836 c -15.74366,0 -29.98473,3.89007 -40.42969,13.00239 -1.99973,1.74459 -3.79083,3.69521 -5.4668,5.74023 l 2.62891,-18.74219 H 212.69336 l -4.45313,13.68164 -2.53515,-14.59375 h -33.22852 l -2.34179,4.84571 L 164,166.0918 c -6.96499,-2.06371 -14.91165,-3.02735 -23.47266,-3.02735 z"
       id="path30"
       sodipodi:nodetypes="sssssccsssscccccssccccccccs"
       inkscape:label="stroke"
       transform="matrix(8.570456,0,0,9.9769241,-850.35678,-1743.1108)" /><path
       style="display:inline;color:#000000;-inkscape-font-specification:'Futura Std Bold Oblique';fill:#ffffff;fill-opacity:0.996324;stroke-linecap:square;stroke-dashoffset:460;-inkscape-stroke:none;paint-order:markers stroke fill"
       d="m 140.52691,175.06363 c -36.27718,0 -49.75336,22.29261 -49.75336,39.72187 0,15.0986 10.23391,31.21198 39.01245,31.21198 5.20077,0 11.66617,-0.46364 16.47276,-1.11873 l -0.099,0.20637 h 16.21357 l 6.68646,-15.09913 h 21.48393 l 2.12626,15.09913 h 15.09881 5.93627 l 15.60666,-48.03263 h 0.2023 l 12.15912,48.03263 h 6.99203 l 25.63741,-46.71479 h 0.2023 l 2.12837,46.71479 h 14.18635 48.293 l 1.62262,-11.55289 h -35.87257 l 2.53297,-18.1385 h 25.03051 l 1.62052,-11.55107 H 309.0182 l 2.33068,-16.3156 h 28.47384 l 1.62051,-11.55108 h -43.16804 l -8.0246,57.00594 -2.67417,-57.00594 h -15.60455 l -23.30674,43.47086 -11.14551,-43.47086 H 221.4072 l -16.71932,51.36527 -9.07825,-52.27762 h -15.60456 l -26.85754,55.56681 3.08719,-21.92369 h -27.36118 l -1.51937,10.94283 h 12.66699 l -1.72378,12.2625 c -4.05331,1.01333 -6.58699,1.31604 -10.3363,1.31604 -12.36262,0 -21.98757,-6.17973 -21.98757,-18.94768 0,-15.80793 14.28682,-26.44926 34.5534,-26.44926 4.71198,0 8.85442,0.39953 13.49515,1.36853 1.54691,0.323 3.14946,0.70979 4.84679,1.16579 l 1.72166,-12.76755 c -5.47197,-1.62133 -12.46363,-2.53432 -20.0636,-2.53432 z m 257.98412,0 c -26.65055,0 -45.09412,16.11295 -45.09412,39.31819 0,17.66992 11.93344,29.99547 29.95738,31.46722 1.2016,0.0981 2.43168,0.14844 3.68567,0.14844 7.85157,0 15.16785,-1.63002 23.2372,-5.04873 l -0.58162,4.13637 h 14.6921 l 3.9533,-28.17079 h 35.26356 l -4.05234,28.17079 h 14.6921 l 9.7273,-69.10914 h -14.6921 l -3.85004,27.35981 h -35.16241 l 3.85004,-27.35981 h -14.69421 l -6.99623,49.69986 c -9.3676,5.22501 -16.46464,7.55228 -24.06959,7.55228 -12.15994,0 -19.76015,-7.19471 -19.76015,-18.544 0,-10.74128 7.29555,-26.85294 29.48745,-26.85294 4.55998,0 8.72225,0.51312 12.74074,1.45361 1.33949,0.3135 2.66336,0.67538 3.98069,1.08071 l 2.43182,-12.76755 c -6.89063,-1.72266 -12.66657,-2.53432 -18.74654,-2.53432 z m 89.28842,0.91235 -9.7273,69.10914 h 14.6942 l 9.7273,-69.10914 z m 18.09749,0 -9.7294,69.10914 h 46.10772 31.47043 c 18.44258,0 32.62943,-14.89544 32.62943,-35.46602 0,-14.99727 -8.10561,-33.64312 -35.66816,-33.64312 h -23.00329 l -8.01617,57.55625 h -27.20525 l 8.10679,-57.55625 z m 54.87831,11.55108 h 7.09318 c 15.19993,0 23.30674,9.72935 23.30674,21.8893 0,11.95728 -6.68659,24.11587 -23.00119,24.11587 h -13.78174 z m -375.29963,2.02746 h 0.20441 l 3.64774,30.60193 H 173.3165 Z"
       id="path31"
       inkscape:label="white"
       transform="matrix(8.570456,0,0,9.9769241,-850.35678,-1743.1108)" /></g><g
     inkscape:groupmode="layer"
     id="layer2"
     inkscape:label="anbernic"><path
       id="path15"
       style="display:inline;color:#000000;-inkscape-font-specification:GAMECUBEN;fill:#da1217;fill-opacity:1;stroke-linecap:square;stroke-dashoffset:2300.01;-inkscape-stroke:none;paint-order:markers stroke fill"
       d="m 324.38739,803.40902 -15.4346,27.13697 -341.382476,600.23111 H 963.36806 l 0.25392,-133.4696 158.19642,133.4696 h 1430.3291 v -100.2253 l 101.8211,100.2253 h 430.7876 l 0.2517,-133.4696 158.1987,133.4696 916.8357,-0.9544 V 768.21218 Z"
       sodipodi:nodetypes="ccccccccccccccc"
       inkscape:label="stroke"
       transform="matrix(0.10814332,0,0,0.10814332,91.960405,188.50579)" /><path
       id="path16"
       style="display:inline;color:#000000;-inkscape-font-specification:GAMECUBEN;fill:#ffffff;fill-opacity:0.996324;stroke-linecap:square;stroke-dashoffset:2300.01;-inkscape-stroke:none;paint-order:markers stroke fill"
       inkscape:label="white"
       d="M 416.11498,891.48556 179.52212,1307.4917 h 123.22696 l 170.05789,-302.1165 120.10248,214.234 H 418.95049 l -49.46778,87.8825 h 410.11838 60.71948 l 0.52375,-275.0799 326.02858,275.0799 h 105.5638 V 978.86237 H 1686.42 c 10.4,0 15.6043,7.96549 15.6043,23.91213 v 17.1575 c 0,16.2933 -5.2043,24.4359 -15.6043,24.4359 h -369.1932 v 263.1238 h 443.5664 c 29.4666,-2.4267 44.1941,-20.4466 44.1941,-54.0732 v -110.7652 c -2.08,-31.8932 -16.9847,-47.1521 -44.7178,-45.7654 32.2398,-2.08 47.1445,-16.8074 44.7178,-44.1941 l 0.5238,-105.04002 c -2.08,-37.43992 -16.9847,-56.16822 -44.7179,-56.16822 h -443.5664 -150.3539 v 87.37681 179.91893 L 840.32057,891.48556 H 736.83377 V 1237.2362 L 530.00465,891.48556 Z m 1428.46102,0 v 416.00614 h 440.9657 v -91.5127 h -332.8012 v -74.3733 h 195.5232 v -90.4651 h -196.047 v -74.37325 h 334.3725 v -85.28179 z m 475.6058,0 0.5238,416.00614 h 108.1645 v -163.2852 l 109.1939,-0.5057 166.3916,163.7909 h 257.2541 l 0.5057,-275.0799 326.0466,275.0799 h 105.5638 V 980.41557 h 44.4108 v 327.07613 h 111.1625 V 891.48556 H 3438.2366 3288.262 v 88.93001 178.36573 L 2961.7097,891.48556 H 2858.2229 V 1215.979 h -98.755 l -73.1993,-72.2782 h 76.4322 c 29.8132,-2.08 44.7178,-16.8255 44.7178,-44.2122 V 947.65378 c -2.08,-37.43992 -16.8075,-56.16822 -44.1941,-56.16822 z m 1348.8864,0 c -52.6933,2.42665 -79.0329,18.90698 -79.0329,49.41359 0.6933,153.57305 0.6933,255.65715 0,306.27035 2.7733,40.2132 22.8822,60.3222 60.3222,60.3222 186.1596,0.3467 342.0317,0.3489 386.4049,0 v -86.835 H 3691.4451 V 980.41557 h 345.3173 v -88.93001 z m -1240.1981,86.85305 h 259.9993 c 10.3998,0 15.5862,8.14259 15.5862,24.43589 v 17.1575 c 0,16.2933 -5.1864,24.4359 -15.5862,24.4359 H 2428.8701 Z M 1426.4207,1149.4079 H 1686.42 c 10.4,0 15.6043,8.1607 15.6043,24.4539 v 17.1575 c 0,16.2933 -5.2043,24.4359 -15.6043,24.4359 h -259.9993 z"
       sodipodi:nodetypes="cccccccccccccsssscccsccccscccccccccccccccccccccccccccccccccccccccccccccccscscccccccccccccsssscccsssscc"
       transform="matrix(0.10814332,0,0,0.10814332,91.960405,188.50579)" /></g></g></svg>
