<?xml version="1.0" encoding="UTF-8" standalone="no"?>
<svg
   xmlns:dc="http://purl.org/dc/elements/1.1/"
   xmlns:cc="http://creativecommons.org/ns#"
   xmlns:rdf="http://www.w3.org/1999/02/22-rdf-syntax-ns#"
   xmlns:svg="http://www.w3.org/2000/svg"
   xmlns="http://www.w3.org/2000/svg"
   xmlns:sodipodi="http://sodipodi.sourceforge.net/DTD/sodipodi-0.dtd"
   xmlns:inkscape="http://www.inkscape.org/namespaces/inkscape"
   width="88"
   height="31"
   viewBox="0 0 23.283333 8.2020835"
   version="1.1"
   id="svg8"
   sodipodi:docname="svg-static.svg"
   inkscape:version="1.0.2-2 (e86c870879, 2021-01-15)">
  <metadata
     id="metadata42">
    <rdf:RDF>
      <cc:Work
         rdf:about="">
        <dc:format>image/svg+xml</dc:format>
        <dc:type
           rdf:resource="http://purl.org/dc/dcmitype/StillImage" />
        <dc:title></dc:title>
      </cc:Work>
    </rdf:RDF>
  </metadata>
  <sodipodi:namedview
     pagecolor="#ffffff"
     bordercolor="#666666"
     borderopacity="1"
     objecttolerance="10"
     gridtolerance="10"
     guidetolerance="10"
     inkscape:pageopacity="0"
     inkscape:pageshadow="2"
     inkscape:window-width="2498"
     inkscape:window-height="1421"
     id="namedview40"
     showgrid="false"
     inkscape:zoom="5.6568542"
     inkscape:cx="29.873037"
     inkscape:cy="11.492731"
     inkscape:window-x="2617"
     inkscape:window-y="-5"
     inkscape:window-maximized="1"
     inkscape:current-layer="svg8"
     inkscape:document-rotation="0" />
  <defs
     id="defs2">
    <g
       id="SVG"
       fill="#ffffff"
       transform="scale(2) translate(20,79)">
      <path
         id="S"
         d="M 5.482,31.319 C2.163,28.001 0.109,23.419 0.109,18.358 C0.109,8.232 8.322,0.024 18.443,0.024 C28.569,0.024 36.782,8.232 36.782,18.358 L26.042,18.358 C26.042,14.164 22.638,10.765 18.443,10.765 C14.249,10.765 10.850,14.164 10.850,18.358 C10.850,20.453 11.701,22.351 13.070,23.721 L13.075,23.721 C14.450,25.101 15.595,25.500 18.443,25.952 L18.443,25.952 C23.509,26.479 28.091,28.006 31.409,31.324 L31.409,31.324 C34.728,34.643 36.782,39.225 36.782,44.286 C36.782,54.412 28.569,62.625 18.443,62.625 C8.322,62.625 0.109,54.412 0.109,44.286 L10.850,44.286 C10.850,48.480 14.249,51.884 18.443,51.884 C22.638,51.884 26.042,48.480 26.042,44.286 C26.042,42.191 25.191,40.298 23.821,38.923 L23.816,38.923 C22.441,37.548 20.468,37.074 18.443,36.697 L18.443,36.692 C13.533,35.939 8.800,34.638 5.482,31.319 L5.482,31.319 L5.482,31.319 Z" />
      <path
         id="V"
         d="M 73.452,0.024 L60.482,62.625 L49.742,62.625 L36.782,0.024 L47.522,0.024 L55.122,36.687 L62.712,0.024 L73.452,0.024 Z" />
      <path
         id="G"
         d="M 91.792,25.952 L110.126,25.952 L110.126,44.286 L110.131,44.286 C110.131,54.413 101.918,62.626 91.792,62.626 C81.665,62.626 73.458,54.413 73.458,44.286 L73.458,44.286 L73.458,18.359 L73.453,18.359 C73.453,8.233 81.665,0.025 91.792,0.025 C101.913,0.025 110.126,8.233 110.126,18.359 L99.385,18.359 C99.385,14.169 95.981,10.765 91.792,10.765 C87.597,10.765 84.198,14.169 84.198,18.359 L84.198,44.286 L84.198,44.286 C84.198,48.481 87.597,51.880 91.792,51.880 C95.981,51.880 99.380,48.481 99.385,44.291 L99.385,44.286 L99.385,36.698 L91.792,36.698 L91.792,25.952 L91.792,25.952 Z" />
    </g>
  </defs>
  <rect
     style="display:inline;fill:#cccccc;fill-opacity:1;fill-rule:evenodd;stroke-width:0.661458;stroke-linecap:round;stroke-miterlimit:9;stop-color:#000000"
     id="rect830"
     width="23.283333"
     height="8.2020836"
     x="0"
     y="0"
     inkscape:label="bg" />
  <g
     id="g849"
     style="display:inline"
     inkscape:label="borders">
    <path
       style="opacity:1;vector-effect:none;fill:#000000;fill-opacity:1;stroke:none;stroke-width:0.264583px;stroke-linecap:butt;stroke-linejoin:miter;stroke-miterlimit:4;stroke-dasharray:none;stroke-dashoffset:0;stroke-opacity:1"
       d="M 22.754167,0.52916667 23.283333,0 v 8.2020835 l -0.529166,-2e-7 z"
       id="path846"
       sodipodi:nodetypes="ccccc" />
    <path
       style="opacity:1;vector-effect:none;fill:#ffffff;fill-opacity:1;stroke:none;stroke-width:0.264583px;stroke-linecap:butt;stroke-linejoin:miter;stroke-miterlimit:4;stroke-dasharray:none;stroke-dashoffset:0;stroke-opacity:1"
       d="M 0.529166,0 0,0 V 8.2020835 L 0.529166,7.6729166 Z"
       id="path851"
       sodipodi:nodetypes="ccccc" />
    <path
       style="opacity:1;vector-effect:none;fill:#ffffff;fill-opacity:1;stroke:none;stroke-width:0.264583px;stroke-linecap:butt;stroke-linejoin:miter;stroke-miterlimit:4;stroke-dasharray:none;stroke-dashoffset:0;stroke-opacity:1"
       d="M 22.754166,0.529166 23.283333,0 H 0 l 3.3174487e-7,0.529166 z"
       id="path853"
       sodipodi:nodetypes="ccccc" />
    <path
       style="opacity:1;vector-effect:none;fill:#010101;fill-opacity:1;stroke:none;stroke-width:0.264583px;stroke-linecap:butt;stroke-linejoin:miter;stroke-miterlimit:4;stroke-dasharray:none;stroke-dashoffset:0;stroke-opacity:1"
       d="m 23.283333,7.6729167 0,0.529166 H 0 l 0.529167,-0.529166 z"
       id="path855"
       sodipodi:nodetypes="ccccc" />
  </g>
  <g
     id="g974"
     inkscape:label="frame 1"
     style="display:inline">
    <g
       id="g965"
       transform="matrix(0.021186,0,0,0.021186,1.7342936,0.91641324)"
       inkscape:label="logo"
       style="display:inline">
      <path
         id="base-9"
         fill="#000000"
         d="m 8.5,150 h 283 v 100 c 0,23.5 -18,41.5 -41.5,41.5 H 50 C 26.5,291.5 8.5,273.5 8.5,250 Z" />
      <g
         stroke-width="38.0086"
         stroke="#000000"
         id="g939">
        <g
           id="svgstar"
           transform="translate(150,150)">
          <path
             id="svgbar"
             fill="#ffb13b"
             d="m -84.1487,-15.8513 a 22.4171,22.4171 0 1 0 0,31.7026 H 84.1487 a 22.4171,22.4171 0 1 0 0,-31.7026 z" />
          <path
             id="use932"
             fill="#ffb13b"
             d="m -84.1487,-15.8513 a 22.4171,22.4171 0 1 0 0,31.7026 H 84.1487 a 22.4171,22.4171 0 1 0 0,-31.7026 z"
             transform="rotate(45)" />
          <path
             id="use934"
             fill="#ffb13b"
             d="m -84.1487,-15.8513 a 22.4171,22.4171 0 1 0 0,31.7026 H 84.1487 a 22.4171,22.4171 0 1 0 0,-31.7026 z"
             transform="rotate(90)" />
          <path
             id="use936"
             fill="#ffb13b"
             d="m -84.1487,-15.8513 a 22.4171,22.4171 0 1 0 0,31.7026 H 84.1487 a 22.4171,22.4171 0 1 0 0,-31.7026 z"
             transform="rotate(135)" />
        </g>
      </g>
      <g
         id="use941"
         transform="translate(150,150)"
         style="display:inline">
        <path
           fill="#ffb13b"
           d="m -84.1487,-15.8513 a 22.4171,22.4171 0 1 0 0,31.7026 H 84.1487 a 22.4171,22.4171 0 1 0 0,-31.7026 z"
           id="path21" />
        <path
           fill="#ffb13b"
           d="m -84.1487,-15.8513 a 22.4171,22.4171 0 1 0 0,31.7026 H 84.1487 a 22.4171,22.4171 0 1 0 0,-31.7026 z"
           transform="rotate(45)"
           id="path23" />
        <path
           fill="#ffb13b"
           d="m -84.1487,-15.8513 a 22.4171,22.4171 0 1 0 0,31.7026 H 84.1487 a 22.4171,22.4171 0 1 0 0,-31.7026 z"
           transform="rotate(90)"
           id="path25" />
        <path
           fill="#ffb13b"
           d="m -84.1487,-15.8513 a 22.4171,22.4171 0 1 0 0,31.7026 H 84.1487 a 22.4171,22.4171 0 1 0 0,-31.7026 z"
           transform="rotate(135)"
           id="path27" />
      </g>
      <path
         id="use943"
         fill="#000000"
         d="m 8.5,150 h 283 v 100 c 0,23.5 -18,41.5 -41.5,41.5 H 50 C 26.5,291.5 8.5,273.5 8.5,250 Z"
         opacity="0.85" />
      <g
         id="use945"
         fill="#ffffff"
         transform="matrix(2,0,0,2,40,158)">
        <path
           d="M 5.482,31.319 C 2.163,28.001 0.109,23.419 0.109,18.358 0.109,8.232 8.322,0.024 18.443,0.024 c 10.126,0 18.339,8.208 18.339,18.334 h -10.74 c 0,-4.194 -3.404,-7.593 -7.599,-7.593 -4.194,0 -7.593,3.399 -7.593,7.593 0,2.095 0.851,3.993 2.22,5.363 h 0.005 c 1.375,1.38 2.52,1.779 5.368,2.231 v 0 c 5.066,0.527 9.648,2.054 12.966,5.372 v 0 c 3.319,3.319 5.373,7.901 5.373,12.962 0,10.126 -8.213,18.339 -18.339,18.339 C 8.322,62.625 0.109,54.412 0.109,44.286 H 10.85 c 0,4.194 3.399,7.598 7.593,7.598 4.195,0 7.599,-3.404 7.599,-7.598 0,-2.095 -0.851,-3.988 -2.221,-5.363 H 23.816 C 22.441,37.548 20.468,37.074 18.443,36.697 V 36.692 C 13.533,35.939 8.8,34.638 5.482,31.319 Z"
           id="path31" />
        <path
           d="M 73.452,0.024 60.482,62.625 H 49.742 L 36.782,0.024 h 10.74 l 7.6,36.663 7.59,-36.663 z"
           id="path33" />
        <path
           d="m 91.792,25.952 h 18.334 v 18.334 h 0.005 c 0,10.127 -8.213,18.34 -18.339,18.34 -10.127,0 -18.334,-8.213 -18.334,-18.34 v 0 -25.927 h -0.005 c 0,-10.126 8.212,-18.334 18.339,-18.334 10.121,0 18.334,8.208 18.334,18.334 H 99.385 c 0,-4.19 -3.404,-7.594 -7.593,-7.594 -4.195,0 -7.594,3.404 -7.594,7.594 v 25.927 0 c 0,4.195 3.399,7.594 7.594,7.594 4.189,0 7.588,-3.399 7.593,-7.589 v -0.005 -7.588 h -7.593 z"
           id="path35" />
      </g>
    </g>
    <text
       xml:space="preserve"
       style="font-size:2.11667px;line-height:0;font-family:'Century Gothic';-inkscape-font-specification:'Century Gothic';letter-spacing:0px;word-spacing:0px;display:none;stroke-width:0.264583;stroke-miterlimit:4;stroke-dasharray:none"
       x="10.643622"
       y="6.5070381"
       id="text922"
       inkscape:label="now text"><tspan
         style="font-style:italic;font-variant:normal;font-weight:bold;font-stretch:normal;font-size:3.52778px;line-height:1;font-family:'Book Antiqua';-inkscape-font-specification:'Book Antiqua Bold Italic';fill:#f30e1b;fill-opacity:1;stroke-width:0.264583;stroke-miterlimit:4;stroke-dasharray:none"
         sodipodi:role="line"
         id="tspan920"
         x="0"
         y="0">Now!</tspan></text>
    <g
       aria-label="Now!"
       id="text935"
       style="font-size:2.11667px;line-height:0;font-family:'Century Gothic';-inkscape-font-specification:'Century Gothic';letter-spacing:0px;word-spacing:0px;display:inline;stroke-width:0.264583;stroke-miterlimit:4;stroke-dasharray:none"
       inkscape:label="now baked">
      <path
         d="m 10.583333,6.5225411 0.01895,-0.1171334 h 0.08785 q 0.09646,0 0.130914,-0.020671 0.03445,-0.02067 0.0534,-0.060289 0.02756,-0.056844 0.09474,-0.3961862 L 11.07943,5.3494851 Q 11.200009,4.6260146 11.23446,4.4158636 11.16039,4.2918401 11.103546,4.2573891 11.046706,4.2212161 10.929569,4.2212161 h -0.129192 l 0.02067,-0.1171333 q 0.232544,0.012058 0.423747,0.012058 0.1757,0 0.335897,-0.012058 0.02756,0.044786 0.137804,0.2411568 0.06718,0.1188559 0.118856,0.2015382 0.516764,0.8750548 0.869887,1.462444 l 0.106798,-0.6373431 q 0.153307,-0.9215636 0.153307,-1.0524773 0,-0.049954 -0.03445,-0.07407 -0.03273,-0.024116 -0.118856,-0.024116 h -0.156752 l 0.01895,-0.1171333 q 0.26355,0.012058 0.466811,0.012058 0.192925,0 0.36518,-0.012058 l -0.01895,0.1171333 h -0.120578 q -0.09991,0 -0.134359,0.039619 -0.03273,0.039619 -0.101631,0.3686255 Q 13.020743,5.16345 12.85021,6.1918117 12.81231,6.415743 12.79681,6.5345989 H 12.490195 L 12.204252,6.0350597 11.375706,4.6260148 q -0.07235,0.4323597 -0.110243,0.6580136 -0.142972,0.8647196 -0.142972,1.0128588 0,0.056844 0.03101,0.082682 0.03273,0.025838 0.117133,0.025838 h 0.15503 l -0.02067,0.1171334 q -0.268718,-0.015503 -0.437527,-0.015503 -0.179145,0 -0.384129,0.015503 z"
         style="font-style:italic;font-variant:normal;font-weight:bold;font-stretch:normal;font-size:3.52778px;line-height:1;font-family:'Book Antiqua';-inkscape-font-specification:'Book Antiqua Bold Italic';fill:#f30e1b;fill-opacity:1;stroke-width:0.264583;stroke-miterlimit:4;stroke-dasharray:none"
         id="path924" />
      <path
         d="m 13.55473,6.026447 q 0,-0.3445098 0.153307,-0.6666264 0.08957,-0.1894804 0.360012,-0.3582902 0.272163,-0.1688098 0.530545,-0.1688098 0.196371,0 0.327285,0.063734 0.130913,0.062012 0.192925,0.1774226 0.06201,0.1136882 0.06201,0.301446 0,0.2359892 -0.08785,0.473701 -0.08613,0.2359891 -0.199816,0.3513999 -0.148139,0.1481392 -0.408244,0.2687176 -0.18259,0.084405 -0.384128,0.084405 -0.279053,0 -0.413412,-0.1309137 Q 13.55473,6.289997 13.55473,6.026447 Z m 0.413412,-0.037896 q 0,0.2153186 0.07924,0.3066137 0.07924,0.091295 0.239434,0.091295 0.111966,0 0.198093,-0.077515 0.113688,-0.1033529 0.198093,-0.3789608 0.08613,-0.2773303 0.08613,-0.5615509 0,-0.1963705 -0.08268,-0.2911107 -0.08268,-0.09474 -0.222208,-0.09474 -0.122301,0 -0.220487,0.086127 -0.09818,0.086127 -0.172254,0.3272843 -0.103353,0.3410647 -0.103353,0.5925568 z"
         style="font-style:italic;font-variant:normal;font-weight:bold;font-stretch:normal;font-size:3.52778px;line-height:1;font-family:'Book Antiqua';-inkscape-font-specification:'Book Antiqua Bold Italic';fill:#f30e1b;fill-opacity:1;stroke-width:0.264583;stroke-miterlimit:4;stroke-dasharray:none"
         id="path926" />
      <path
         d="m 15.415082,5.3184794 q 0.02756,-0.093018 0.07924,-0.2222088 0.06029,-0.1533068 0.06373,-0.2446019 0.122301,-0.020671 0.172255,-0.020671 0.09818,0 0.180868,0.00689 l 0.144694,0.01378 q 0.06373,0.00517 0.113688,0.00517 0.199816,0 0.298001,-0.037896 l 0.04995,0.055122 q -0.239435,0.26355 -0.366903,0.5632735 -0.125746,0.2980009 -0.125746,0.5546607 0,0.1808676 0.0534,0.2601049 0.0534,0.079237 0.130913,0.079237 0.122301,0 0.275608,-0.1963705 0.218764,-0.2773304 0.318672,-0.7114127 0.09991,-0.4340823 0.09991,-0.511597 0.172255,-0.032729 0.37896,-0.093018 l 0.04479,0.032729 q -0.03962,0.1205784 -0.146417,0.546048 -0.10163,0.408244 -0.10163,0.6562911 0,0.1360813 0.05684,0.2067058 0.05684,0.070625 0.144694,0.070625 0.10163,0 0.217041,-0.1033529 0.173977,-0.1550294 0.289388,-0.423747 0.115411,-0.2704402 0.115411,-0.5133196 0,-0.1033529 -0.04651,-0.1550294 -0.04479,-0.053399 -0.118856,-0.053399 -0.05684,0 -0.118856,0.043064 l -0.04134,-0.08096 q 0.111966,-0.060289 0.24977,-0.2032607 0.05512,-0.01378 0.0913,-0.01378 0.106798,0 0.177422,0.08785 0.07235,0.08785 0.07235,0.2549372 0,0.2945559 -0.192926,0.6425107 -0.191203,0.3462323 -0.484036,0.5649961 -0.232544,0.1756999 -0.430637,0.1756999 -0.144695,0 -0.239435,-0.099908 -0.09302,-0.1016304 -0.09302,-0.2687176 0,-0.122301 0.03273,-0.2997235 l -0.03962,0.067179 q -0.105075,0.1791451 -0.184312,0.2721627 -0.156752,0.1791451 -0.289388,0.2549372 -0.132637,0.07407 -0.244602,0.07407 -0.160197,0 -0.26355,-0.1240235 -0.101631,-0.1240235 -0.101631,-0.3531225 0,-0.1533068 0.04823,-0.2980009 0.04995,-0.1464167 0.151584,-0.2876657 0.10163,-0.141249 0.406521,-0.4461402 -0.11541,0.032728 -0.296278,0.032728 h -0.118856 q -0.09474,0 -0.194648,0.012058 L 15.52188,5.3236471 Z"
         style="font-style:italic;font-variant:normal;font-weight:bold;font-stretch:normal;font-size:3.52778px;line-height:1;font-family:'Book Antiqua';-inkscape-font-specification:'Book Antiqua Bold Italic';fill:#f30e1b;fill-opacity:1;stroke-width:0.264583;stroke-miterlimit:4;stroke-dasharray:none"
         id="path928" />
      <path
         d="m 18.730989,5.8404117 -0.04651,-0.029283 q 0.02239,-0.1791451 0.09991,-1.0765931 0.03962,-0.4633656 0.04134,-0.5632734 0.115411,-0.00345 0.489204,-0.1016304 l 0.04134,0.032728 -0.08096,0.26355 -0.325561,1.0800381 q -0.06029,0.1998157 -0.08096,0.3083363 z m -0.258382,0.5081519 q 0,-0.1188558 0.06373,-0.2153186 0.06373,-0.096463 0.187758,-0.096463 0.09991,0 0.156752,0.060289 0.05857,0.058567 0.05857,0.1515843 0,0.1343588 -0.07407,0.2204862 -0.07235,0.084405 -0.189481,0.084405 -0.09474,0 -0.149861,-0.055121 -0.0534,-0.055122 -0.0534,-0.1498618 z"
         style="font-style:italic;font-variant:normal;font-weight:bold;font-stretch:normal;font-size:3.52778px;line-height:1;font-family:'Book Antiqua';-inkscape-font-specification:'Book Antiqua Bold Italic';display:inline;fill:#f30e1b;fill-opacity:1;stroke-width:0.264583;stroke-miterlimit:4;stroke-dasharray:none"
         id="path930" />
    </g>
    <text
       xml:space="preserve"
       style="font-size:1.76389px;line-height:0;font-family:'Century Gothic';-inkscape-font-specification:'Century Gothic';letter-spacing:0px;word-spacing:0px;display:none;stroke-width:0.264583"
       x="8.4022121"
       y="3.3857827"
       id="text899"
       inkscape:label="svg button text"><tspan
         style="font-style:normal;font-variant:normal;font-weight:bold;font-stretch:normal;font-size:1.76389px;line-height:1;font-family:'Copperplate CC';-inkscape-font-specification:'Copperplate CC Bold';stroke-width:0.264583"
         id="tspan897"
         x="0"
         y="0"
         sodipodi:role="line">SVG BUTTON</tspan></text>
    <g
       aria-label="SVG BUTTON"
       id="text869"
       style="font-size:1.76389px;line-height:0;font-family:'Century Gothic';-inkscape-font-specification:'Century Gothic';letter-spacing:0px;word-spacing:0px;display:inline;stroke-width:0.264583"
       inkscape:label="svg button baked">
      <path
         d="m 8.5786011,2.9677408 0.022931,0.014111 -0.012347,0.028222 q 0.086431,0.054681 0.2063751,0.098778 0.1217084,0.042333 0.3033891,0.042333 0.1658057,0 0.2469446,-0.03175 0.081139,-0.033514 0.081139,-0.1058334 0,-0.072319 -0.088195,-0.1023056 Q 9.2506432,2.8813102 9.0530876,2.8654352 8.7708652,2.8425046 8.6403373,2.756074 8.5115733,2.6696434 8.5115733,2.5020738 q 0,-0.1358195 0.077611,-0.2204862 0.079375,-0.086431 0.2116668,-0.1252362 0.1322917,-0.04057 0.289278,-0.04057 0.1957917,0 0.3245557,0.044097 0.1305279,0.042333 0.2169585,0.098778 l 0.010583,-0.017639 0.022931,0.014111 -0.1499306,0.2451807 -0.022931,-0.014111 0.014111,-0.024694 q -0.0635,-0.038806 -0.1781529,-0.068792 -0.112889,-0.029986 -0.255764,-0.029986 -0.1393474,0 -0.209903,0.035278 -0.068792,0.035278 -0.068792,0.091722 0,0.049389 0.035278,0.077611 0.037042,0.026458 0.1199446,0.042333 0.084667,0.014111 0.2257779,0.024695 0.2698751,0.021167 0.3951113,0.1075973 0.1270001,0.084667 0.1270001,0.2734029 0,0.1305279 -0.077611,0.2187224 -0.077611,0.086431 -0.2151946,0.1287639 -0.1375834,0.042333 -0.3139724,0.04057 Q 8.8590597,3.3998938 8.7108929,3.3505049 8.5627261,3.301116 8.4921705,3.2429076 l -0.014111,0.03175 -0.022931,-0.014111 z"
         style="font-style:normal;font-variant:normal;font-weight:bold;font-stretch:normal;font-size:1.76389px;line-height:1;font-family:'Copperplate CC';-inkscape-font-specification:'Copperplate CC Bold';stroke-width:0.264583"
         id="path901" />
      <path
         d="m 10.450088,3.140602 0.368653,-0.963084 h -0.03351 V 2.15106 h 0.365126 v 0.026458 h -0.02822 l -0.481541,1.1818064 h 0.02469 v 0.026458 h -0.430389 v -0.026458 h 0.02469 L 9.7780463,2.177518 H 9.749824 V 2.15106 h 0.365125 v 0.026458 h -0.03351 z"
         style="font-style:normal;font-variant:normal;font-weight:bold;font-stretch:normal;font-size:1.76389px;line-height:1;font-family:'Copperplate CC';-inkscape-font-specification:'Copperplate CC Bold';stroke-width:0.264583"
         id="path903" />
      <path
         d="m 11.45903,2.7684212 q 0,0.1816807 0.119944,0.2857502 0.119945,0.1023056 0.338667,0.1023056 0.09349,0 0.169333,-0.022931 0.07585,-0.024694 0.139348,-0.059972 V 2.9359908 h -0.287514 v 0.052917 h -0.02646 V 2.6890462 h 0.02646 v 0.026458 h 0.596194 v 0.026458 h -0.03528 V 3.209393 h 0.03528 v 0.026458 h -0.03528 q -0.05997,0.037042 -0.137584,0.075847 -0.07761,0.038806 -0.185208,0.065264 -0.107597,0.026458 -0.259292,0.026458 -0.215195,0 -0.384528,-0.075847 -0.169333,-0.077611 -0.268111,-0.2187223 -0.09701,-0.1428751 -0.09701,-0.3404308 0,-0.1975557 0.09701,-0.3386669 0.09878,-0.1428751 0.268111,-0.2187223 0.169333,-0.077611 0.384528,-0.077611 0.146403,0 0.252236,0.029986 0.105834,0.028222 0.179917,0.068792 0.07585,0.04057 0.128764,0.077611 l 0.01235,-0.015875 0.02293,0.014111 -0.188736,0.2504724 -0.02293,-0.014111 0.01764,-0.022931 q -0.06526,-0.054681 -0.164042,-0.097014 -0.09878,-0.044097 -0.238125,-0.044097 -0.218722,0 -0.338667,0.1023056 -0.119944,0.1023056 -0.119944,0.2857502 z"
         style="font-style:normal;font-variant:normal;font-weight:bold;font-stretch:normal;font-size:1.76389px;line-height:1;font-family:'Copperplate CC';-inkscape-font-specification:'Copperplate CC Bold';stroke-width:0.264583"
         id="path905" />
      <path
         d="m 13.443402,3.3857827 v -0.026458 h 0.03528 V 2.177518 h -0.03528 V 2.15106 h 0.776111 q 0.192264,0 0.298098,0.086431 0.107597,0.086431 0.107597,0.2310696 0,0.1146529 -0.05645,0.1816807 -0.05468,0.065264 -0.135819,0.097014 0.107597,0.03175 0.165806,0.1093612 0.05821,0.077611 0.05821,0.1940279 0,0.1569862 -0.105834,0.2469446 -0.104069,0.088195 -0.296333,0.088195 z m 0.740833,-0.9877784 h -0.433917 v 0.2204863 h 0.416278 q 0.09349,0 0.134056,-0.026458 0.04233,-0.026458 0.04233,-0.086431 0,-0.1075973 -0.15875,-0.1075973 z m -0.433917,0.7408338 h 0.442737 q 0.07938,0 0.130528,-0.03175 0.05115,-0.03175 0.05115,-0.1181806 0,-0.074083 -0.05115,-0.1075973 -0.05115,-0.033514 -0.130528,-0.033514 h -0.442737 z"
         style="font-style:normal;font-variant:normal;font-weight:bold;font-stretch:normal;font-size:1.76389px;line-height:1;font-family:'Copperplate CC';-inkscape-font-specification:'Copperplate CC Bold';stroke-width:0.264583"
         id="path907" />
      <path
         d="M 14.842165,2.177518 V 2.15106 h 0.343959 v 0.026458 h -0.03528 v 0.7814033 q 0,0.112889 0.08114,0.1640418 0.0829,0.051153 0.227542,0.051153 0.15875,0 0.232833,-0.051153 0.07585,-0.051153 0.07585,-0.1640418 V 2.177518 h -0.03528 V 2.15106 h 0.343958 v 0.026458 h -0.03528 v 0.80257 q 0,0.1111251 -0.04763,0.192264 -0.04586,0.079375 -0.128764,0.1305279 -0.08114,0.051153 -0.185209,0.075847 -0.104069,0.024694 -0.220486,0.024694 -0.116417,0 -0.220486,-0.024694 -0.10407,-0.024695 -0.186973,-0.075847 -0.08114,-0.051153 -0.128764,-0.1305279 -0.04586,-0.081139 -0.04586,-0.192264 v -0.80257 z"
         style="font-style:normal;font-variant:normal;font-weight:bold;font-stretch:normal;font-size:1.76389px;line-height:1;font-family:'Copperplate CC';-inkscape-font-specification:'Copperplate CC Bold';stroke-width:0.264583"
         id="path909" />
      <path
         d="m 16.606055,3.3857827 v -0.026458 h 0.05292 V 2.3891849 h -0.440972 v 0.044097 H 16.19154 V 2.1246013 H 16.218 v 0.026458 h 1.155348 v -0.026458 h 0.02646 v 0.3086808 h -0.02646 v -0.044097 h -0.440973 v 0.9701395 h 0.05292 v 0.026458 z"
         style="font-style:normal;font-variant:normal;font-weight:bold;font-stretch:normal;font-size:1.76389px;line-height:1;font-family:'Copperplate CC';-inkscape-font-specification:'Copperplate CC Bold';stroke-width:0.264583"
         id="path911" />
      <path
         d="m 17.920151,3.3857827 v -0.026458 h 0.05292 V 2.3891849 h -0.440973 v 0.044097 h -0.02646 V 2.1246013 h 0.02646 v 0.026458 h 1.155348 v -0.026458 h 0.02646 v 0.3086808 h -0.02646 v -0.044097 h -0.440972 v 0.9701395 h 0.05292 v 0.026458 z"
         style="font-style:normal;font-variant:normal;font-weight:bold;font-stretch:normal;font-size:1.76389px;line-height:1;font-family:'Copperplate CC';-inkscape-font-specification:'Copperplate CC Bold';stroke-width:0.264583"
         id="path913" />
      <path
         d="m 18.802096,2.7684212 q 0,-0.1552223 0.05645,-0.2734029 0.05644,-0.1181807 0.155222,-0.1975557 0.100542,-0.081139 0.229306,-0.1217084 0.128764,-0.042333 0.273402,-0.042333 0.144639,0 0.273403,0.042333 0.128764,0.040569 0.227542,0.1217084 0.100542,0.079375 0.156986,0.1975557 0.05645,0.1181806 0.05645,0.2734029 0,0.1552223 -0.05645,0.273403 -0.05644,0.1181806 -0.156986,0.1993195 -0.09878,0.079375 -0.227542,0.1217084 -0.128764,0.04057 -0.273403,0.04057 -0.144638,0 -0.273402,-0.04057 -0.128764,-0.042333 -0.229306,-0.1217084 -0.09878,-0.081139 -0.155222,-0.1993195 -0.05645,-0.1181807 -0.05645,-0.273403 z m 0.291042,0 q 0,0.1270001 0.05644,0.2134307 0.05821,0.086431 0.153459,0.1305279 0.09701,0.044097 0.21343,0.044097 0.118181,0 0.213431,-0.044097 0.09525,-0.044097 0.151695,-0.1305279 0.05821,-0.086431 0.05821,-0.2134307 0,-0.1270001 -0.05821,-0.2134307 -0.05645,-0.086431 -0.151695,-0.1305278 -0.09525,-0.044097 -0.213431,-0.044097 -0.116416,0 -0.21343,0.044097 -0.09525,0.044097 -0.153459,0.1305278 -0.05644,0.086431 -0.05644,0.2134307 z"
         style="font-style:normal;font-variant:normal;font-weight:bold;font-stretch:normal;font-size:1.76389px;line-height:1;font-family:'Copperplate CC';-inkscape-font-specification:'Copperplate CC Bold';stroke-width:0.264583"
         id="path915" />
      <path
         d="m 20.433693,3.3857827 v -0.026458 h 0.03528 V 2.177518 h -0.03528 V 2.15106 h 0.423334 v 0.026458 h -0.04939 l 0.631472,0.77082 v -0.77082 h -0.03528 V 2.15106 h 0.335139 v 0.026458 h -0.03528 v 1.1818064 h 0.03528 v 0.026458 h -0.370417 v -0.026458 h 0.05292 L 20.733554,2.5073655 v 0.8519589 h 0.03528 v 0.026458 z"
         style="font-style:normal;font-variant:normal;font-weight:bold;font-stretch:normal;font-size:1.76389px;line-height:1;font-family:'Copperplate CC';-inkscape-font-specification:'Copperplate CC Bold';stroke-width:0.264583"
         id="path917" />
    </g>
    <rect
       style="fill:#0e737e;fill-opacity:1;fill-rule:evenodd;stroke-width:0.264583;stroke-linecap:round;stroke-miterlimit:4;stroke-dasharray:none;stop-color:#000000"
       id="rect976"
       width="12.390038"
       height="2.1202321"
       x="-6.3881898"
       y="2.3924205"
       transform="rotate(-45)"
       inkscape:label="sash" />
    <text
       xml:space="preserve"
       style="font-size:1.41111px;line-height:0;font-family:'Century Gothic';-inkscape-font-specification:'Century Gothic';letter-spacing:0px;word-spacing:0px;display:inline;stroke-width:0.264583"
       x="-1.990926"
       y="3.9021077"
       id="text948"
       inkscape:label="get an"
       transform="rotate(-45)"><tspan
         style="font-style:normal;font-variant:normal;font-weight:normal;font-stretch:normal;font-size:1.41111px;line-height:1;font-family:Arial;-inkscape-font-specification:Arial;fill:#ffffff;fill-opacity:1;stroke-width:0.264583"
         id="tspan946"
         x="-1.990926"
         y="3.9021077"
         sodipodi:role="line">Get an</tspan></text>
  </g>
  <g
     id="g993"
     inkscape:label="frame 2"
     style="display:none"
     inkscape:groupmode="layer">
    <g
       id="g998"
       inkscape:label="icon">
      <rect
         style="fill:none;fill-opacity:1;fill-rule:evenodd;stroke:#0068c3;stroke-width:0.264583;stroke-linecap:round;stroke-linejoin:round;stroke-miterlimit:4;stroke-dasharray:none;stroke-opacity:1;stop-color:#000000"
         id="rect995"
         width="3.9687505"
         height="2.3812504"
         x="14.948958"
         y="3.8364582"
         ry="0.39687499"
         inkscape:label="small"
         rx="0.39687499" />
      <rect
         style="fill:none;fill-opacity:1;fill-rule:evenodd;stroke:#0068c3;stroke-width:0.264583;stroke-linecap:round;stroke-linejoin:round;stroke-miterlimit:4;stroke-dasharray:none;stroke-opacity:1;stop-color:#000000"
         id="rect1000"
         width="6.0854173"
         height="3.9687502"
         x="14.948958"
         y="2.2489581"
         ry="0.39687499"
         inkscape:label="large"
         rx="0.39687496" />
    </g>
    <text
       xml:space="preserve"
       style="font-size:2.11667px;line-height:0;font-family:'Century Gothic';-inkscape-font-specification:'Century Gothic';letter-spacing:0px;word-spacing:0px;display:none;stroke-width:0.264583"
       x="8.0130596"
       y="2.523551"
       id="text886"
       inkscape:label="resolution-old"><tspan
         style="font-style:italic;font-variant:normal;font-weight:normal;font-stretch:normal;font-size:2.11667px;line-height:1;font-family:'Book Antiqua';-inkscape-font-specification:'Book Antiqua Italic';stroke-width:0.264583"
         sodipodi:role="line"
         id="tspan884"
         x="0"
         y="0">don't be limited</tspan><tspan
         style="font-style:italic;font-variant:normal;font-weight:normal;font-stretch:normal;font-size:2.11667px;line-height:1;font-family:'Book Antiqua';-inkscape-font-specification:'Book Antiqua Italic';stroke-width:0.264583"
         sodipodi:role="line"
         x="0"
         y="0"
         id="tspan893">by resolution</tspan></text>
    <text
       xml:space="preserve"
       style="font-size:1.76389px;line-height:1.1;font-family:'Century Gothic';-inkscape-font-specification:'Century Gothic';letter-spacing:0px;word-spacing:0px;display:inline;stroke-width:0.264583"
       x="1.8391335"
       y="2.8315558"
       id="text982"
       inkscape:label="resolution"><tspan
         style="font-style:normal;font-variant:normal;font-weight:normal;font-stretch:normal;font-size:1.76389px;font-family:'Fira Sans';-inkscape-font-specification:'Fira Sans';stroke-width:0.264583"
         sodipodi:role="line"
         id="tspan978"
         x="1.8391335"
         y="2.8315558">Tired of being</tspan><tspan
         style="font-style:normal;font-variant:normal;font-weight:normal;font-stretch:normal;font-size:1.76389px;font-family:'Fira Sans';-inkscape-font-specification:'Fira Sans';stroke-width:0.264583"
         sodipodi:role="line"
         x="1.8391335"
         y="4.7783751"
         id="tspan984">limited by</tspan><tspan
         style="font-style:normal;font-variant:normal;font-weight:normal;font-stretch:normal;font-size:1.76389px;font-family:'Fira Sans';-inkscape-font-specification:'Fira Sans';stroke-width:0.264583"
         sodipodi:role="line"
         x="1.8391335"
         y="6.7251949"
         id="tspan980">resolution?</tspan></text>
  </g>
</svg>
