<?xml version="1.0" encoding="UTF-8" standalone="no"?>
<svg version="1.1" height="31" width="88" id="svg63" sodipodi:docname="svg-viatrix-anim.svg" inkscape:version="1.2.1 (9c6d41e410, 2022-07-14)" xml:space="preserve" xmlns:inkscape="http://www.inkscape.org/namespaces/inkscape" xmlns:sodipodi="http://sodipodi.sourceforge.net/DTD/sodipodi-0.dtd" xmlns:xlink="http://www.w3.org/1999/xlink" xmlns="http://www.w3.org/2000/svg" xmlns:svg="http://www.w3.org/2000/svg">
	<sodipodi:namedview id="namedview65" pagecolor="#505050" bordercolor="#ffffff" borderopacity="1" inkscape:showpageshadow="0" inkscape:pageopacity="0" inkscape:pagecheckerboard="1" inkscape:deskcolor="#505050" showgrid="false" inkscape:zoom="16.000001" inkscape:cx="52.531248" inkscape:cy="19.374999" inkscape:window-width="2498" inkscape:window-height="1421" inkscape:window-x="2617" inkscape:window-y="-5" inkscape:window-maximized="1" inkscape:current-layer="svg63"/>
	<defs id="defs14">
		<linearGradient inkscape:collect="always" id="sheen">
			<stop style="stop-color:#ffffff;stop-opacity:0;" offset="0" id="stop2461"/>
			<stop style="stop-color:#ffffff;stop-opacity:1;" offset="0.44714037" id="stop2569"/>
			<stop style="stop-color:#ffffff;stop-opacity:1;" offset="0.54549396" id="stop2571"/>
			<stop style="stop-color:#ffffff;stop-opacity:0;" offset="1" id="stop2463"/>
		</linearGradient>
		<linearGradient id="w">
			<stop stop-color="#fff" offset="0" id="stop2"/>
			<stop stop-color="#fff" stop-opacity="0" offset="1" id="stop4"/>
		</linearGradient>
		<linearGradient id="b">
			<stop stop-color="#000" stop-opacity="0" offset="0" id="stop7"/>
			<stop stop-color="#000" offset="1" id="stop9"/>
		</linearGradient>
		<linearGradient id="wv" xlink:href="#w" y2="1" x2="0"/>
		<linearGradient id="bv" xlink:href="#b" y2="1" x2="0"/>
		<linearGradient inkscape:collect="always" xlink:href="#sheen" id="linearGradient2467" x1="80.704506" y1="19.855299" x2="82.295494" y2="12.948893" gradientUnits="userSpaceOnUse" gradientTransform="translate(0,-0.40209649)"/>
	</defs>
	<rect style="fill:#d10000;fill-opacity:1;fill-rule:evenodd;stroke-dashoffset:1.5;stop-color:#000000" id="rect1828" width="13" height="31" x="75" y="0" inkscape:label="red"/>
	<rect style="fill:url(#linearGradient2467);fill-opacity:1;fill-rule:evenodd;stroke-width:1;stroke-dashoffset:1.5;stop-color:#000000" id="rect1880" width="13" height="10" x="75" y="11" inkscape:label="sheen" ry="0">
		<animateTransform attributeName="transform" attributeType="XML" repeatCount="indefinite" type="translate" values="0 35; 0 35; 0 -35" dur="6s" keyTimes="0; 0.85; 1"/>
	</rect>
	<rect style="fill:#cccccc;fill-opacity:1;fill-rule:evenodd;stroke-dashoffset:1.5;stop-color:#000000" id="rect799" width="75" height="31" x="0" y="0" inkscape:label="bg"/>
	<path d="m 86,0 h 3 v 31 h -3" fill="url(#b)" id="path20" style="display:inline" inkscape:label="right"/>
	<path d="m 0,29 v 3 h 88 v -3" fill="url(#bv)" id="path22" style="display:inline" inkscape:label="btm"/>
	<path d="M 0,0 H 3 V 31 H 0" fill="url(#w)" id="path24" style="display:inline" inkscape:label="left"/>
	<path d="M 0,0 V 3 H 88 V 0" fill="url(#wv)" id="path26" style="display:inline" inkscape:label="top"/>
	<g xmlns="http://www.w3.org/2000/svg" id="g965" inkscape:label="logo" xmlns:inkscape="http://www.inkscape.org/namespaces/inkscape" style="display:inline" transform="matrix(0.08007307,0,0,0.08007307,4.0614915,3.4858457)">
		<path id="base-9" fill="#000000" d="m 8.5,150 h 283 v 100 c 0,23.5 -18,41.5 -41.5,41.5 H 50 C 26.5,291.5 8.5,273.5 8.5,250 Z"/>
		<g id="star-container">
			<g stroke-width="38.0086" stroke="#000000" id="g939">
				<g id="g805">
					<path id="path797" fill="#ffb13b" d="m 65.857541,134.11306 a 22.4171,22.4171 0 1 0 0,31.7026 H 234.15494 a 22.4171,22.4171 0 1 0 0,-31.7026 z"/>
					<path id="path799" fill="#ffb13b" d="M 101.71269,79.253674 A 22.4171,22.4171 0 1 0 79.295563,101.67079 L 198.29979,220.67504 a 22.4171,22.4171 0 1 0 22.41713,-22.41713 z"/>
					<path id="path801" fill="#ffb13b" d="m 165.85754,65.815652 a 22.4171,22.4171 0 1 0 -31.7026,0 V 234.11306 a 22.4171,22.4171 0 1 0 31.7026,0 z"/>
					<path id="path803" fill="#ffb13b" d="M 220.71692,101.67079 A 22.4171,22.4171 0 1 0 198.29979,79.253674 L 79.295563,198.25791 a 22.4171,22.4171 0 1 0 22.417127,22.41713 z"/>
				</g>
				
			</g>
			<g id="g815" style="display:inline;">
				<path fill="#ffb13b" d="m 65.8513,134.1487 a 22.4171,22.4171 0 1 0 0,31.7026 h 168.2974 a 22.4171,22.4171 0 1 0 0,-31.7026 z" id="path807"/>
				<path fill="#ffb13b" d="M 101.70645,79.289322 A 22.4171,22.4171 0 1 0 79.289322,101.70645 L 198.29355,220.71068 a 22.4171,22.4171 0 1 0 22.41713,-22.41713 z" id="path809"/>
				<path fill="#ffb13b" d="m 165.8513,65.8513 a 22.4171,22.4171 0 1 0 -31.7026,0 v 168.2974 a 22.4171,22.4171 0 1 0 31.7026,0 z" id="path811"/>
				<path fill="#ffb13b" d="M 220.71068,101.70645 A 22.4171,22.4171 0 1 0 198.29355,79.289322 L 79.289322,198.29355 a 22.4171,22.4171 0 1 0 22.417128,22.41713 z" id="path813"/>
				
			</g><animateTransform xmlns="http://www.w3.org/2000/svg" attributeType="XML" repeatCount="indefinite" attributeName="transform" type="rotate" calcMode="spline" keyTimes="0; 0.8; 1" dur="6s" keySplines="0 0 1 1; 0.6 0 0.5 1" values="0 150 150; 0 150 150; 405 150 150"/>
		</g>
		<path id="use943" fill="#000000" d="m 8.5,150 h 283 v 100 c 0,23.5 -18,41.5 -41.5,41.5 H 50 C 26.5,291.5 8.5,273.5 8.5,250 Z" opacity="0.85"/>
		<g id="use945" fill="#ffffff" transform="matrix(2,0,0,2,40,158)" style="display:inline">
			<path d="M 5.482,31.319 C 2.163,28.001 0.109,23.419 0.109,18.358 0.109,8.232 8.322,0.024 18.443,0.024 c 10.126,0 18.339,8.208 18.339,18.334 h -10.74 c 0,-4.194 -3.404,-7.593 -7.599,-7.593 -4.194,0 -7.593,3.399 -7.593,7.593 0,2.095 0.851,3.993 2.22,5.363 h 0.005 c 1.375,1.38 2.52,1.779 5.368,2.231 v 0 c 5.066,0.527 9.648,2.054 12.966,5.372 v 0 c 3.319,3.319 5.373,7.901 5.373,12.962 0,10.126 -8.213,18.339 -18.339,18.339 C 8.322,62.625 0.109,54.412 0.109,44.286 H 10.85 c 0,4.194 3.399,7.598 7.593,7.598 4.195,0 7.599,-3.404 7.599,-7.598 0,-2.095 -0.851,-3.988 -2.221,-5.363 H 23.816 C 22.441,37.548 20.468,37.074 18.443,36.697 V 36.692 C 13.533,35.939 8.8,34.638 5.482,31.319 Z" id="path31"/>
			<path d="M 73.452,0.024 60.482,62.625 H 49.742 L 36.782,0.024 h 10.74 l 7.6,36.663 7.59,-36.663 z" id="path33"/>
			<path d="m 91.792,25.952 h 18.334 v 18.334 h 0.005 c 0,10.127 -8.213,18.34 -18.339,18.34 -10.127,0 -18.334,-8.213 -18.334,-18.34 v 0 -25.927 h -0.005 c 0,-10.126 8.212,-18.334 18.339,-18.334 10.121,0 18.334,8.208 18.334,18.334 H 99.385 c 0,-4.19 -3.404,-7.594 -7.593,-7.594 -4.195,0 -7.594,3.404 -7.594,7.594 v 25.927 0 c 0,4.195 3.399,7.594 7.594,7.594 4.189,0 7.588,-3.399 7.593,-7.589 v -0.005 -7.588 h -7.593 z" id="path35"/>
		</g>
		
	</g>
	<g id="g1248" transform="translate(0.46966994,-0.9956713)" inkscape:label="text" style="font-family: &quot;Times New Roman&quot;, serif;">
		<text xml:space="preserve" style="font-size:7.33333px;line-height:1.1;/*! font-family:&quot;Times New Roman&quot;, serif; */-inkscape-font-specification:'Century Gothic';letter-spacing:0px;word-spacing:0px" x="36.389492" y="10.912677" id="text1833" inkscape:label="cer">
			<tspan sodipodi:role="line" id="tspan1827" x="36.389492" y="10.912677" style="font-style:normal;font-variant:normal;font-weight:bold;font-stretch:normal;font-size:7.33333px;/*! font-family:'Times New Roman'; */-inkscape-font-specification:'Times New Roman,  Bold'">CALABLE</tspan>
			<tspan sodipodi:role="line" x="36.389492" y="19.159277" style="font-style:normal;font-variant:normal;font-weight:bold;font-stretch:normal;font-size:7.33333px;/*! font-family:'Times New Roman'; */-inkscape-font-specification:'Times New Roman,  Bold'" id="tspan1829"> ECTOR</tspan>
			<tspan sodipodi:role="line" x="36.389492" y="27.405876" style="font-style:normal;font-variant:normal;font-weight:bold;font-stretch:normal;font-size:7.33333px;/*! font-family:'Times New Roman'; */-inkscape-font-specification:'Times New Roman,  Bold'" id="tspan1831">  RAPHICS</tspan>
		</text>
		<text xml:space="preserve" style="font-size:9.33333px;line-height:0.85;/*! font-family:&quot;Times New Roman&quot;, serif; */-inkscape-font-specification:'Century Gothic';letter-spacing:0px;word-spacing:0px" x="29.774187" y="10.916633" id="text1256" inkscape:label="svg">
			<tspan sodipodi:role="line" x="29.774187" y="10.916633" style="font-style:normal;font-variant:normal;font-weight:bold;font-stretch:normal;font-size:9.33333px;/*! font-family:'Times New Roman'; */-inkscape-font-specification:'Times New Roman, Bold';fill:#0402fc;fill-opacity:1" id="tspan1254"> S
			</tspan>
			<tspan sodipodi:role="line" x="29.774187" y="19.078974" style="font-style:normal;font-variant:normal;font-weight:bold;font-stretch:normal;font-size:9.33333px;/*! font-family:'Times New Roman'; */-inkscape-font-specification:'Times New Roman,  Bold';fill:#0402fc;fill-opacity:1" id="tspan1263">V</tspan>
			<tspan sodipodi:role="line" x="29.774187" y="27.241314" style="font-style:normal;font-variant:normal;font-weight:bold;font-stretch:normal;font-size:9.33333px;/*! font-family:'Times New Roman'; */-inkscape-font-specification:'Times New Roman,  Bold';fill:#0402fc;fill-opacity:1" id="tspan1265">G</tspan>
		</text>
	</g>
	<text xmlns="http://www.w3.org/2000/svg" xml:space="preserve" x="-26.873222" y="84.234131" id="text1825" transform="rotate(-90)" inkscape:label="now" xmlns:inkscape="http://www.inkscape.org/namespaces/inkscape" style="font-style:italic;font-variant:normal;font-weight:normal;font-stretch:normal;font-size:10.6667px;font-family:'Times New Roman', serif;-inkscape-font-specification:'Times New Roman, Italic';font-variant-ligatures:normal;font-variant-caps:normal;font-variant-numeric:normal;font-variant-east-asian:normal;letter-spacing:0.5px;word-spacing:0px;">
		<tspan xmlns="http://www.w3.org/2000/svg" sodipodi:role="line" xmlns:sodipodi="http://sodipodi.sourceforge.net/DTD/sodipodi-0.dtd" id="tspan1823" x="-26.873222" y="84.234131" style="font-style:italic;font-variant:normal;font-weight:normal;font-stretch:normal;font-size:10.6667px;-inkscape-font-specification:'Times New Roman, Italic';font-variant-ligatures:normal;font-variant-caps:normal;font-variant-numeric:normal;font-variant-east-asian:normal;fill:#ffffff;fill-opacity:1">now!</tspan>
	</text>
</svg>