<?xml version="1.0" encoding="UTF-8" standalone="no"?>
<svg
   xmlns:dc="http://purl.org/dc/elements/1.1/"
   xmlns:cc="http://creativecommons.org/ns#"
   xmlns:rdf="http://www.w3.org/1999/02/22-rdf-syntax-ns#"
   xmlns:svg="http://www.w3.org/2000/svg"
   xmlns="http://www.w3.org/2000/svg"
   xmlns:sodipodi="http://sodipodi.sourceforge.net/DTD/sodipodi-0.dtd"
   xmlns:inkscape="http://www.inkscape.org/namespaces/inkscape"
   width="240"
   height="160"
   viewBox="0 0 240 160"
   version="1.1"
   id="svg8"
   inkscape:version="1.0.2-2 (e86c870879, 2021-01-15)"
   sodipodi:docname="ab-flag-big.svg">
  <title
     id="title858">aboriginal flag</title>
  <defs
     id="defs2" />
  <sodipodi:namedview
     id="base"
     pagecolor="#282828"
     bordercolor="#666666"
     borderopacity="1.0"
     inkscape:pageopacity="0"
     inkscape:pageshadow="2"
     inkscape:zoom="2.8284271"
     inkscape:cx="134.22416"
     inkscape:cy="86.369684"
     inkscape:document-units="px"
     inkscape:current-layer="svg8"
     showgrid="false"
     inkscape:pagecheckerboard="true"
     units="px"
     fit-margin-top="0"
     fit-margin-left="0"
     fit-margin-right="0"
     fit-margin-bottom="0"
     inkscape:window-width="1858"
     inkscape:window-height="1061"
     inkscape:window-x="57"
     inkscape:window-y="-5"
     inkscape:window-maximized="1"
     inkscape:document-rotation="0"
     scale-x="1e-05"
     viewbox-height="0.0016" />
  <metadata
     id="metadata5">
    <rdf:RDF>
      <cc:Work
         rdf:about="">
        <dc:format>image/svg+xml</dc:format>
        <dc:type
           rdf:resource="http://purl.org/dc/dcmitype/StillImage" />
        <dc:title>aboriginal flag</dc:title>
      </cc:Work>
    </rdf:RDF>
  </metadata>
  <rect
     style="opacity:1;fill:#ffffff;fill-opacity:0;stroke:none;stroke-width:1.587;stroke-linecap:round;stroke-linejoin:round;stroke-miterlimit:4;stroke-dasharray:none;stroke-opacity:1"
     id="rect815"
     width="67.73333"
     height="67.73333"
     x="-1.3647463e-07"
     y="-1.3647463e-07"
     inkscape:label="canvas"
     sodipodi:insensitive="true" />
  <path
     id="rect832"
     style="fill:#282828;fill-opacity:1;fill-rule:evenodd;stroke-width:0.999999;stroke-linecap:round;stroke-linejoin:round;stroke-miterlimit:9;stop-color:#000000"
     d="m 1.9999989e-4,0 h 0.002 c 1.108e-4,0 2e-4,8.9200001e-5 2e-4,2e-4 V 8e-4 H 0 V 2e-4 C 0,8.9200001e-5 8.9199952e-5,0 1.9999989e-4,0 Z"
     sodipodi:nodetypes="sssccss" />
  <path
     id="rect832-4"
     style="fill:#cc241d;fill-opacity:1;fill-rule:evenodd;stroke-width:1;stroke-linecap:round;stroke-linejoin:round;stroke-miterlimit:9;stop-color:#000000"
     d="m 0.0024,8e-4 v 6e-4 c 0,1.108e-4 -8.92e-5,2e-4 -2e-4,2e-4 H 2e-4 C 8.9199952e-5,0.0016 0,0.0015108 0,0.0014 V 8e-4 Z"
     sodipodi:nodetypes="csssscc" />
  <circle
     style="fill:#d79921;fill-opacity:1;fill-rule:evenodd;stroke-width:0.999999;stroke-linecap:round;stroke-linejoin:round;stroke-miterlimit:9;stop-color:#000000"
     id="path856"
     cx="0.0011999999"
     cy="0.00079999998"
     r="0.00039999999" />
  <path
     id="rect841"
     style="fill:#282828;fill-rule:evenodd;stroke-width:3;stroke-linecap:round;stroke-linejoin:round;stroke-miterlimit:9;stop-color:#000000;fill-opacity:1"
     d="m 20,0 h 200 c 11.08,0 20,8.92 20,20 V 80 H 0 V 20 C 0,8.92 8.92,0 20,0 Z"
     sodipodi:nodetypes="sssccss" />
  <path
     id="rect832-5"
     style="fill:#282828;fill-opacity:1;fill-rule:evenodd;stroke-width:0.999999;stroke-linecap:round;stroke-linejoin:round;stroke-miterlimit:9;stop-color:#000000"
     d="m 239.9998,160 h -0.002 c -1.1e-4,0 -2e-4,-9e-5 -2e-4,-2e-4 v -6e-4 h 0.002 v 6e-4 c 0,1.1e-4 -9e-5,2e-4 -2e-4,2e-4 z"
     sodipodi:nodetypes="sssccss" />
  <path
     id="rect832-4-1"
     style="fill:#282828;fill-opacity:1;fill-rule:evenodd;stroke-width:1;stroke-linecap:round;stroke-linejoin:round;stroke-miterlimit:9;stop-color:#000000"
     d="m 239.9976,159.9992 v -6e-4 c 0,-1.1e-4 9e-5,-2e-4 2e-4,-2e-4 h 0.002 c 1.1e-4,0 2e-4,9e-5 2e-4,2e-4 v 6e-4 z"
     sodipodi:nodetypes="csssscc" />
  <circle
     style="fill:#282828;fill-opacity:1;fill-rule:evenodd;stroke-width:0.999999;stroke-linecap:round;stroke-linejoin:round;stroke-miterlimit:9;stop-color:#000000"
     id="path856-9"
     cx="-239.99879"
     cy="-159.99919"
     r="0.00039999999"
     transform="scale(-1)" />
  <path
     id="rect841-9"
     style="fill:#cc241d;fill-rule:evenodd;stroke-width:3;stroke-linecap:round;stroke-linejoin:round;stroke-miterlimit:9;stop-color:#000000;fill-opacity:1"
     d="M 220,160 H 20 C 8.92,160 0,151.08 0,140 V 80 h 240 v 60 c 0,11.08 -8.92,20 -20,20 z"
     sodipodi:nodetypes="sssccss" />
  <circle
     style="fill:#d79921;fill-opacity:1;fill-rule:evenodd;stroke-width:3;stroke-linecap:round;stroke-linejoin:round;stroke-miterlimit:9;stop-color:#000000"
     id="path876"
     cx="120.00001"
     cy="80"
     r="40" />
</svg>
